<svg xmlns="http://www.w3.org/2000/svg" xmlns:xlink="http://www.w3.org/1999/xlink" viewBox="0 0 430 430" xmlns:v="https://vecta.io/nano"><g fill="#f3f5fd"><use xlink:href="#B"/><use xlink:href="#C"/></g><use xlink:href="#D" fill="#f55f5f"/><g fill="#f3f5fd"><use xlink:href="#E" opacity=".5"/><use xlink:href="#F" opacity=".5"/></g><use xlink:href="#G" opacity=".5" fill="#f55f5f"/><g fill="#f3f5fd"><use xlink:href="#B"/><use xlink:href="#C"/></g><use xlink:href="#D" fill="#f55f5f"/><g fill="#f3f5fd"><use xlink:href="#E" opacity=".5"/><use xlink:href="#F" opacity=".5"/></g><use xlink:href="#G" opacity=".5" fill="#f55f5f"/><g fill="#4c4956"><path d="M340.79 378.99h-66.61c-.93 0-1.82-.37-2.48-1.03s-1.02-1.55-1.02-2.48l.03-240.46c0-1.93 1.57-3.5 3.5-3.5h66.6c.93 0 1.82.37 2.48 1.03a3.49 3.49 0 0 1 1.02 2.47l-.02 240.46c0 1.94-1.57 3.51-3.5 3.51zm-63.12-7h59.61l.02-233.46h-59.6l-.03 233.46zm-29.38 7h-66.61c-.93 0-1.82-.37-2.48-1.03s-1.02-1.55-1.02-2.48l.03-166.46c0-1.93 1.57-3.5 3.5-3.5h66.6c.93 0 1.82.37 2.48 1.03s1.02 1.55 1.02 2.48l-.02 166.46c0 1.93-1.57 3.5-3.5 3.5zm-63.12-7h59.61l.01-159.46h-59.6l-.02 159.46zm-29.38 7H89.17c-.93 0-1.82-.37-2.48-1.03s-1.03-1.55-1.02-2.48l.03-92.46c0-1.93 1.57-3.5 3.5-3.5h66.6c.93 0 1.82.37 2.48 1.03s1.02 1.55 1.02 2.48l-.02 92.46c0 1.93-1.56 3.5-3.49 3.5zm-63.12-7h59.61l.01-85.46H92.7l-.03 85.46z"/><path d="M374.07 378.99H55.93c-1.93 0-3.5-1.57-3.5-3.5V97.99c0-1.93 1.57-3.5 3.5-3.5s3.5 1.57 3.5 3.5v274h314.64c1.93 0 3.5 1.57 3.5 3.5s-1.57 3.5-3.5 3.5zM84.09 221.27c-1.1 0-2.18-.51-2.86-1.48-1.12-1.58-.74-3.76.83-4.88l39.39-27.34 62.23-40.89 31.21-20.39 105.45-69.16 3.84 5.85-105.45 69.16-31.23 20.4-62.17 40.85c-13.08 8.73-38.97 27.05-39.23 27.23-.61.45-1.31.65-2.01.65z"/><path d="M318.03 100.19c-.12 0-.25-.01-.37-.02-1.92-.2-3.32-1.92-3.12-3.85l3.65-34.68-34.73-3.65c-1.92-.2-3.32-1.92-3.12-3.85.2-1.92 1.93-3.31 3.85-3.12l38.21 4.02c1.92.2 3.32 1.92 3.12 3.85l-4.01 38.16a3.5 3.5 0 0 1-3.48 3.14z"/></g><defs ><path id="B" d="M155.8 281.03H89.2c-1.1 0-2 .9-2 2l-.03 92.46c0 .53.21 1.04.59 1.41.38.38.88.59 1.41.59h66.61c1.1 0 2-.9 2-2l.01-92.46c0-.53-.21-1.04-.59-1.41-.36-.38-.87-.59-1.4-.59z"/><path id="C" d="M248.3 207.03h-66.6c-1.1 0-2 .9-2 2l-.03 166.46c0 .53.21 1.04.59 1.41.38.38.88.59 1.41.59h66.61c1.1 0 2-.9 2-2l.01-166.46c0-.53-.21-1.04-.59-1.41-.36-.38-.87-.59-1.4-.59z"/><path id="D" d="M342.21 133.62c-.38-.38-.88-.59-1.41-.59h-66.6c-1.1 0-2 .9-2 2l-.03 240.46c0 .53.21 1.04.59 1.41.38.38.88.59 1.41.59h66.61c1.1 0 2-.9 2-2l.01-240.46c.01-.53-.2-1.04-.58-1.41z"/><path id="E" d="M102.45 281.03H89.2c-1.1 0-2 .9-2 2l-.03 92.46c0 .53.21 1.04.59 1.41.38.38.88.59 1.41.59h13.25l.03-96.46z"/><path id="F" d="M194.95 207.03H181.7c-1.1 0-2 .9-2 2l-.03 166.46c0 .53.21 1.04.59 1.41.38.38.88.59 1.41.59h13.25l.03-170.46z"/><path id="G" d="M287.44 133.03H274.2c-1.1 0-2 .9-2 2l-.03 240.46c0 .53.21 1.04.59 1.41.38.38.88.59 1.41.59h13.25l.02-244.46z"/></defs></svg>