<svg xmlns="http://www.w3.org/2000/svg" viewBox="0 0 430 430" xmlns:v="https://vecta.io/nano"><g fill="#f3f5fd"><path d="M137.79 328.45h22.54c19.44 0 35.47-10.2 36.51-29.61l1.15-21.56a10.21 10.21 0 0 0-10.21-10.21h-67.09a8.96 8.96 0 0 0-8.96 8.96l3.92 32.46c1.17 11.35 10.73 19.96 22.14 19.96zm157.75 0H273c-19.44 0-35.47-10.2-36.51-29.61l-1.15-21.56a10.21 10.21 0 0 1 10.21-10.21h67.09a8.96 8.96 0 0 1 8.96 8.96l-3.92 32.46c-1.17 11.35-10.73 19.96-22.14 19.96z"/><path d="M152.46 328.45h-14.68c-11.4 0-20.96-8.62-22.14-19.96l-3.92-32.46a8.96 8.96 0 0 1 8.96-8.96h14.68a8.96 8.96 0 0 0-8.96 8.96l3.91 32.46c1.19 11.34 10.75 19.96 22.15 19.96zm135.22 0H273c-19.43 0-35.47-10.21-36.51-29.62l-1.15-21.55a10.21 10.21 0 0 1 10.21-10.21h14.67a10.21 10.21 0 0 0-10.21 10.21l1.16 21.55c1.03 19.41 17.07 29.62 36.51 29.62z" opacity=".5"/></g><g fill="#f55f5f"><path d="M364.35 196.97c0 14.35-66.93 25.98-149.48 25.98S65.38 211.32 65.38 196.97c0-7.95 20.55-15.07 52.92-19.83l19.21-60.28c3.23-10.16 13.29-16.53 23.86-15.11l25.7 3.42a210.29 210.29 0 0 0 55.59 0l25.7-3.42c10.57-1.42 20.63 4.95 23.86 15.11l19.21 60.28c32.37 4.76 52.92 11.88 52.92 19.83z"/><path d="M122.22 188.89c-11.58.21-21.44.21-28.43 7.34-4.43 4.52-6.03 10.19-6.68 14.24l-.2-.06c-13.66-3.92-21.53-8.52-21.53-13.44 0-7.78 19.71-14.77 50.91-19.53l2-.3.97-3.04 18.25-57.24c3.23-10.16 13.28-16.53 23.85-15.11l19.98 2.66c-3.26.36-14.56 2.02-23.29 11.6-4.98 5.46-7.09 11.27-8.03 14.68-3.9 18.91.62 36.21 9.45 43.79 10.27 8.82 21.88 10.48 21.88 10.48 1.06 0 2.61.33 2.61.53-.03.82-29.31 2.81-61.74 3.4z" opacity=".5"/></g><g fill="#4c4956"><path d="M215 189.45c-57.23 0-96.95-8.85-97.34-8.94-1.89-.43-3.07-2.3-2.64-4.19.43-1.88 2.3-3.06 4.19-2.64.39.09 39.4 8.76 95.8 8.76 56.45 0 95.4-8.67 95.79-8.76 1.88-.43 3.76.75 4.19 2.64s-.76 3.76-2.64 4.19c-.41.09-40.12 8.94-97.35 8.94zm20.43 97.19c-1.81 0-3.29-1.37-3.48-3.13-1.08-1.04-6.32-2.8-15.28-2.8s-14.2 1.76-15.28 2.8c-.19 1.76-1.67 3.13-3.48 3.13-1.93 0-3.5-1.57-3.5-3.5 0-8.51 15.57-9.43 22.26-9.43s22.26.92 22.26 9.43a3.5 3.5 0 0 1-3.5 3.5z"/><path d="M215 226.45c-40.12 0-77.87-2.72-106.3-7.66-13.98-2.43-25-5.28-32.77-8.47-9.36-3.85-13.92-8.21-13.92-13.35 0-5.58 5.44-10.29 16.62-14.4 9-3.3 21.48-6.19 37.13-8.58l18.55-58.2c3.75-11.79 15.38-19.17 27.66-17.52l25.7 3.42c18.14 2.42 36.53 2.42 54.66 0l25.7-3.42c12.27-1.65 23.91 5.73 27.65 17.52l18.55 58.2c15.64 2.39 28.13 5.27 37.13 8.58 11.18 4.1 16.62 8.81 16.62 14.4 0 5.13-4.55 9.5-13.92 13.35-7.76 3.19-18.79 6.04-32.77 8.47-28.42 4.94-66.17 7.66-106.29 7.66zm-56.44-121.4c-7.95 0-15.12 5.12-17.58 12.87l-19.21 60.28c-.41 1.27-1.5 2.21-2.82 2.4-40.96 6.03-49.93 13.86-49.93 16.37 0 2.7 8.54 9.3 40.88 14.92 28.04 4.87 65.37 7.56 105.1 7.56s77.06-2.68 105.1-7.56c32.34-5.62 40.88-12.22 40.88-14.92 0-2.51-8.97-10.34-49.93-16.37-1.32-.2-2.42-1.13-2.82-2.4l-19.21-60.28c-2.72-8.56-11.15-13.9-20.06-12.71l-25.7 3.42a213.83 213.83 0 0 1-56.51 0l-25.7-3.42c-.84-.11-1.67-.16-2.49-.16zm1.53 226.9h-22.54a25.72 25.72 0 0 1-25.63-23.09l-3.91-32.41c-.02-.14-.03-.28-.03-.42 0-6.87 5.59-12.46 12.46-12.46h67.09a13.73 13.73 0 0 1 13.71 13.71v.19l-1.15 21.56c-1.06 20-16.76 32.92-40 32.92zM115 275.85l3.89 32.23c1.01 9.64 9.03 16.87 18.67 16.87h22.54c14.58 0 31.98-6.89 33.02-26.3l1.15-21.45c-.04-3.66-3.04-6.62-6.71-6.62h-67.09c-2.97 0-5.38 2.35-5.47 5.27zm180.31 56.1h-22.54c-23.23 0-38.94-12.92-40.01-32.92l-1.15-21.56v-.19a13.73 13.73 0 0 1 13.71-13.71h67.09c6.87 0 12.46 5.59 12.46 12.46 0 .14-.01.28-.03.42l-3.92 32.46c-1.36 13.11-12.37 23.04-25.61 23.04zm-56.7-54.75l1.15 21.45c1.04 19.41 18.43 26.3 33.02 26.3h22.54c9.64 0 17.66-7.23 18.67-16.82l3.89-32.28c-.1-2.93-2.51-5.28-5.46-5.28h-67.09c-3.68.01-6.67 2.97-6.72 6.63z"/></g></svg>