<svg xmlns="http://www.w3.org/2000/svg" viewBox="0 0 430 430" xmlns:v="https://vecta.io/nano"><path d="M353.59 193.31h21l.05 38.61h-21.35zM110.98 95.19V29.23h185.34v67.58l-185.34-1.62zm185.09 239.62v65.96H110.74v-67.58l185.33 1.62z" fill="#f55f5f"/><path d="M374.64 235.42h-21.35c-.93 0-1.83-.37-2.48-1.04-.66-.66-1.02-1.56-1.02-2.49l.31-38.61c.02-1.92 1.58-3.47 3.5-3.47h21a3.5 3.5 0 0 1 3.5 3.5l.05 38.61c0 .93-.37 1.82-1.02 2.48a3.58 3.58 0 0 1-2.49 1.02zm-17.83-7h14.32l-.04-31.61h-14.03l-.25 31.61zm-60.74 175.85H110.74c-1.93 0-3.5-1.57-3.5-3.5v-67.58c0-.93.37-1.83 1.04-2.49a3.52 3.52 0 0 1 2.49-1.01l185.34 1.62c1.92.02 3.47 1.58 3.47 3.5v65.96c-.01 1.93-1.57 3.5-3.51 3.5zm-181.83-7h178.34v-58.99l-178.34-1.56v60.55zm182.08-296.96h-.03l-185.34-1.62c-1.92-.02-3.47-1.58-3.47-3.5V29.23c0-1.93 1.57-3.5 3.5-3.5h185.34c1.93 0 3.5 1.57 3.5 3.5v67.58c0 .93-.37 1.83-1.04 2.49a3.5 3.5 0 0 1-2.46 1.01zm-181.84-8.59l178.34 1.56V32.73H114.48v58.99z" fill="#4c4956"/><path d="M138.48 29.23h-27.5v65.96l27.5.24zm-.24 304.2l-27.5-.24v67.58h27.5z" opacity=".5" fill="#f55f5f"/><g fill="#f3f5fd"><path d="M309.79 321.08c-58.2 58.2-152.57 58.2-210.77 0s-58.2-152.57 0-210.77 152.57-58.2 210.77 0 58.2 152.56 0 210.77z"/><path d="M329.4 294.44c-58.2 58.2-152.57 58.2-210.77 0-48.73-48.73-56.65-122.8-23.78-179.79-53.99 58.46-52.61 149.65 4.16 206.42 58.2 58.2 152.57 58.2 210.77 0a149.39 149.39 0 0 0 23.78-30.98c-1.35 1.47-2.73 2.93-4.16 4.35z" opacity=".5"/></g><g fill="#4c4956"><path d="M204.4 368.16c-39.06 0-78.12-14.87-107.86-44.61-59.47-59.48-59.47-156.25 0-215.72 59.48-59.47 156.25-59.47 215.72 0 59.47 59.48 59.47 156.25 0 215.72-29.74 29.74-68.8 44.61-107.86 44.61zm0-298.01c-38.88 0-75.42 15.14-102.91 42.63-56.75 56.75-56.75 149.08 0 205.82 27.49 27.49 64.04 42.63 102.91 42.63s75.42-15.14 102.91-42.63 42.63-64.04 42.63-102.91-15.14-75.42-42.63-102.91-64.03-42.63-102.91-42.63zm0 150.54c-2.76 0-5-2.24-5-5V113.27c0-2.76 2.24-5 5-5s5 2.24 5 5v102.42c0 2.76-2.24 5-5 5z"/><path d="M204.4 220.69a5.02 5.02 0 0 1-3.54-1.46c-1.95-1.95-1.95-5.12 0-7.07l53.26-53.26c1.95-1.95 5.12-1.95 7.07 0s1.95 5.12 0 7.07l-53.26 53.26a4.98 4.98 0 0 1-3.53 1.46z"/></g></svg>