<svg xmlns="http://www.w3.org/2000/svg" viewBox="0 0 430 430" xmlns:v="https://vecta.io/nano"><style>.A{isolation:isolate}.C{mix-blend-mode:multiply}</style><g class="A"><g><g><g fill="#f3f5fd"><path d="M205.42 174.21a21.23 21.23 0 0 0-6.85 41.35l48.81 16.8v54.39a23.14 23.14 0 0 1-23.09 23.09h-106a23.14 23.14 0 0 1-23.09-23.09V64.62a23.15 23.15 0 0 1 23.09-23.08h106a23.15 23.15 0 0 1 23.09 23.08V189l-35.22-13.69c-2.23-.74-7.53-1.08-6.74-1.1z"/><path class="C" d="M224.29 309.84h-106a23.15 23.15 0 0 1-23.08-23.09V64.62s10.88 165 25.25 209.05c10.54 32.5 103.83 36.17 103.83 36.17z" opacity=".5"/></g><g fill="#f55f5f"><path d="M316.83 302.38l-88.47 59.18-55.9-51.7h51.83a23.15 23.15 0 0 0 23.09-23.09v-54.39l-48.81-16.8a21.23 21.23 0 0 1 6.85-41.35c-.79 0 4.51.35 6.74 1.11L247.38 189l32.49 11.33h.05a21.13 21.13 0 0 1 10.57 13L306 268.84z"/><path d="M316.82 302.37l18 26.89-88.45 59.2-18.01-26.91 88.46-59.18z"/></g><g fill="#090b2e"><path d="M190.61 72.15H152a3.5 3.5 0 0 1 0-7h38.66a3.5 3.5 0 0 1 0 7zm147.12 255.17L320 300.87l-10.64-33.06-15.53-55.36a24.82 24.82 0 0 0-12.24-15.14 4.06 4.06 0 0 0-.6-.27h0l-30.14-10.51V64.62A26.61 26.61 0 0 0 224.29 38h-106a26.61 26.61 0 0 0-26.61 26.62v222.13a26.62 26.62 0 0 0 26.59 26.59h52.82l54.59 50.5 17.78 26.57a3.52 3.52 0 0 0 2.23 1.49 4 4 0 0 0 .68.06 3.49 3.49 0 0 0 1.95-.59l88.45-59.2a3.5 3.5 0 0 0 .96-4.85zm-239-40.57V64.62A19.61 19.61 0 0 1 118.27 45h106a19.61 19.61 0 0 1 19.59 19.58V183.9l-30.45-11.83-.14-.06a35.57 35.57 0 0 0-6.76-1.17h-.27a3.86 3.86 0 0 0-.84-.1 24.73 24.73 0 0 0-8 48.16l46.45 16v51.89a19.61 19.61 0 0 1-19.59 19.59h-106a19.61 19.61 0 0 1-19.58-19.63zm125.61 26.59a26.62 26.62 0 0 0 26.59-26.59v-54.39a3.51 3.51 0 0 0-2.36-3.31l-48.83-16.8a17.74 17.74 0 0 1 5.47-34.54 5.77 5.77 0 0 0 .62.09l.49.06a39.84 39.84 0 0 1 4.18.62l.52.14 35.14 13.66.12.05 32.22 11.23a17.52 17.52 0 0 1 8.67 10.78l15.55 55.43a.56.56 0 0 0 0 .12l10 31-84 56.18-47.32-43.73zm23 70.27l-14.12-21.1 82.65-55.28L330 328.3z"/></g></g></g></g></svg>