<svg xmlns="http://www.w3.org/2000/svg" xmlns:xlink="http://www.w3.org/1999/xlink" viewBox="0 0 500 500" xmlns:v="https://vecta.io/nano"><path d="M410.12 112.29v28.96H89.88v-28.96a22.41 22.41 0 0 1 22.41-22.41h275.42a22.41 22.41 0 0 1 22.41 22.41z" fill="#f3f5fd"/><path d="M207.68 141.25v268.87h-95.39a22.41 22.41 0 0 1-22.41-22.41V141.25h117.8z" fill="#f55f5f"/><g fill="#f3f5fd"><path d="M410.12 141.25v246.46a22.41 22.41 0 0 1-22.41 22.41H207.68V141.25h202.44z"/><path d="M370.37 298H247.36c-1.1 0-2-.9-2-2V172.98c0-1.1.9-2 2-2h123.01c1.1 0 2 .9 2 2V296a2 2 0 0 1-2 2z"/></g><g fill="#f55f5f"><path d="M295.04 212.55a2 2 0 0 1 3.46 0l23.8 41.22L346.1 295c.77 1.33-.19 3-1.73 3h-47.6-49.33c-.77 0-1.25-.83-.87-1.5l24.67-42.72 23.8-41.23z"/><path d="M345.42 257.36a2 2 0 0 1 3.46 0l10.87 18.82 11.73 20.32c.38.67-.1 1.5-.87 1.5h-23.46-25.2l12.6-21.82 10.87-18.82z"/><circle cx="337.97" cy="206.14" r="12.13"/></g><circle cx="147.29" cy="203.93" r="33.99" fill="#f3f5fd"/><g fill="#4c4956"><path d="M410.12 144.75H89.88c-1.93 0-3.5-1.57-3.5-3.5v-28.96C86.38 98 98 86.38 112.29 86.38h275.42c14.29 0 25.91 11.62 25.91 25.91v28.96c0 1.93-1.57 3.5-3.5 3.5zm-316.74-7h313.24v-25.46c0-10.43-8.48-18.91-18.91-18.91H112.29c-10.43 0-18.91 8.48-18.91 18.91v25.46z"/><path d="M207.68 413.62h-95.39c-14.29 0-25.91-11.62-25.91-25.91V141.25c0-1.93 1.57-3.5 3.5-3.5h117.8c1.93 0 3.5 1.57 3.5 3.5v268.87c0 1.93-1.57 3.5-3.5 3.5zM93.38 144.75v242.96c0 10.43 8.48 18.91 18.91 18.91h91.89V144.75H93.38z"/><path d="M387.71 413.62H207.68c-1.93 0-3.5-1.57-3.5-3.5V141.25c0-1.93 1.57-3.5 3.5-3.5h202.44c1.93 0 3.5 1.57 3.5 3.5v246.46c0 14.29-11.62 25.91-25.91 25.91zm-176.53-7h176.53c10.43 0 18.91-8.48 18.91-18.91V144.75H211.18v261.87z"/></g><path d="M178 121.57h-.14c-3.31 0-6-2.69-6-6s2.69-6 6-6h.14c3.31 0 6 2.69 6 6s-2.69 6-6 6zm-56.3 0h-.14c-3.31 0-6-2.69-6-6s2.69-6 6-6h.14c3.31 0 6 2.69 6 6a6 6 0 0 1-6 6zm28.15 0h-.14c-3.31 0-6-2.69-6-6s2.69-6 6-6h.14c3.31 0 6 2.69 6 6a6 6 0 0 1-6 6zM294.46 328h-.12c-3.31 0-6-2.69-6-6s2.69-6 6-6h.12c3.31 0 6 2.69 6 6a6 6 0 0 1-6 6zm-48.98 0h-.12c-3.31 0-6-2.69-6-6s2.69-6 6-6h.12c3.31 0 6 2.69 6 6s-2.69 6-6 6zm24.49 0h-.12c-3.31 0-6-2.69-6-6s2.69-6 6-6h.12c3.31 0 6 2.69 6 6a6 6 0 0 1-6 6z" fill="#f55f5f"/><g fill="#4c4956"><path d="M372.37 301.5H245.36c-1.93 0-3.5-1.57-3.5-3.5V170.98c0-1.93 1.57-3.5 3.5-3.5h127.01c1.93 0 3.5 1.57 3.5 3.5V298a3.5 3.5 0 0 1-3.5 3.5zm-123.51-7h120.01V174.48H248.86V294.5z"/><path d="M347.83 301.5H245.71a3.5 3.5 0 0 1-3.03-1.75c-.63-1.08-.63-2.42 0-3.5l51.06-88.45a3.51 3.51 0 0 1 3.03-1.75 3.5 3.5 0 0 1 3.03 1.75l38.12 66.03c.97 1.67.39 3.81-1.28 4.78s-3.81.39-4.78-1.28l-35.09-60.78-45 77.95h96.06c1.93 0 3.5 1.57 3.5 3.5s-1.57 3.5-3.5 3.5z"/><path d="M372.35 301.5h-50.39a3.5 3.5 0 0 1-3.03-1.75c-.62-1.08-.62-2.42 0-3.5l25.2-43.64a3.51 3.51 0 0 1 3.03-1.75 3.5 3.5 0 0 1 3.03 1.75l25.2 43.64c.62 1.08.62 2.42 0 3.5-.63 1.08-1.79 1.75-3.04 1.75zm-44.33-7h38.27l-19.14-33.14-19.13 33.14zm9.95-72.73c-8.62 0-15.62-7.01-15.62-15.62s7.01-15.62 15.62-15.62 15.62 7.01 15.62 15.62-7 15.62-15.62 15.62zm0-24.25a8.63 8.63 0 0 0-8.62 8.62c0 4.75 3.87 8.62 8.62 8.62s8.62-3.87 8.62-8.62a8.63 8.63 0 0 0-8.62-8.62zm34.38 156.98H245.36c-1.93 0-3.5-1.57-3.5-3.5s1.57-3.5 3.5-3.5h126.99c1.93 0 3.5 1.57 3.5 3.5s-1.57 3.5-3.5 3.5zm-63.49 27h-63.49c-1.93 0-3.5-1.57-3.5-3.5s1.57-3.5 3.5-3.5h63.49c1.93 0 3.5 1.57 3.5 3.5s-1.57 3.5-3.5 3.5zM147.29 241.41c-20.67 0-37.49-16.82-37.49-37.49s16.82-37.49 37.49-37.49 37.49 16.82 37.49 37.49-16.82 37.49-37.49 37.49zm0-67.97c-16.81 0-30.49 13.68-30.49 30.49s13.68 30.49 30.49 30.49 30.49-13.68 30.49-30.49-13.68-30.49-30.49-30.49z"/></g><g fill="#f3f5fd"><use xlink:href="#B"/><path d="M178 299.23h-40.5c-1.93 0-3.5-1.57-3.5-3.5s1.57-3.5 3.5-3.5H178c1.93 0 3.5 1.57 3.5 3.5s-1.57 3.5-3.5 3.5zm-60.62 1.5h-.81c-2.76 0-5-2.24-5-5s2.24-5 5-5h.81c2.76 0 5 2.24 5 5s-2.24 5-5 5z"/><use xlink:href="#B" y="55.27"/><use xlink:href="#B" y="82.9"/></g><path d="M334.89 275.58l-.34.59-12.6 21.82h-12l12.6-21.82 6.34-10.98z" opacity=".5" fill="#f55f5f"/><defs ><path id="B" d="M178 271.6h-61.43c-1.93 0-3.5-1.57-3.5-3.5s1.57-3.5 3.5-3.5H178c1.93 0 3.5 1.57 3.5 3.5s-1.57 3.5-3.5 3.5z"/></defs></svg>