<svg xmlns="http://www.w3.org/2000/svg" viewBox="0 0 430 430" xmlns:v="https://vecta.io/nano"><g fill="#f3f5fd"><path d="M352.7 375.1H77.3c-12.4 0-22.4-10-22.4-22.4V77.3c0-12.4 10-22.4 22.4-22.4h275.4c12.4 0 22.4 10 22.4 22.4v275.4c0 12.4-10 22.4-22.4 22.4z"/><path d="M375.1 77.3v29H54.9v-29c0-12.4 10-22.4 22.4-22.4h275.4c12.4 0 22.4 10 22.4 22.4z" opacity=".5"/></g><path d="M105.1 238.2h30.2v30.2h-30.2zm0 74h30.2v30.2h-30.2z" fill="#f55f5f"/><g fill="#4c4956"><path d="M352.7 378.6H77.3a25.91 25.91 0 0 1-25.9-25.9V77.3a25.91 25.91 0 0 1 25.9-25.9h275.4a25.91 25.91 0 0 1 25.9 25.9v275.4a25.91 25.91 0 0 1-25.9 25.9zM77.3 58.4c-10.4 0-18.9 8.5-18.9 18.9v275.4c0 10.4 8.5 18.9 18.9 18.9h275.4c10.4 0 18.9-8.5 18.9-18.9V77.3c0-10.4-8.5-18.9-18.9-18.9H77.3z"/><path d="M373.1 109.8H54.9c-1.9 0-3.5-1.6-3.5-3.5s1.6-3.5 3.5-3.5h318.2c1.9 0 3.5 1.6 3.5 3.5s-1.5 3.5-3.5 3.5z"/></g><path d="M143 86.6h-.1a6.02 6.02 0 0 1-6-6 6.02 6.02 0 0 1 6-6h.1a6.02 6.02 0 0 1 6 6 6.02 6.02 0 0 1-6 6zm-56.3 0h-.1a6.02 6.02 0 0 1-6-6 6.02 6.02 0 0 1 6-6h.1a6.02 6.02 0 0 1 6 6 6.02 6.02 0 0 1-6 6zm28.2 0h-.1a6.02 6.02 0 0 1-6-6 6.02 6.02 0 0 1 6-6h.1a6.02 6.02 0 0 1 6 6 6.02 6.02 0 0 1-6 6z" fill="#f55f5f"/><path d="M135.3 272h-30.2c-1.9 0-3.5-1.6-3.5-3.5v-30.2c0-1.9 1.6-3.5 3.5-3.5h30.2c1.9 0 3.5 1.6 3.5 3.5v30.2c0 1.9-1.6 3.5-3.5 3.5zm-26.7-7h23.2v-23.2h-23.2V265zm26.7 81h-30.2c-1.9 0-3.5-1.6-3.5-3.5v-30.2c0-1.9 1.6-3.5 3.5-3.5h30.2c1.9 0 3.5 1.6 3.5 3.5v30.2c0 1.9-1.6 3.5-3.5 3.5zm-26.7-7h23.2v-23.2h-23.2V339zm95.4-82.2h-34.7c-1.9 0-3.5-1.6-3.5-3.5s1.6-3.5 3.5-3.5H204c1.9 0 3.5 1.6 3.5 3.5s-1.6 3.5-3.5 3.5zm111 0h-76c-1.9 0-3.5-1.6-3.5-3.5s1.6-3.5 3.5-3.5h76c1.9 0 3.5 1.6 3.5 3.5s-1.6 3.5-3.5 3.5zm0 74H169.3c-1.9 0-3.5-1.6-3.5-3.5s1.6-3.5 3.5-3.5H315c1.9 0 3.5 1.6 3.5 3.5s-1.6 3.5-3.5 3.5zm9.9-178.3H105.1c-1.9 0-3.5-1.6-3.5-3.5s1.6-3.5 3.5-3.5H325c1.9 0 3.5 1.6 3.5 3.5s-1.6 3.5-3.6 3.5zm-152.9 36h-67c-1.9 0-3.5-1.6-3.5-3.5s1.6-3.5 3.5-3.5h67c1.9 0 3.5 1.6 3.5 3.5s-1.5 3.5-3.5 3.5z" fill="#4c4956"/></svg>