<svg xmlns="http://www.w3.org/2000/svg" fill="#b6cce1" viewBox="0 0 628.1 150" stroke="#b6cce1" stroke-width="4" stroke-miterlimit="10" xmlns:v="https://vecta.io/nano"><path d="M161 111.8V12.4h58.7v12.5h-46.5v30.5H215v12.4h-41.8V99H223v12.4h-62v.4zm123.6 0l-20.2-26.4-20.1 26.4H230l27.6-35.3-29-36.5h16l19.8 27.3L284.6 40h15.7l-27.6 36.5 26.1 35.3h-14.2zm33.8-10.7V150h-12.2V76.8c0-18.7 14.2-38.5 36.5-38.5 22.5 0 39.4 14.2 39.4 37.6 0 22.8-17.2 38.5-36.8 38.5-9.4 0-22.2-4.1-26.9-13.3h0zm51-25.2c0-16-10.4-25.5-28.7-24.6-8.9.3-22.5 6.8-21.3 29.6.3 7.4 8 21.3 24.9 21.3 14.4.1 25.1-8.2 25.1-26.3h0zm23.1 35.9V40h12.2v7.7c5.9-6.8 15.1-9.2 24.9-9.2v13c-1.5-.3-16-2.1-24.9 16.9V112h-12.2v-.2zm40.3-35.9c0-20.7 14.8-37.6 35.3-37.6 25.5 0 35 16.9 35 38.5v5.9h-56.9c.9 13.6 13 20.7 24.3 20.5 8.3-.3 13.9-2.7 19.9-8.6l8 8.3c-7.4 7.1-16.9 11.9-28.5 11.9-21.7-.4-37.1-16.4-37.1-38.9h0zm34.4-25.5c-11.6 0-20.4 10.1-21 21h44.2c-.1-10.6-7.8-21-23.2-21h0zm42.1 51.3l8.9-8c-.3 0 4.4 4.7 5 5 2.1 1.8 4.1 3 6.8 3.6 7.7 2.1 21.6 1.5 22.8-9.2.6-5.9-3.9-9.2-8.9-11.3-6.5-2.4-13.6-3.3-20.2-6.2-7.4-3.3-12.1-8.9-12.1-17.2 0-21.6 30.8-25.2 44.8-15.1l7.1 6.8-8.9 7.1c-4.4-5.3-8.6-8-18.1-8-4.8 0-11.3 2.1-12.5 7.1-1.8 7.1 6.2 9.8 11.6 11.3 7.1 1.8 14.8 3 21.1 6.8 8.6 5.3 10.7 16.9 7.4 25.8-3.6 9.8-14.2 13.6-23.7 13.9-10.8.8-21.5-3.2-29.1-11-.5.1-2-1.4-2-1.4h0zm62.5 0l8.9-8c-.3 0 4.4 4.7 5 5 2.1 1.8 4.1 3 6.8 3.6 7.7 2.1 21.6 1.5 22.8-9.2.6-5.9-3.8-9.2-8.9-11.3-6.5-2.4-13.6-3.3-20.2-6.2-7.4-3.3-12.1-8.9-12.1-17.2 0-21.6 30.8-25.2 44.8-15.1l7.1 6.8-8.9 7.1c-4.4-5.3-8.6-8-18.1-8-4.7 0-11.3 2.1-12.4 7.1-1.8 7.1 6.2 9.8 11.6 11.3 7.1 1.8 14.8 3 21 6.8 8.6 5.3 10.7 16.9 7.4 25.8-3.6 9.8-14.2 13.6-23.7 13.9-11.3.6-21-3-29.1-11-.5.1-2-1.4-2-1.4h0zM78.6 111.8L69.7 88h-48l-8.9 23.7H0l38.5-99.3h13.9l38.2 99.3-12 .1zM45.1 26.7L27 75.9h37.6L45.1 26.7zm53.6 85.1V12.4h12.5v99.3l-12.5.1zm31.1 0V41.5h12.4v70.2h-12.4v.1zm24.3-93.1v-.6-.6c-9.5-.3-17.1-8-17.5-17.5h-1.8c-.3 9.5-8 17.2-17.5 17.5v1.2c9.5.3 17.1 8 17.5 17.5h1.8c.4-9.6 8-17.2 17.5-17.5h0z"/></svg>