<svg xmlns="http://www.w3.org/2000/svg" fill="#b6cce1" viewBox="0 0 842.5 150" xmlns:v="https://vecta.io/nano"><path d="M486.9 27.7V8.6c0-2.9 2-4.7 4.7-4.7h85.7c2.7 0 5.1 2 5.1 4.7v16.2c0 2.7-2.4 6.3-6.4 12.2l-44.3 63.2c16.6-.3 34 2 48.7 10.3 3.2 1.7 4.1 4.7 4.4 7.4v20.5c0 2.9-2.9 6.3-6.3 4.4-26.4-13.9-61.6-15.4-90.5.3-2.9 1.5-6.3-1.5-6.3-4.4v-19.6c0-2.9 0-8.3 3.2-13l51.4-73.6h-44.6c-2.5 0-4.8-2.1-4.8-4.8h0zM174.4 147h-25.9c-2.4-.3-4.4-2-4.7-4.4V9c0-2.7 2.4-4.7 5.1-4.7H173c2.7 0 4.4 2 4.7 4.4V26h.5c6.3-16.9 18.3-24.9 34.3-24.9 16.2 0 26.6 7.9 33.7 24.9 6.3-16.9 20.6-24.9 36-24.9 11 0 22.8 4.4 30.1 14.7 8.3 11.2 6.4 27.6 6.4 41.9v84.6c0 2.7-2.4 4.7-5.1 4.7H288c-2.7-.3-4.7-2.4-4.7-4.7v-71c0-5.6.5-19.8-.5-25.2-2-8.8-7.6-11.5-15.4-11.5-6.3 0-13 4.1-15.7 11s-2.4 18.1-2.4 25.7v71c0 2.7-2.4 4.7-5.1 4.7h-26c-2.7-.3-4.7-2.4-4.7-4.7v-71c0-14.7 2.4-37-15.9-37-18.6 0-18.1 21.3-18.1 37v71c-.1 2.6-2.1 4.7-5.1 4.7h0zM656.3 1.2C695 1.2 716 34.3 716 76.6c0 40.8-23 73.4-59.7 73.4-37.9 0-58.5-33.1-58.5-74.6-.3-41.7 20.6-74.2 58.5-74.2h0zm0 27.5c-19.3 0-20.5 26.2-20.5 42.4s-.3 51.1 20.1 51.1c20.1 0 21.3-28.1 21.3-45.2 0-11.2-.5-24.9-3.9-35.5-2.8-9.2-8.7-12.8-17-12.8h0zM766.1 147h-26c-2.7-.3-4.7-2.4-4.7-4.7V8.3c.3-2.4 2.4-4.4 5.1-4.4h24.2c2.4 0 4.1 1.7 4.7 3.9v20.5h.5c7.4-18.3 17.4-26.9 35.5-26.9 11.5 0 23 4.1 30.4 15.7 6.8 10.7 6.8 28.7 6.8 41.8v84.2c-.3 2.4-2.4 4.1-5.1 4.1h-26c-2.4-.3-4.4-2-4.7-4.1V70.3c0-14.7 1.7-36-16.2-36-6.3 0-12.2 4.1-15.1 10.7-3.6 8.3-4.1 16.2-4.1 25.4v72.2c-.4 2.3-2.8 4.4-5.3 4.4h0zM418.7 83c0 10 .3 18.6-4.7 27.7-4.1 7.4-10.7 11.8-18.1 11.8-10 0-15.9-7.6-15.9-18.9 0-22.2 19.8-26.4 38.7-26.4V83zm26.2 63.6c-1.7 1.5-4.1 1.7-6.3.5-8.6-7.1-10.3-10.7-15.1-17.4-14.2 14.5-24.5 18.9-42.8 18.9-21.8 0-39.1-13.5-39.1-40.6 0-21.3 11.5-35.5 27.7-42.6 14.2-6.3 34-7.4 49-9.1v-3.2c0-6.3.5-13.5-3.2-18.9-3.2-4.7-9.1-6.8-14.5-6.8-10 0-18.9 5.1-21 15.7-.5 2.4-2 4.7-4.4 4.7L350 45.1c-2-.5-4.4-2-3.9-5.2C352.4 9.1 380 0 404.7 0c12.7 0 29.3 3.2 39.4 13 12.7 11.8 11.5 27.7 11.5 45v40.6c0 12.2 5.1 17.4 9.8 24.2 1.7 2.4 2 5.2 0 6.8-5.6 4.3-15.1 12.6-20.5 17h0zM77.1 83c0 10 .3 18.6-4.7 27.7-4.1 7.4-10.7 11.8-18.1 11.8-10 0-15.9-7.6-15.9-18.9 0-22.2 19.8-26.4 38.7-26.4V83zm26.1 63.6c-1.7 1.5-4.1 1.7-6.3.5-8.6-7.1-10.3-10.7-15.1-17.4-14.2 14.5-24.5 18.9-42.8 18.9-22 0-39.1-13.5-39.1-40.4 0-21.3 11.5-35.5 27.7-42.6 14.2-6.3 34-7.4 49-9.1v-3.2c0-6.3.5-13.5-3.2-18.9-3.2-4.7-9.1-6.8-14.5-6.8-10 0-18.9 5.1-21 15.7-.5 2.4-2 4.7-4.4 4.7l-25-2.9c-2-.5-4.4-2-3.9-5.2C10.7 9.1 38.2 0 62.9 0c12.7 0 29.3 3.2 39.4 13 12.7 11.8 11.5 27.7 11.5 45v40.6c0 12.2 5.1 17.4 9.8 24.2 1.7 2.4 2 5.2 0 6.8-5.6 4.3-15 12.6-20.4 17h0z" fill-rule="evenodd"/></svg>