<svg xmlns="http://www.w3.org/2000/svg" viewBox="3.299999952316284 1.6999999284744263 17.30000114440918 20.700000762939453" xmlns:v="https://vecta.io/nano"><linearGradient id="A" gradientUnits="userSpaceOnUse" x1="3.294" y1="14.35" x2="20.706" y2="14.35"><stop offset="0" stop-color="#1245c6"></stop><stop offset="1" stop-color="#9909b7"></stop></linearGradient><path d="M18.7 15.2c-.6-.8-.9-1.8-.9-2.8 0-.9.3-1.8.8-2.6.3-.4.8-.9 1.4-1.5-.4-.5-.9-.9-1.3-1.2-.8-.5-1.7-.8-2.7-.8-.6 0-1.3.1-2.2.4-.8.3-1.4.4-1.8.4-.3 0-.9-.1-1.7-.4a7.47 7.47 0 0 0-2-.3c-1.5 0-2.7.6-3.6 1.8S3.3 11 3.3 12.9c0 2 .6 4.1 1.8 6.3s2.5 3.2 3.8 3.2a3.73 3.73 0 0 0 1.6-.4c.7-.3 1.3-.4 1.8-.4a4.98 4.98 0 0 1 1.9.4c.8.3 1.3.4 1.7.4 1.1 0 2.1-.8 3.2-2.4a11.03 11.03 0 0 0 1.5-3.1c-.6-.3-1.3-.9-1.9-1.7z" fill="url(#A)"></path><linearGradient id="B" gradientUnits="userSpaceOnUse" x1="11.831" y1="4.131" x2="16.006" y2="4.131"><stop offset="0" stop-color="#1245c6"></stop><stop offset="1" stop-color="#9909b7"></stop></linearGradient><path d="M14.5 5.5c.5-.5.9-1.1 1.1-1.7a3.81 3.81 0 0 0 .4-1.7V2v-.1-.1-.1c-1.5.3-2.5 1-3.1 1.9s-.9 2-1 3.2c.6-.1 1-.1 1.3-.2.4-.3.8-.6 1.3-1.1z" fill="url(#B)"></path></svg>