<svg xmlns="http://www.w3.org/2000/svg" xmlns:xlink="http://www.w3.org/1999/xlink" viewBox="0 0 162.3 183.5" xmlns:v="https://vecta.io/nano"><defs><path id="A" transform="matrix(.8009 -.5988 .5988 .8009 -38.7917 66.8574)" d="M45.6 3.7h71v176.1h-71z"/></defs><clipPath id="B"><use xlink:href="#A"/></clipPath><g clip-path="url(#B)"><path d="M0 42.5c26-9.7 79.3 2.4 102.1 22.4 24.7 21.5 31.1 39.8 30 87.8 3.1-2.9 5.4-5.4 7.7-7.5 2.6-2.4 5.4-5 8.4-7 .8-.6 3-.9 3.6-.4s.2 2.4-.5 3.2l-20.5 23.3c-2.3 2.5-4.8 3.4-6.9 2.3l-22.8-13.7c-1.6-1.1-2.3-3.4-3.8-5.5 8.4-3.8 10.3.5 14.1 1.7 4 1.2 7.4 3.3 12.1 5.3 3.2-15.4 2.7-28.2-.3-40C112.4 71.3 78.4 49.7 27 44.6c-6.7-.6-13.9-.4-20.8-.8C4.6 43.3 3 43 0 42.5z" fill="#313131"/></g></svg>