<svg xmlns="http://www.w3.org/2000/svg" viewBox="0 0 881.1 150" xmlns:v="https://vecta.io/nano"><path d="M15 11.8c0-2.7-1.7-5.2-4.4-6L0 2.5V.6h68.4c8.9 0 16.6 1 22.9 2.7 6.6 1.7 12 4.2 16.2 7.3s7.3 6.7 9.4 11 3.1 8.7 3.1 13.5c0 4.2-.8 8.3-2.1 12s-3.7 7.1-6.6 10.2-6.6 5.8-10.8 8.1-9.3 4-15 5.4c6.7 1 12.5 2.5 17.5 4.6 5 2.3 9.3 5 12.7 8.3s6 6.9 7.7 11.2c1.7 4.2 2.7 8.7 2.7 13.3 0 7.1-1.5 13.1-4.4 18.1s-7.1 9.1-12.7 12.1c-5.6 3.1-12.3 5.4-20.4 6.7s-17.4 2.1-27.8 2.1H0v-1.9l10.6-3.5c2.7-.8 4.4-3.3 4.4-6v-124zM60.7 69c5.2 0 9.6-.8 13.5-2.5 3.6-1.5 6.7-3.8 9.3-6.7 2.3-2.9 4-6.2 5.2-10.2 1.2-3.9 1.7-8.1 1.7-12.7s-.6-8.9-1.7-12.7-2.9-7.1-5.2-9.8-5.4-4.8-9.3-6.4-8.5-2.3-13.9-2.3h-17V69h17.4zm-17.3 73.5h17.2c6.2 0 11.4-.8 15.8-2.3s8.1-3.9 10.8-6.9c3-3.1 5.1-6.9 6.4-11 1.3-4.2 2.1-9.1 2.1-14.5 0-5-.6-9.8-1.9-13.9-1.3-4.2-3.3-7.7-6-10.6s-6.2-5.2-10.4-6.7-9.4-2.3-15.2-2.3H43.6v68.3l-.2-.1zm155.4 7.1c-7.7.8-15 .2-22-1.7-6.9-1.9-13.1-5-18.5-9.3s-9.8-9.4-13.3-15.6-5.6-13.3-6.6-21c-.8-7.7-.2-15 1.9-21.8 2.1-6.7 5.2-12.9 9.6-18.3s9.8-9.6 16-13.1c6.4-3.5 13.3-5.6 21-6.4s15.2-.2 22.2 1.7c6.9 1.9 13.1 5.2 18.5 9.4s9.8 9.4 13.3 15.8c3.5 6.2 5.6 13.1 6.6 21 .8 7.7.2 15-1.9 22-2.1 6.7-5.2 12.9-9.6 18.1s-9.8 9.6-16.2 13.1-13.3 5.3-21 6.1h0zm-.4-3.5c4-.4 7.8-2 10.8-4.6 3.1-2.7 5.6-6.2 7.3-10.8s2.9-10 3.5-16.4.4-13.5-.4-21.2-2.1-14.7-4-20.8c-1.9-6-4.2-11.2-6.9-15.2s-6-7.1-9.4-9.1c-3.5-1.9-7.3-2.7-11.6-2.3-4.2.4-7.7 1.9-10.8 4.6s-5.4 6.4-7.1 10.8c-1.7 4.6-2.9 10-3.5 16.4s-.4 13.3.6 21.2c.8 7.9 2.1 14.8 4 20.8s4 11.2 6.9 15.2c2.7 4 5.8 6.9 9.4 8.9 3.3 2.2 7.1 2.9 11.2 2.5zm343.9 3.5c-7.7.8-15 .2-22-1.7-6.9-1.9-13.1-5-18.5-9.3-5.4-4.2-9.8-9.4-13.3-15.6s-5.6-13.3-6.6-21c-.8-7.7-.2-15 1.9-21.8s5.2-12.9 9.6-18.3 9.8-9.6 16-13.1c6.4-3.5 13.3-5.6 21-6.4s15.2-.2 22.2 1.7c6.9 1.9 13.1 5.2 18.5 9.4s9.8 9.4 13.3 15.8c3.5 6.2 5.6 13.1 6.6 21 .8 7.7.2 15-1.9 22-2.1 6.7-5.2 12.9-9.6 18.1s-9.8 9.6-16.2 13.1c-6.3 3.6-13.2 5.3-21 6.1zm-.1-3.5c4-.4 7.8-2 10.8-4.6 3.1-2.7 5.6-6.2 7.3-10.8s2.9-10 3.5-16.4.4-13.5-.4-21.2-2.1-14.7-4-20.8c-1.9-6-4.2-11.2-6.9-15.2s-6-7.1-9.4-9.1c-3.5-1.9-7.3-2.7-11.6-2.3-4.2.4-7.7 1.9-10.8 4.6s-5.4 6.4-7.1 10.8c-1.7 4.6-2.9 10-3.5 16.4s-.4 13.3.6 21.2c.8 7.9 2.1 14.8 4 20.8s4 11.2 6.9 15.2c2.7 4 5.8 6.9 9.4 8.9 3.1 2.2 6.9 2.9 11.2 2.5h0zM294.8 43.2v15c4.6-4.8 10.2-8.7 16.4-11.8s13.1-4.4 20.4-4.4c4.6 0 9.1.8 12.9 2.3 3.9 1.5 7.3 3.7 10 6.2 2.9 2.7 5 5.8 6.6 9.6 1.5 3.7 2.3 7.9 2.3 12.3v63.8c0 2.9 1.9 5.5 4.6 6.6l9.3 3.1v1.5h-54V146l8.9-3.1c2.9-1 4.6-3.7 4.6-6.6V74c0-6.2-1.7-11-5-14.7s-8.5-5.4-15-5.4c-4.2 0-8.3.8-12 2.3-3.9 1.5-7.1 3.9-10.2 6.7v73.6c0 2.7 1.7 5 4.2 6l9.3 3.3v1.5h-54V146l9.6-3.3c2.5-.8 4.2-3.3 4.2-6V59.8c0-3.1-2.3-5.8-5.4-6.4l-7.3-1.3v-1.7l38-8.3 1.6 1.1h0zm343.6 0v93.3c0 2.7 1.7 5.2 4.4 6.2l9.4 3.3v1.5h-54.4V146l9.6-3.3c2.7-1 4.4-3.3 4.4-6.2V59.8c0-3.1-2.3-5.8-5.4-6.4l-7.1-1.2v-1.9l38-8.3 1.1 1.2h0zm.9-28.5c0 2.1-.4 4-1.2 5.8-.8 1.7-1.7 3.3-3.3 4.6-1.3 1.3-3.1 2.3-4.8 2.9-1.9.8-3.9 1-6.2 1-2.1 0-4.2-.4-6.2-1-1.9-.8-3.5-1.7-4.8-2.9-1.3-1.3-2.3-2.9-3.1-4.6s-1.2-3.7-1.2-5.8.4-3.9 1.2-5.8c.8-1.7 1.7-3.3 3.1-4.6 1.3-1.3 2.9-2.3 4.8-3.1 2-.8 4.1-1.2 6.2-1.2s4.2.4 6.2 1.2c1.9.8 3.5 1.7 4.8 3.1s2.5 2.7 3.3 4.6c.8 1.7 1.2 3.6 1.2 5.8zm61.1 28.5v17.7c1.5-2.7 3.7-5.2 6.4-7.5s5.4-4.4 8.5-6.2c3.1-1.7 6.3-3.1 9.6-4 3.3-1 6.7-1.5 10-1.5 1.5 0 3.1.2 4.6.4s2.9.6 4.4 1.2l-5 30.5h-1.5l-4-5.6c-1.3-1.9-2.9-3.5-4.6-5s-3.7-2.7-5.8-3.7-4.4-1.3-7.3-1.3c-3.1 0-6 .8-8.5 2.3-2.7 1.5-4.8 3.3-6.4 5.2v71.1c0 2.7 1.7 5.2 4.4 6l10.2 3.3v1.5h-55.1V146l9.6-3.3c2.5-.8 4.2-3.3 4.2-6V59.8c0-3.1-2.1-5.6-5.2-6.2l-7.3-1.3v-1.7l37.6-8.5 1.2 1.1zM865.3 150c-2.3 0-4.4-.4-6.4-1.2-1.9-.8-3.7-1.7-5-3.1-1.3-1.3-2.5-2.9-3.3-4.8s-1.2-4-1.2-6.2c0-2.1.4-4.2 1.2-6.2.8-1.9 1.9-3.5 3.3-4.8 1.3-1.3 3.1-2.5 5-3.1 1.9-.8 4-1.2 6.4-1.2 2.3 0 4.4.4 6.4 1.2 1.9.8 3.7 1.7 5 3.1 1.3 1.3 2.5 2.9 3.3 4.8.8 2 1.2 4.1 1.2 6.2s-.4 4.2-1.2 6.2c-.8 1.9-1.9 3.5-3.3 4.8-1.3 1.3-3.1 2.3-5 3.1-2 .8-4.1 1.2-6.4 1.2zm-430-104.1c-.1 0-.1 0 0 0-.1 0 0 0 0 0zm-38.1 69.8h-1.9l-6.4 26.4c1.9 1 4.2 1.9 7.1 2.9s6 1.7 9.3 2.5 6.7 1.3 10.4 1.7l10.4.6c6.2 0 12-.6 17.4-1.9s9.8-3.3 13.9-5.8c3.9-2.5 6.9-5.8 9.1-9.6 2.1-3.9 3.3-8.3 3.3-13.3 0-4.4-1-8.5-2.9-11.8a35.68 35.68 0 0 0-7.5-9.1c-3.1-2.7-6.7-5-10.6-7.1L436.9 85l-9.6-4.8c-3.1-1.5-5.6-3.3-7.9-5s-4-3.9-5.4-5.8c-1.3-2.1-1.9-4.4-1.9-7.1 0-2.2.4-4.3 1.2-6.4.8-1.9 1.9-3.9 3.5-5.4 1.5-1.5 3.5-2.9 6-3.7 2.3-1 5.2-1.3 8.5-1.3h1.5c.8 0 1.7 0 2.5.2h.2.2c.4 0 .8 0 1 .2h.2c5.8 1 10.6 5 12.9 10.2l7.5 16.4h1.5l4.4-24.9-7.1-2.3c-2.5-.8-5.2-1.3-8.1-1.9l-8.3-1.3c-2.9-.4-5.6-.4-8.1-.4-6 0-11.6.6-16.8 1.7-5.2 1.2-9.6 3.1-13.3 5.4-3.7 2.5-6.6 5.6-8.7 9.3s-3.1 8.1-3.1 13.3c0 4.6 1 8.7 2.9 12.1 1.9 3.5 4.4 6.6 7.5 9.1 3.1 2.7 6.6 5 10.4 6.9l11.2 5.6 10 5a53.58 53.58 0 0 1 8.3 5c2.3 1.7 4.2 3.7 5.6 6 1.3 2.1 2.1 4.8 2.1 7.7 0 2.1-.4 4.2-1 6.4s-1.7 3.9-3.3 5.4c-1.5 1.5-3.7 2.9-6.4 3.9s-6 1.3-9.8 1.3c-1.7 0-3.7-.2-5.6-.4s-3.7-.4-5-.8h-.2c-6-1.5-10.8-6.2-12.9-12l-6.3-16.9h0zm365.3 0h-1.9l-6.4 26.4c1.9 1 4.2 1.9 7.1 2.9s6 1.7 9.3 2.5 6.7 1.3 10.4 1.7l10.4.6c6.2 0 12-.6 17.4-1.9s9.8-3.3 13.9-5.8c3.9-2.5 6.9-5.8 9.1-9.6 2.1-3.9 3.3-8.3 3.3-13.3 0-4.4-1-8.5-2.9-11.8a35.68 35.68 0 0 0-7.5-9.1c-3.1-2.7-6.7-5-10.6-7.1L802.2 85l-9.6-4.8c-3.1-1.5-5.6-3.3-7.9-5s-4-3.9-5.4-5.8c-1.3-2.1-1.9-4.4-1.9-7.1 0-2.2.4-4.3 1.2-6.4.8-1.9 1.9-3.9 3.5-5.4 1.5-1.5 3.5-2.9 6-3.7 2.3-1 5.2-1.3 8.5-1.3h1.5c.8 0 1.7 0 2.5.2h.2.2c.4 0 .8 0 1 .2h.2c5.8 1 10.6 5 12.9 10.2l7.5 16.4h1.5l4.4-24.7-7.1-2.3c-2.5-.8-5.2-1.3-8.1-1.9l-8.3-1.3c-2.9-.4-5.6-.4-8.1-.4-6 0-11.6.6-16.8 1.7s-9.6 3.1-13.3 5.4c-3.7 2.5-6.6 5.6-8.7 9.3s-3.1 8.1-3.1 13.3c0 4.6 1 8.7 2.9 12.1 1.9 3.5 4.4 6.6 7.5 9.1 3.1 2.7 6.6 5 10.4 6.9l11.2 5.6 10 5a53.58 53.58 0 0 1 8.3 5c2.3 1.7 4.2 3.7 5.6 6 1.3 2.1 2.1 4.8 2.1 7.7 0 2.1-.4 4.2-1 6.4s-1.7 3.9-3.3 5.4c-1.5 1.5-3.7 2.9-6.4 3.9s-6 1.3-9.8 1.3c-1.7 0-3.7-.2-5.6-.4s-3.7-.4-5-.8h-.2c-6-1.5-10.8-6.2-12.9-12l-6.3-17.1h0z" fill="#fff"/></svg>