<svg xmlns="http://www.w3.org/2000/svg" width="512" height="512" xmlns:v="https://vecta.io/nano"><linearGradient id="A" x1="0" x2="512" y1="256" y2="256" gradientUnits="userSpaceOnUse"><stop offset=".746" stop-color="#d71f29"/></linearGradient><path fill="url(#A)" d="M512 472c0 22.1-17.9 40-40 40H40c-22.1 0-40-17.9-40-40V40C0 17.9 17.9 0 40 0h432c22.1 0 40 17.9 40 40v432z"/><path d="M358 148.3c-34.4 75.1-114.7 152-179.4 171.5-64.8 19.6-89.2-25.6-54.4-100.9l-34.3 10.4c-53.1 115-16 184.1 83 154.1 98.7-30 221.3-147.3 273.6-261.8h0L358 148.3zm-218.4 65.9c-17.7 38.4-5.3 61.4 27.7 51.5 33-10 74-49.2 91.6-87.5l-119.3 36z" fill="#fff"/></svg>