<svg xmlns="http://www.w3.org/2000/svg" fill="#b6cce1" viewBox="0 0 374.4 150" xmlns:v="https://vecta.io/nano"><path d="M48.4 32.7C22 32.7 0 43.9 0 77.7c0 26.8 14.8 43.6 49.1 43.6 40.4 0 43-26.6 43-26.6H72.5S68.3 109 47.9 109c-16.6 0-28.6-11.2-28.6-26.9H94v-9.9c.1-15.5-9.8-39.5-45.6-39.5h0zm-.7 12.6c15.8 0 26.6 9.7 26.6 24.2H19.8c0-15.4 14-24.2 27.9-24.2zM94.1 0v104.4c0 5.9-.4 14.2-.4 14.2h18.7s.7-6 .7-11.4c0 0 9.2 14.4 34.3 14.4 26.4 0 44.3-18.3 44.3-44.6 0-24.4-16.5-44.1-44.3-44.1-26 0-34.1 14.1-34.1 14.1V0H94.1zm48.4 45.9c17.9 0 29.3 13.3 29.3 31.2 0 19.1-13.2 31.7-29.2 31.7-19.1 0-29.4-14.9-29.4-31.5 0-15.5 9.2-31.4 29.3-31.4h0z"/><path d="M237.9 32.7c-39.7 0-42.3 21.7-42.3 25.2h19.8s1-12.7 21.1-12.7c13.1 0 23.2 6 23.2 17.5v4.1h-23.2c-30.8 0-47 9-47 27.3 0 18 15 27.8 35.3 27.8 27.7 0 36.6-15.3 36.6-15.3a166.52 166.52 0 0 0 .5 12.1h17.6s-.7-7.4-.7-12.2V65.3c0-26.9-21.7-32.6-40.9-32.6zm21.9 46.4v5.5c0 7.1-4.4 24.8-30.2 24.8-14.2 0-20.2-7.1-20.2-15.3-.1-14.9 20.3-15 50.4-15h0z"/><path d="M268.2 36.1h22.2l31.9 64 31.8-64h20.2l-58 113.9h-21.1l16.7-31.7-43.7-82.2h0z"/></svg>