<svg xmlns="http://www.w3.org/2000/svg" viewBox="0 0 424 100" fill="#fff" xmlns:v="https://vecta.io/nano"><path d="M91 87.8c5.9-.6 12-.8 17.8.2 0 3.5-.6 7.1-1.9 10.4-.7 2.1-3.4 1.7-4.7.6-4.2-3.3-7.7-7.3-11.2-11.2M72.6 70.4c13.5-1.2 27.2-.3 40.8-.5-.3 4.2-1.1 8.4-3 12.2-7.9.5-15.9.3-23.8.3-3.1.2-4.9-2.5-6.7-4.5-2.2-2.7-5.3-4.5-7.3-7.5m-18-17.6c21-.9 42.1-.3 63.1-.3-.7 4.1-.6 8.9-3.3 12.3-14.3.4-28.7-.2-43 .2-7.8 1-12-7.3-16.8-12.2M348 47.5c-.1-4.4-.8-12.7 5.4-12.5h62.4c-.7 4.2-1.8 8.3-2.8 12.5h-65M36.1 35.2c21.9-.6 43.8-.1 65.7-.3 6.8.2 13.7-.5 20.6.4-1 3.9-1.5 7.9-3.2 11.5-2.4 1-5 .2-7.5.3-21.2 0-42.3-.2-63.5.2a98.78 98.78 0 0 1-12.1-12.1M354 17.9c22-.7 44.1-.1 66.2-.3l-3 12.6c-21.8-.2-43.5.1-65.2-.2.2-4.1.1-8.4 2-12.1m-336.2-.3l108.1.1c-.8 4.2.3 12.6-5.9 12.2H35.2c-2.4 0-5.5.7-7.3-1.5-3.2-3.7-6.9-7-10.1-10.8M358.4.4l65.7-.1c-.7 4.2-1.7 8.3-2.7 12.4-22.1-.3-44.3.7-66.3-.5 1-3.9.7-8.8 3.3-11.8M0 .7C4.8-.2 9.8.2 14.6.3H120c3.4.1 6.9-.7 10.1.5.2 4-.7 8.3-2.8 11.7l-110.4.3c-2.3-.1-4.9.2-6.6-1.5C6.7 7.9 2.8 4.7 0 .7M300.7.2c9.8-.1 19.6-.3 29.4.1 2.6 5.8 7.1 10.6 9.6 16.5-.3 4.6-2.4 8.9-3.2 13.4h-25.4l.6-3.8c-1.7 0-3.4.1-5.1.2l-2.3 9.3c5.3.8 13.1-2.7 16 3.5 2.9 5.3 7.2 9.8 9.5 15.4-1 8.7-4.2 17.2-5.7 25.9-.6 2.6-1.2 5.5-3.5 7.1-5 3.7-8.8 8.9-14.3 12.1-10.4.3-20.8.2-31.2.1-2.6-4.3-6.2-7.9-8.2-12.5l38.9-.1c3.3.2 5.4-2.8 7.9-4.5-15.7-.6-31.5.1-47.2-.3 1-4.2 1.9-8.3 3.1-12.4 8.7-.2 17.4 0 26-.2-.3 1.8-.6 3.6-.8 5.4h4.7l1.2-5.2c5.7-.2 11.5 0 17.2 0 .3-1.6.7-3.1 1-4.7-10.9-.3-21.9.3-32.8-.2-4.6-3.3-7.8-8.3-11.5-12.5l45.7-.1c-1.3-1.8-1.9-5.1-4.7-4.7-13.6-.1-27.2 0-40.9 0 1-4.2 2.3-8.4 3.2-12.6 5.9 0 11.7.1 17.6-.3.3-1.5.6-3.1 1-4.6-5.7 0-11.5-.1-17.2 0l3.2-12.6 47.7-.1c-1.3-1.8-1.9-5.2-4.8-4.7-13.3 0-26.6.2-40-.1 4.9-4.9 9.8-9.3 15.3-12.8m-90.3 53.2c-1.7 2.6 2.9.6 0 0m34.3-5.6c-.4 1.5-.9 3-1.3 4.5h14.8c.3-1.6.6-3.1.8-4.7-4.8 0-9.6-.3-14.3.2m-33-.2c-.3 1.6-.5 3.1-.8 4.7l23.7.2c.8-1.6 1.6-3.2 2.3-4.9h-25.2M199 .1l28.5-.1c1.7 11.5 1.2 23.3 2.5 34.8l32.4-.1c.3-1.6.7-3.1 1.1-4.7h-31.3a142.74 142.74 0 0 0 5.7-12.6c9.7-.3 19.4.2 29.1-.3.3-1.5.5-3.1.8-4.6-9.1.1-18.2.2-27.3-.1 1.3-4.3 3.5-8.2 5-12.4h33.9c-4.3 20-9.9 39.8-14.6 59.7-3.7 13.2-6.2 26.8-10 40-8.6.2-17.1.1-25.7 0 1.3-4.1 2.4-8.3 3.4-12.5 5.6-.3 11.3.4 16.9-.4.6-1.4.9-2.8 1.3-4.2-5.6-.3-11.2-.1-16.8-.2 1.2-4.2 2.1-8.4 3.2-12.6h16.3a82.26 82.26 0 0 1 1.3-4.7c-5.4 0-10.8-.1-16.2 0 .2-1 .3-2.1.4-3.1-6.2 12.3-10.8 25.3-17.2 37.4-4.2 1.4-9.2.3-13.7.5.9-4.1 1-8.3 1-12.5l10.2-.3 1.2-4.5-10.7-.2c-.2-4.2-.1-8.3 0-12.5 5.7-.2 11.4 0 17.1-.1l1.8-4.7c-6-.1-12.1.1-18.1-.2 0-2.8-.1-5.6-.3-8.4-4.1 14.3-7 28.9-10.7 43.3l-24.9.1c.6-4.3 1.9-8.4 2.7-12.6 5.5-.2 11-.1 16.5 0 .3-1.5.6-3.1.8-4.6-5.3-.2-10.7-.1-16-.3l3.3-12.5h16.4c.3-1.5.7-3.1 1-4.6-5.4-.1-10.8 0-16.3-.2.9-4.1 1.6-8.2 3.1-12.1 5.4-1.3 11.1.1 16.5-.7.3-1.5.5-3 .8-4.5-5.3-.1-10.6 0-15.9-.1.6-4.3 1.9-8.4 2.7-12.6h31.6v-4.8c-10.1-.1-20.3.2-30.4-.1 1-4.1 2-8.3 3.2-12.4 8.9-.2 17.7-.1 26.6-.1 0-1.6 0-3.2-.1-4.8-8.4 0-16.9.1-25.3-.1.7-4.4 1.8-8.6 3.2-12.7m-56.4.2C158.8-.1 175 0 191.3.2c-2.5 9.4-4.4 19-7 28.4h-21.7c-.4 2.1-.9 4.2-1.3 6.3 6.5.1 12.9-.1 19.4 0-1.9 10.1-4.6 20.1-7.1 30.1l-20.1.1c-.5 2.6-1.1 5.1-1.6 7.7 7.1.2 14.1-.2 21.2.1-1.8 8.9-3.5 17.8-6 26.5-16.1 1-32.5.2-48.7.4.9-4.2 2-8.3 2.8-12.6h40.5c.4-1.6.7-3.2 1.1-4.8h-40.3c.9-4.3 2.1-8.4 3.2-12.6l18.5-.1c.3-1.6.7-3.2 1.1-4.8a279.15 279.15 0 0 1-18.3 0l3.2-12.6c12.8-.3 25.5.2 38.3-.2.3-1.5.5-3 .8-4.5-12.6-.3-25.2.1-37.8-.2.5-4.2 1.8-8.3 2.7-12.5l18.9-.1c.2-1.6.3-3.1.5-4.6-6-.2-12.1-.1-18.1-.2 1.1-4.2 2.1-8.4 3.1-12.6l40.5-.1.9-4.7c-13.4 0-26.8.2-40.2-.2.6-4 1.8-8 2.8-12.1"/></svg>