<svg xmlns="http://www.w3.org/2000/svg" fill="#b6cce1" viewBox="0 0 316.3 150" xmlns:v="https://vecta.io/nano"><path d="M33.9 54.2V11.8c0-1.6.2-2.5 2.8-2.5h36c6.3 0 9.7 5.3 12.2 15.4l2 8H93L95 0S79.6 1.7 70.5 1.7h-46L0 .9v6.6l8.3 1.6c5.8 1.1 7.2 2.4 7.7 7.7 0 0 .5 15.7.5 41.6L16 99.9c0 4.7-1.9 6.4-7.7 7.5L0 109v6.6l24.7-.8h41.1c9.3 0 30.8.8 30.8.8.5-5.7 3.6-31.2 4.1-34.1h-5.8l-6.1 14c-4.9 11-11.9 11.8-19.8 11.8H45.5c-7.9 0-11.6-3.1-11.6-9.9V61.6s17.1 0 23.1.5c4.4.3 7.1 1.6 8.5 7.7l1.9 8.2h6.7l-.5-20.6.9-20.7h-6.8l-2.2 9.1c-1.4 6-2.4 7.1-8.5 7.7-6.7.7-23.1.5-23.1.5v.2h0 0 0zm93.1-38c-2.2 9.7-4.4 17.3-12.1 22.3-4.7 3.1-9.4 4.2-11.3 4.4v6h14V97c0 13.5 9 20.1 20.9 20.1 9.3 0 18.8-3.9 22.1-12.1l-3.3-4.2c-1.6 2.7-6.6 6.6-12.9 6.6-6.9 0-10.7-4.7-10.7-16.6V48.2l23.2 1.7 1.3-10.7-24.5.9V16.3l-6.7-.1h0zm49.7 74.1l-6 .2a147.36 147.36 0 0 1 .5 11.9c0 4.2-.2 8.2-.5 10 0 0 11.9 4.4 24 4.4 16.3 0 29.4-7.9 29.4-23.2 0-26.4-39.6-22.5-39.6-40.2 0-7.4 6.6-10.2 13.8-10.2 5.7 0 10.4 2 11.3 5l3.9 11.8 5.8-.3c.5-6.3.8-13.5 1.7-19.3-5-2.2-15.5-3.5-22.1-3.5-15.4 0-27.8 6.8-27.8 21.8 0 26.2 38.6 20.9 38.6 40.2 0 6.9-4.2 11.8-13.8 11.8-8.8 0-13.2-4.6-14.9-9.1l-4.3-11.3h0zm94.6 18.2c-9.1 25.4-20.2 32-30.2 32-4.2 0-6.3-1.9-6.9-4.9l-2.4-12.2-6.6.3c-1.3 7.2-2.5 15.2-4.2 21.8 3.9 3 10.5 4.5 15.7 4.5 10.8 0 27.3-1.4 42.3-37.1l25.2-59.6c2-4.9 2.8-5.3 8.8-7.7l3.3-1.3v-5.5l-14.9.8-16-.8v5.5l4.1 1.3c4.1 1.3 6 2.8 6 5.6 0 1.4-.5 2.8-1.3 5-2.4 6-16.9 41.4-20.8 48.9l3.9-1.4c-6.9-17.1-17.4-45.6-19-50.5-.3-.9-.5-1.7-.5-2.5 0-2.5 1.7-4.5 5.5-5.3l5.2-1.1v-5.5l-21.5.9-17.1-.8v5.5l2.8.9c3.9 1.3 4.9 2.4 7.2 7.8 13 29.8 19.1 46.1 27.4 67.4l4-12h0z"/></svg>