<svg xmlns="http://www.w3.org/2000/svg" viewBox="0 0 335.1 100" xmlns:v="https://vecta.io/nano"><path d="M306.8 64.9l27.9-31.3H302l-11.4 13-11.8-13h-62.2v-8.3H246V0h-79.1v39.5h-.3c-5.1-5.7-11.2-7.7-18.5-7.7-14.9 0-26.1 10.1-30 23.5-9.5-31.1-51-30.2-63.8-7.3V35.4H25.7V21.7h31.4V.1H0v96.6h25.7V55.9h25.6c-.8 3-1.2 6.2-1.2 9.5 0 38.3 53.7 47.9 68.1 12.4h-22c-7.7 10.9-24 4.7-24-7.7H117c1.9 15.9 14.4 29.8 31.5 29.8 7.4 0 14.1-3.6 18.2-9.8h.3v6.3h111.1l11.5-13.1 11.7 13.1H335l-28.2-31.5zM72.9 56.1c3.2-13.8 21.8-13.4 24.3 0H72.9zm80.3 25.7c-18.1 0-17.8-32.9 0-32.9 17.1-.1 18.1 32.9 0 32.9zm87.9 9.9h-49.4V4.5h49.7v15.8h-29.3V38h29v14.7h-29.3v23.4h29.3v15.6h0zm-24-20.8V58.2h29.4V35.1L273 64.9l-26.5 29.9V70.9h-29.4zm72.5 5.4l-13.7 15.4h-20l23.9-26.8L256 38.1h20.8l13.9 15.3 13.4-15.3h20.2l-23.8 26.7 24.1 26.9h-21.2l-13.8-15.4h0z" fill="#fff"/></svg>