<svg xmlns="http://www.w3.org/2000/svg" width="125" height="35" xmlns:v="https://vecta.io/nano"><path fill="#ead5a1" d="M9.355 4.329l8.834 2.228s2.842.568 5.249 3.456c1.73 2.077 5.838 6.55 8.006 8.901.873.945 1.216 2.265.912 3.515l-.923 3.8c-.102.413-.443.724-.864.788s-.839-.132-1.059-.496l-8.213-13.795s-1.659-3.498-6.252-3.807a276.74 276.74 0 0 0-9.273-.435l3.586-4.154h-.004zm97.456 2.228s-2.842.568-5.249 3.456c-1.73 2.077-5.838 6.55-8.006 8.901-.873.945-1.216 2.265-.912 3.515l.923 3.8c.102.413.443.724.864.788s.839-.132 1.059-.496l8.217-13.795s1.663-3.498 6.252-3.807a276.74 276.74 0 0 1 9.273-.435l-3.586-4.154-8.834 2.228z"/><path fill="#ffc025" d="M116.168 15.391c-.305 5.684-1.88 9.536-3.322 11.939-2.842 4.463-15.83 4.985-18.98 4.985s-13.82.702-17.535-4.635c-4.463-6.561-4.985-13.995-5.031-17.363s1.053-4.547 4.638-6.077c5.813-2.361 18.454-2.537 18.454-2.537 13.381 0 17.317 1.224 19.724 2.712s2.361 5.291 2.052 10.974M48.67 27.681c-3.719 5.333-14.384 4.635-17.535 4.635s-16.139-.526-18.98-4.982c-1.442-2.407-3.017-6.255-3.322-11.943s-.351-9.49 2.052-10.974 6.343-2.712 19.724-2.712c0 0 12.641.175 18.454 2.537 3.589 1.53 4.68 2.712 4.638 6.077s-.568 10.806-5.031 17.363m76.185-23.45a1.74 1.74 0 0 0-1.41-1.523C107.11-.376 96.363-.249 85.95.319 75.281.902 71.022 4.284 70.268 4.81c-.761.526-2.452 1.049-3.617.642s-4.15-.351-4.15-.351-2.982-.06-4.15.351-2.856-.119-3.614-.642S49.719.902 39.054.319C28.637-.249 17.891-.376 1.556 2.708.802 2.85.23 3.468.146 4.231A28.31 28.31 0 0 0 .009 7.81a1.4 1.4 0 0 0 .835 1.245c1.221.54 3.466 1.649 4.094 2.694.877 1.456 1.053 3.438 1.403 5.48s2.035 10.03 5.477 12.711 8.164 4.14 18.717 4.14 14.521.06 19.479-4.842c2.912-2.796 4.842-9.153 5.771-12.771s2.691-7.112 6.715-7.112 5.782 3.498 6.715 7.115 2.856 9.971 5.775 12.771c4.954 4.898 8.918 4.842 19.472 4.842s15.279-1.46 18.721-4.143 5.129-10.673 5.48-12.711.526-4.024 1.4-5.48c.628-1.049 2.877-2.154 4.094-2.694.498-.221.824-.705.835-1.245.035-1.53-.049-2.744-.137-3.579"/></svg>