<svg xmlns="http://www.w3.org/2000/svg" viewBox="0 0 294.2 100" xmlns:v="https://vecta.io/nano"><path d="M294.1 83.6v-1h.1c0 .3 0 .7-.1 1h0z" fill="#fddb3f"/><path d="M294.2 82.6c-.1 0-.1 0 0 0-.1-.2-.1-.5-.1-.7h.1v.7z" fill="#fdeb94"/><path d="M294.1 83.6c.1.2.1.4.1.6-.2-.2-.1-.4-.1-.6z" fill="#fee679"/><path d="M60.9.1c5 .2 9.8.9 14.7 1.8 2.6.5 5.2 1.1 7.8 1.9.4.1.8.3 1.2.4.3.2.4.4.4.8v23.8 1.4c-1.5-.4-2.9-.8-4.4-1.3-4.6-1.3-9.4-2.4-14.2-3-4.4-.6-8.8-.8-13.2-.2-3.8.5-7.5 1.5-10.8 3.6-4.1 2.6-6.8 6.3-8.4 10.9-1 3-1.5 6.1-1.6 9.2-.1 2.8 0 5.6.4 8.4.5 3.3 1.5 6.4 3.4 9.2 2.5 3.6 6 5.7 10.2 6.7 2.3.5 4.6.8 7 .6 4.4-.4 8.3-2.1 11.2-5.6.1-.1.2-.3.4-.5v-.1c-.1-.1-.3 0-.5 0H47.7c-.4 0-.5-.1-.5-.5V47c0-.4.1-.5.5-.5h47c.4 0 .5.1.5.5v50.8c0 .4-.1.5-.5.5H75.6c-.4 0-.5-.1-.5-.5l.1-13.4c0-.1 0-.3-.1-.5-.1.2-.2.5-.4.7-2 3.7-4.9 6.5-8.3 8.8-4.6 3.1-9.7 5-15.1 5.9-1.6.2-3.2.4-4.8.5-.2.1-.4 0-.5 0h-1.1-.6H43h-.7c-4.3 0-8.5-.7-12.7-1.9-2.3-.7-4.6-1.6-6.8-2.7-3-1.5-5.7-3.4-8.3-5.6-2.7-2.4-5.2-5.2-7.2-8.3-2.1-3.4-3.8-7.2-5-11.3-.7-2.5-1.3-5.1-1.7-7.7-.3-1.9-.6-3.8-.6-5.7v-1.7-.7V53v-1.4-1.2-.7c0-5 .8-9.8 2.2-14.6.8-2.7 1.8-5.3 3.1-7.8a47.87 47.87 0 0 1 6.2-9.2 50 50 0 0 1 9.8-8.6c3.5-2.4 7.3-4.2 11.3-5.7 4.4-1.6 9-2.7 13.7-3.3 2.3-.3 4.7-.5 7-.5h.5.6.8H59c.2.1.5 0 .8 0h.5c.3.1.4.1.6.1zm147.3 99.8l-8-.4c-3.6-.3-7.2-.7-10.8-1.3-3.1-.5-6.2-1.2-9.2-2.1-.4-.1-.5-.2-.5-.6V70.1c0-.5 0-.5.5-.4 4.1 1.3 8.3 2.2 12.5 3 3.2.6 6.5 1.2 9.7 1.6a102.34 102.34 0 0 0 7.8.6c2.3.1 4.7 0 7-.5 1.3-.2 2.6-.6 3.7-1.4 1.6-1 2.2-2.5 1.9-4.2-.1-.8-.6-1.4-1.3-1.8-1.1-.7-2.3-1.1-3.5-1.4L206.4 63c-4.2-.9-8.4-2.1-12.4-4-4.2-2-8-4.7-10.8-8.5-2.3-3.2-3.7-6.7-4.4-10.5-.4-2.1-.5-4.2-.5-6.3 0-5.7 1-11.2 3.8-16.3C185 12 189.3 8 194.7 5.1c4-2.1 8.2-3.4 12.6-4.2 2.5-.5 5.1-.7 7.7-.8.2-.1.4 0 .5 0h.6.7 3.6c.2.1.5 0 .8 0h.6.5c2.3 0 4.5.2 6.8.4 3.9.4 7.8.9 11.7 1.6 2.4.4 4.9.9 7.3 1.5.7.2.7.2.7.9v23.9.1c0 .6-.1.6-.7.5-2.8-.7-5.7-1.3-8.5-1.9-3.2-.6-6.4-1.2-9.7-1.6-2.2-.3-4.5-.5-6.7-.7-1.9-.1-3.9-.1-5.9-.1-2.1.1-4.1.4-5.9 1.4-1.2.6-2.1 1.5-2.4 2.9-.3 1.5.2 2.7 1.6 3.5 1 .6 2 1 3.1 1.3l9.6 2.3c2.9.7 5.9 1.3 8.8 2.3 4.1 1.4 8 3.2 11.5 5.8 3.7 2.9 6.5 6.5 8.1 10.9 1 2.6 1.5 5.3 1.8 8.1.2 2.1.2 4.2.1 6.4-.4 5.7-2.1 11-5.5 15.6-2.1 2.8-4.6 5.2-7.4 7.2-3.9 2.7-8.3 4.5-12.9 5.7-2.6.7-5.3 1.1-7.9 1.4a50.68 50.68 0 0 1-5.5.3h-.7-1.5-1-1.9c-.5.1-.8.2-1.1.1zm86-15.4c-.2.6-.2 1.2-.3 1.8-.6 3.1-2 5.8-4.2 8.1-2.6 2.8-5.8 4.5-9.6 5-5.2.7-9.8-.8-13.7-4.4-2.6-2.5-4.2-5.6-4.8-9.1-.8-5 .5-9.6 3.8-13.4 2.5-3 5.8-4.9 9.7-5.5 6.3-1 11.6 1 15.7 5.9 2.1 2.6 3.3 5.6 3.5 8.9.1.2 0 .5 0 .8v1 .6c-.1.1-.1.2-.1.3zM105.1 50V2.2c0-.4.1-.5.5-.5h30c.4 0 .5.1.5.5v70.4c0 .6 0 .6.6.6h32.8c.4 0 .5.1.5.5v24.2c0 .4-.1.5-.5.5h-63.7c-.5 0-.5-.1-.5-.6l-.2-47.8z" fill="#fff"/></svg>