<svg xmlns="http://www.w3.org/2000/svg" viewBox="0 0 477.3 150" fill="#fff" xmlns:v="https://vecta.io/nano"><path d="M73.3 95.1h30c-4 16.2-17.6 24.3-33.5 24.3-24.2 0-33.8-22.1-30.3-43.9C42.7 54.9 58 32.9 81 31.5c1.9-.1 3.7-.1 5.6 0 5.6.6 10.9 2.7 15.5 5.9 4.5 3.2 8.3 7.3 11 12.1l33.4-13.2C137.9 12.1 117.9 0 89.9 0 44.4 0 8.4 29.9 1.1 75.5c-7 44.1 19.1 74 63.6 74 23.6 0 45.8-8.4 62.7-27.5 15.4-17.5 19.6-34.9 23.3-55.5h-73l-4.4 28.6zm158.5 4.1c-.8 6-3.9 11.6-8.5 15.5s-10.7 6-16.8 5.9c-13.9 0-20.5-9.3-18.5-21.4.9-6 3.9-11.6 8.6-15.5 4.7-4 10.6-6.1 16.8-6 13.8-.1 20.3 9.8 18.4 21.5zm-13.8-51c-30.9 0-60.9 18.4-66.1 50.9s19.1 50.7 49.9 50.7 60.9-18.4 66.1-50.7C273 66.8 249 48.2 218 48.2zm137 51c-.8 6-3.9 11.6-8.5 15.5-4.7 3.9-10.7 6-16.8 5.9-13.9 0-20.5-9.3-18.5-21.4.9-6 3.9-11.6 8.6-15.5 4.7-4 10.6-6.1 16.8-6 13.8-.1 20.3 9.8 18.4 21.5zm-4.9-51c-11.8 0-23.2 4.4-31.8 12.4l9.4-58.9h-34.1l-23.2 145h34.1l1.7-10.6h.4c4.7 9.5 15.6 13.9 26.9 13.9 28.7 0 52.3-23.4 56.7-50.9 4.5-27.5-11.5-50.9-40.1-50.9zm41.4 101.5h34.1l15.3-95.4h-34.1l-15.3 95.4zm40.3-140c-5.3.2-10.4 2.2-14.5 5.6-4 3.5-6.8 8.2-7.7 13.4-.5 2.3-.4 4.7.2 7s1.7 4.4 3.2 6.3c1.5 1.8 3.5 3.3 5.6 4.3 2.2 1 4.5 1.5 6.9 1.4a23.69 23.69 0 0 0 14.4-5.6c4-3.4 6.8-8.2 7.7-13.3.5-2.3.4-4.7-.2-7s-1.7-4.4-3.2-6.3c-1.5-1.8-3.5-3.3-5.6-4.3s-4.4-1.5-6.8-1.5zM460.9 112c-5.3.2-10.4 2.2-14.5 5.6-4 3.5-6.8 8.2-7.7 13.4-.5 2.3-.4 4.7.2 7.1.6 2.3 1.7 4.5 3.3 6.3 1.5 1.8 3.5 3.3 5.7 4.2 2.2 1 4.6 1.4 7 1.4a23.69 23.69 0 0 0 14.4-5.6c4-3.4 6.7-8.2 7.7-13.3.5-2.3.4-4.7-.2-7.1-.6-2.3-1.7-4.5-3.3-6.3-1.5-1.8-3.5-3.3-5.7-4.3-2.1-1-4.5-1.5-6.9-1.4z"/></svg>