<svg xmlns="http://www.w3.org/2000/svg" viewBox="0 0 397.8 150" fill="#fff" xmlns:v="https://vecta.io/nano"><path d="M181.9 29.5c-.1-2.6 2-4.8 4.7-4.9h.6c2.8-.3 5.3 1.8 5.6 4.6v.3 1.6c-.1 2.8-2.6 5-5.4 4.9h-.3c-2.6.3-5-1.6-5.2-4.3v-.6-1.6zm.8 23.9c0-2.5 1.9-4.6 4.4-4.9 2.6-.1 4.8 1.9 4.9 4.5v.3V108c.2 2.5-1.8 4.7-4.3 4.8h-.2c-2.6.1-4.8-1.9-4.9-4.5v-.3-54.6zm27.9 52.1a4.94 4.94 0 0 1-1.6-3.2c.2-2.2 1.9-3.9 4-4 .9.1 1.7.4 2.4.8 5.7 4.3 12.7 6.7 19.8 6.9 7.7 0 12.9-4 12.9-10.1v-.4c0-6.5-7.3-8.9-15.8-10.9-9.7-2.8-20.6-6.1-20.6-17.8v-.4c0-10.9 8.9-17.8 21.4-17.8 6.9.2 13.7 2 19.8 5.3a4.59 4.59 0 0 1 2.4 4c0 2.2-1.8 4-4 4-.7-.1-1.4-.2-2-.4-4.8-3.1-10.4-4.8-16.2-4.9-7.3 0-12.1 4-12.1 8.9v.4c0 6.1 7.7 8.1 16.2 10.9 9.7 2.8 20.2 6.9 20.2 17.8v.4c0 11.7-9.7 18.6-22.2 18.6a46.53 46.53 0 0 1-24.6-8.1zm63.5-78c0-2.5 1.9-4.6 4.4-4.9 2.6-.1 4.8 1.9 4.9 4.5v.3 57.4l34-34.4c1.2-1.2 2-2 3.6-2 2.2 0 4.1 1.8 4.1 4v.4c.1 1.4-.5 2.8-1.6 3.6l-20.6 20.2 22.2 28.3c.7.9 1.2 2.1 1.2 3.2 0 2.4-2 4.4-4.4 4.4-1.6-.1-3-.8-4-2L296.1 83 283 96.2v12.1c.2 2.5-1.8 4.7-4.3 4.8h-.2c-2.6.1-4.8-1.9-4.9-4.5v-.3-80.8h.5zm69.1 25.9c0-2.5 1.9-4.6 4.4-4.9 2.6-.1 4.8 1.9 4.9 4.5v.3 6.9c4.2-7.8 12.6-12.5 21.4-12.1 15 0 23.9 10.1 23.9 25.1V108c.2 2.5-1.8 4.7-4.3 4.8h-.2c-2.6.1-4.8-1.9-4.9-4.5v-.3-32.4c0-11.7-6.5-19-17.4-19-10.2-.1-18.5 8-18.7 18.1 0 .6 0 1.1.1 1.7v31.9c.2 2.5-1.8 4.7-4.3 4.8h-.2c-2.6.1-4.8-1.9-4.9-4.5v-.3-54.9zM8.1 97.4c-4.5 0-8.1-3.6-8.1-8.1s3.6-8.1 8.1-8.1 8.1 3.6 8.1 8.1-3.6 8.1-8.1 8.1zm109.1-28.3c-4.5 0-8.1-3.6-8.1-8.1s3.6-8.1 8.1-8.1 8.1 3.6 8.1 8.1-3.6 8.1-8.1 8.1zM58.6 14.6c-17.9 0-32.3 14.5-32.3 32.4 0 6.5 2 12.8 5.6 18.1l17 24.3 12.5 17.8a5.52 5.52 0 0 0 4.9 2.4c1.2.1 2.4-.3 3.2-1.2 2.5-1.9 3.1-5.5 1.2-8.1l-29.5-42c-3.1-4.5-4.3-10-3.2-15.4A19.2 19.2 0 0 1 46.5 30c9.2-6.3 21.8-4.2 28.3 4.9l29.5 42c14.8 20.8 9.8 49.7-11 64.5-.1.1-.2.1-.3.2-7.7 5.6-17.1 8.6-26.7 8.5-15.3.1-29.6-7.3-38.4-19.8l-12.5-17.8c-2.2-3.3-1.5-7.7 1.6-10.1 3.3-2.2 7.7-1.5 10.1 1.6l12.5 17.8a32.02 32.02 0 0 0 26.3 13.7c6.6.1 13.2-1.9 18.6-5.7 14.5-10 18.1-29.9 8.1-44.4l-17-24.3-12.5-17.8a5.52 5.52 0 0 0-4.9-2.4c-1.2-.2-2.4.3-3.2 1.1-1.3.8-2.1 2.1-2.4 3.6 0 1.6.4 3.1 1.2 4.4l29.5 42c3 4.3 4.2 9.7 3.2 15a19.2 19.2 0 0 1-8.5 12.9c-9.2 6.3-21.8 4.2-28.3-4.9L20.2 73c-14.8-20.8-9.8-49.7 11-64.5.1-.1.2-.1.3-.2C39.3 2.9 48.6-.1 58.2 0c15.3-.1 29.6 7.3 38.4 19.8l12.5 17.8c2.3 3.2 1.6 7.8-1.6 10.1s-7.8 1.6-10.1-1.6L84.9 28.3c-6-8.6-15.8-13.8-26.3-13.7z"/></svg>