<svg xmlns="http://www.w3.org/2000/svg" width="512" height="512" xmlns:v="https://vecta.io/nano"><path fill="#ffea31" d="M512 472c0 22.1-17.9 40-40 40H40c-22.1 0-40-17.9-40-40V40C0 17.9 17.9 0 40 0h432c22.1 0 40 17.9 40 40v432z"/><path d="M355.4 220.9c-31.8 2.3-73.4-.6-113.4.9-9.2.3-24.4 3.5-35.3.9-5.8-1.4-12.3-8.8-19.5-13-20.5-12.2-44.9-21.8-67.8-29.8 6.9-1.8 28.5-.8 37.2-.9 28-.7 106.1-.9 164.5-.9 17.5 0 48.6-3.1 52 8.4 4.8 16.2-13.2 24.4-17.7 34.4zm119.9 7.4c-151.5 31.8-291.3 67.9-438.6 106 13.3-7.9 29.4-13.4 45.6-19.5 29.8-11.2 61.2-22.6 89.2-39 17.2-10.1 34.2-21.9 38.1-43.7l265.7-3.8zm-396.7 106c76.5-21.9 156.9-40.1 235.1-60.4-5.4 10.3-13.8 18.1-21.4 27.9-6.8 8.6-13.8 22.8-26 26-12 3.1-30.5 1.4-46.5 1.9l-141.2 4.6z" fill="#003d8f" fill-rule="evenodd"/></svg>