<svg xmlns="http://www.w3.org/2000/svg" viewBox="0 0 756.2 146.6" xmlns:v="https://vecta.io/nano"><path d="M190.2 2.3c7.4 0 13.2 7.4 16.3 20.8l-.5.6-3.2 4.6c-.2-4.3-1.2-10.2-3.5-14.5S194 7 190.7 7c-6.4 0-11.5 10.2-11 23.9.5 11.1 5.3 19.4 10.4 27.9l.8 1.1c.9 1.7 2 3.4 2.9 4.8 6.2 11.7 16.3 28.8 14.7 50.7-1.5 17.4-9.5 31-18.9 31-8.8 0-14.5-6-18.5-19.9l.6-1.1 3-5.4c.5 4.3 1.8 10.2 4.2 14.2 2.3 4 5 5.7 8.2 6 5.4.3 11.5-6 12.6-21.9.9-14.8-8-29.9-14.5-41.3l-.8-1.1c-.3-.3-.5-.9-.8-1.1l-.8-1.1c-6-10.8-11.5-21.6-11.5-38.4 0-17.4 7.8-33 18.9-33h0 0zm566 5.4v13.9h-.2c0-3.1-2.3-5.4-7.3-6l-20.4-2v54.9l16-.6c3.9-.6 5.6-2 5.6-3.7h.2V79h-.2c0-1.7-1.7-2.8-5.6-3.7l-16-.9v65.2l20.4-2c5-.6 7.3-3.1 7.3-6h.2V146h-40.1v-.3h.2c.2 0 .3-.3.5-.3l.2-.3c1.5-2 2-8.8 2-14.8v-107-.6c0-6.8-.9-14.8-2.9-14.8v-.2c-.2 0 40.1 0 40.1 0zm-75.1 0V8c-1.7 0-2.3 6-2.6 12.8v119.6l18-2c4.8-.6 7.3-3.1 7.3-6h.2v13.9h-38v-.3h.2c.2 0 .3-.3.5-.3l.2-.3c1.4-2 2-8.8 2-14.8V21.3c-.2-6.5-1.1-13.1-2.9-13.1V8l15.1-.3h0 0 0zM250 0c16.3 0 28.9 31.3 28.9 73.2s-12.4 73.2-28.9 73.2c-16.3 0-28.7-31.3-28.7-73.2S233.7 0 250 0zm-95.6 7.7V8c-2 0-2.9 7.7-2.9 14.5V131c.2 6.8.9 14.5 2.9 14.5v.3h-15v-.3c2 0 2.9-8 2.9-15.1v-107-.6c0-6.8-.9-14.8-2.9-14.8v-.3h15zm148.4 0l32.8 102.2V23.3v-.6c0-6.8-.9-14.8-2.9-14.8v-.2h8.5V8c-2 0-2.9 8-2.9 15.1v123h-3.6L297 27.9v102.5c0 6.8.8 15.1 2.9 15.1v.3h-8.5v-.3c2 0 2.9-7.7 2.9-14.5V22.8c-.2-6.8-.9-14.8-2.9-14.8v-.3c-.1 0 11.4 0 11.4 0h0zM65.3 6.3v.3c-2 0-2.9 8.3-2.9 15.1V129c0 7.1.8 15.1 2.9 15.1v.9h-15v-.3c2 0 2.9-8 2.9-15.1V21.3l-23 125.3L5.6 20.5l.2 109.9c.2 6.8.9 14.5 2.9 14.5v.3H0v-.3c2 0 2.9-8 2.9-15.1V22.2C2.6 15.1 2 7.1 0 7.1v-.3h13.6l20 99.3L52.2 6.5h13v-.2h.1zm583.8 1.4V8c-2 0-2.9 7.7-2.9 14.5V131c.2 6.8.9 14.5 2.9 14.5v.3h-15v-.3c2 0 2.9-8 2.9-15.1v-107-.6c0-6.8-.9-14.8-2.9-14.8v-.3h15zm-216.9 0v13.9h-.2c0-3.1-2.6-5.4-7.7-6l-22.8-2v55.2l17.5-.9c4.1-.6 5.9-2 5.9-3.7h.2V79h-.1c0-1.7-1.7-2.8-5.9-3.7l-17.5-.9v55.8.6c0 6.8.9 14.8 2.9 14.8v.3h-15v-.3c2 0 2.9-8 2.9-15.1V23.3c0-6.8-.8-15.1-2.9-15.1V8l42.7-.3h0 0 0zm96.5-1.2L550 130.1c1.8 10 2.9 15.4 4.5 15.4v.3h-14.7l-.2-.3c2 0 2.3-3.7.9-12.8 0 0 0-.3-.2-.6l-.2-.6-1.5-9.1-.2-1.4-1.8-10.8-22.4-.6-3.2 20.2c-1.1 7.1-1.7 15.1.3 15.1v.3h-8.5v-.3c2 0 3.6-9.4 4.7-15.1l9.8-58.4.6-3.7 10.8-61.2h0 0zM101 6.5L122.3 130l.2.9c1.7 9.4 2.9 14.5 4.5 14.5v.3h-14.7v-.3c2 0 2.3-3.7.8-12.8l-.2-.3-3.6-21.3-22.3-.6-3.2 20.2c-1.1 7.1-1.7 15.1.3 15.1l-.2.3h-8.3v-.3c2 0 3.6-9.4 4.7-15.1l9.8-58.4.6-3.7 10.3-62h0 0 0zm370.5.9c14.5 0 20.9 17.9 20.9 33 0 17.9-4.4 33-14.5 37.6l-1.2.3 6.7 27.6.5 1.7 5.7 24.2c2.3 10 3.5 13.7 5.6 13.4v.3h-15v-.3c2 0 1.1-4.6-.5-11.7L467 75.7c11.5 0 16.3-12.5 16.3-34.4 0-17.4-5.1-30.5-15.9-30.5h-9.8v119.6c0 6.8.8 15.1 2.9 15.1v.3h-15v-.3c2 0 2.6-7.4 2.9-14.2v-109c-.2-6.8-.9-14.2-2.9-14.2v-.4l26-.3zm121.2-2c8.5 0 16.6 8.8 21.9 23.6l-3.6 5.4c-.3-4-1.7-9.1-3.6-13.4C605 15.6 600 9.9 595 9.9c-14.5 0-22.5 24.2-22.5 65.8 0 38.7 8.5 65.2 21.8 65.2 5.4 0 11.2-4 13.2-10.5l.2-.3V86.3c0-6.8-.8-14.5-2.9-14.5h.2v-.9h15v.3c-2 0-2.9 7.7-2.9 14.5v41.8c-7.3 13.1-16.2 18.2-25.6 18.2-16.3 0-29.6-30.7-29.6-68.3.2-41 13.2-72 30.8-72h0 0 0zM250 4c-16.5 0-18.3 48.4-18.3 68.9s1.8 68.9 18.3 68.9c16.6 0 18.5-48.4 18.5-68.9v-.6C268.4 51.8 266.5 4 250 4zM98.1 44.1l-10 61.2 20.4.3c.1 0-10.4-61.5-10.4-61.5zm427.7 0l-10 61.2 20.4.3c-.1 0-10.4-61.5-10.4-61.5h0 0z" fill-rule="evenodd" fill="#fff"/></svg>