<svg xmlns="http://www.w3.org/2000/svg" width="2257" height="2257" xmlns:v="https://vecta.io/nano"><path fill="#fff" d="M0 0h2257v2257H0z"/><g transform="translate(122 122)"><defs><linearGradient gradientTransform="rotate(90)" id="A"><stop offset="5%" stop-color="#726f83"/><stop offset="95%" stop-color="#726f83"/></linearGradient><mask id="B"><g fill="#fff"><path d="M250 38.5c116.813 0 211.5 94.693 211.5 211.5 0 116.813-94.687 211.5-211.5 211.5-116.807 0-211.5-94.687-211.5-211.5 0-116.807 94.693-211.5 211.5-211.5z" transform="matrix(.122 0 0 .122 854 0)"/><path d="M250 38.5c116.813 0 211.5 94.693 211.5 211.5 0 116.813-94.687 211.5-211.5 211.5-116.807 0-211.5-94.687-211.5-211.5 0-116.807 94.693-211.5 211.5-211.5z" transform="matrix(.122 0 0 .122 1098 0)"/><path d="M250 38.5c116.813 0 211.5 94.693 211.5 211.5 0 116.813-94.687 211.5-211.5 211.5-116.807 0-211.5-94.687-211.5-211.5 0-116.807 94.693-211.5 211.5-211.5z" transform="matrix(.122 0 0 .122 488 61)"/><path d="M470 38.5h-47-66.5-17.63H211.5C94.65 38.5 0 133.222 0 250c0 116.765 94.65 211.5 211.5 211.5h127.37 17.63H423h47 30v-423h-30z" transform="matrix(.122 0 0 .122 610 61)"/><path d="M288.5 38.5H116.95 77 59.5 30 0v423h30 29.5H77h39.95H288.5C405.301 461.5 500 366.8 500 250c0-116.809-94.699-211.5-211.5-211.5z" transform="matrix(.122 0 0 .122 671 61)"/><path d="M470 38.5h-47-66.5-17.63H211.5C94.65 38.5 0 133.222 0 250c0 116.765 94.65 211.5 211.5 211.5h127.37 17.63H423h47 30v-423h-30z" transform="matrix(.122 0 0 .122 793 61)"/><path d="M288.5 38.5H116.95 77 59.5 30 0v423h30 29.5H77h39.95H288.5C405.301 461.5 500 366.8 500 250c0-116.809-94.699-211.5-211.5-211.5z" transform="matrix(.122 0 0 .122 854 61)"/><path d="M470 38.5h-47-66.5-17.63H211.5C94.65 38.5 0 133.222 0 250c0 116.765 94.65 211.5 211.5 211.5h127.37 17.63H423h47 30v-423h-30z" transform="matrix(.122 0 0 .122 976 61)"/><path d="M288.5 38.5H116.95 77 59.5 30 0v423h30 29.5H77h39.95H288.5C405.301 461.5 500 366.8 500 250c0-116.809-94.699-211.5-211.5-211.5z" transform="matrix(.122 0 0 .122 1037 61)"/><path d="M250 38.5c116.813 0 211.5 94.693 211.5 211.5 0 116.813-94.687 211.5-211.5 211.5-116.807 0-211.5-94.687-211.5-211.5 0-116.807 94.693-211.5 211.5-211.5z" transform="matrix(.122 0 0 .122 1220 61)"/><path d="M250 38.5c116.813 0 211.5 94.693 211.5 211.5 0 116.813-94.687 211.5-211.5 211.5-116.807 0-211.5-94.687-211.5-211.5 0-116.807 94.693-211.5 211.5-211.5z" transform="matrix(.122 0 0 .122 1342 61)"/><path d="M250 38.5c116.813 0 211.5 94.693 211.5 211.5 0 116.813-94.687 211.5-211.5 211.5-116.807 0-211.5-94.687-211.5-211.5 0-116.807 94.693-211.5 211.5-211.5z" transform="matrix(.122 0 0 .122 488 122)"/><path d="M470 38.5h-47-66.5-17.63H211.5C94.65 38.5 0 133.222 0 250c0 116.765 94.65 211.5 211.5 211.5h127.37 17.63H423h47 30v-423h-30z" transform="matrix(.122 0 0 .122 671 122)"/><path d="M250 38.5H0v423h250 250v-423z" transform="matrix(.122 0 0 .122 732 122)"/><path d="M288.5 38.5H116.95 77 59.5 30 0v423h30 29.5H77h39.95H288.5C405.301 461.5 500 366.8 500 250c0-116.809-94.699-211.5-211.5-211.5z" transform="matrix(.122 0 0 .122 793 122)"/><path d="M470 38.5h-47-66.5-17.63H211.5C94.65 38.5 0 133.222 0 250c0 116.765 94.65 211.5 211.5 211.5h127.37 17.63H423h47 30v-423h-30z" transform="matrix(.122 0 0 .122 976 122)"/><path d="M250 38.5H0v423h250 250v-423z" transform="matrix(.122 0 0 .122 1037 122)"/><path d="M250 38.5H0v423h250 250v-423z" transform="matrix(.122 0 0 .122 1098 122)"/><path d="M288.5 38.5H116.95 77 59.5 30 0v423h30 29.5H77h39.95H288.5C405.301 461.5 500 366.8 500 250c0-116.809-94.699-211.5-211.5-211.5z" transform="matrix(.122 0 0 .122 1159 122)"/><path d="M250 38.5c116.813 0 211.5 94.693 211.5 211.5 0 116.813-94.687 211.5-211.5 211.5-116.807 0-211.5-94.687-211.5-211.5 0-116.807 94.693-211.5 211.5-211.5z" transform="matrix(.122 0 0 .122 1281 122)"/><path d="M250 38.5c116.813 0 211.5 94.693 211.5 211.5 0 116.813-94.687 211.5-211.5 211.5-116.807 0-211.5-94.687-211.5-211.5 0-116.807 94.693-211.5 211.5-211.5z" transform="matrix(.122 0 0 .122 1403 122)"/><path d="M470 38.5h-47-66.5-17.63H211.5C94.65 38.5 0 133.222 0 250c0 116.765 94.65 211.5 211.5 211.5h127.37 17.63H423h47 30v-423h-30z" transform="matrix(.122 0 0 .122 488 183)"/><path d="M288.5 38.5H116.95 77 59.5 30 0v423h30 29.5H77h39.95H288.5C405.301 461.5 500 366.8 500 250c0-116.809-94.699-211.5-211.5-211.5z" transform="matrix(.122 0 0 .122 549 183)"/><path d="M250 38.5c116.813 0 211.5 94.693 211.5 211.5 0 116.813-94.687 211.5-211.5 211.5-116.807 0-211.5-94.687-211.5-211.5 0-116.807 94.693-211.5 211.5-211.5z" transform="matrix(.122 0 0 .122 671 183)"/><path d="M250 38.5c116.813 0 211.5 94.693 211.5 211.5 0 116.813-94.687 211.5-211.5 211.5-116.807 0-211.5-94.687-211.5-211.5 0-116.807 94.693-211.5 211.5-211.5z" transform="matrix(.122 0 0 .122 915 183)"/><path d="M470 38.5h-47-66.5-17.63H211.5C94.65 38.5 0 133.222 0 250c0 116.765 94.65 211.5 211.5 211.5h127.37 17.63H423h47 30v-423h-30z" transform="matrix(.122 0 0 .122 1220 183)"/><path d="M288.5 38.5H116.95 77 59.5 30 0v423h30 29.5H77h39.95H288.5C405.301 461.5 500 366.8 500 250c0-116.809-94.699-211.5-211.5-211.5z" transform="matrix(.122 0 0 .122 1281 183)"/><path d="M470 38.5h-47-66.5-17.63H211.5C94.65 38.5 0 133.222 0 250c0 116.765 94.65 211.5 211.5 211.5h127.37 17.63H423h47 30v-423h-30z" transform="matrix(.122 0 0 .122 1403 183)"/><path d="M288.5 38.5H116.95 77 59.5 30 0v423h30 29.5H77h39.95H288.5C405.301 461.5 500 366.8 500 250c0-116.809-94.699-211.5-211.5-211.5z" transform="matrix(.122 0 0 .122 1464 183)"/><path d="M470 38.5h-47-66.5-17.63H211.5C94.65 38.5 0 133.222 0 250c0 116.765 94.65 211.5 211.5 211.5h127.37 17.63H423h47 30v-423h-30z" transform="matrix(.122 0 0 .122 610 244)"/><path d="M250 38.5H0v423h250 250v-423z" transform="matrix(.122 0 0 .122 671 244)"/><path d="M250 38.5H0v423h250 250v-423z" transform="matrix(.122 0 0 .122 732 244)"/><path d="M288.5 38.5H116.95 77 59.5 30 0v423h30 29.5H77h39.95H288.5C405.301 461.5 500 366.8 500 250c0-116.809-94.699-211.5-211.5-211.5z" transform="matrix(.122 0 0 .122 793 244)"/><path d="M250 38.5c116.813 0 211.5 94.693 211.5 211.5 0 116.813-94.687 211.5-211.5 211.5-116.807 0-211.5-94.687-211.5-211.5 0-116.807 94.693-211.5 211.5-211.5z" transform="matrix(.122 0 0 .122 915 244)"/><path d="M470 38.5h-47-66.5-17.63H211.5C94.65 38.5 0 133.222 0 250c0 116.765 94.65 211.5 211.5 211.5h127.37 17.63H423h47 30v-423h-30z" transform="matrix(.122 0 0 .122 1037 244)"/><path d="M288.5 38.5H116.95 77 59.5 30 0v423h30 29.5H77h39.95H288.5C405.301 461.5 500 366.8 500 250c0-116.809-94.699-211.5-211.5-211.5z" transform="matrix(.122 0 0 .122 1098 244)"/><path d="M250 38.5c116.813 0 211.5 94.693 211.5 211.5 0 116.813-94.687 211.5-211.5 211.5-116.807 0-211.5-94.687-211.5-211.5 0-116.807 94.693-211.5 211.5-211.5z" transform="matrix(.122 0 0 .122 1281 244)"/><path d="M250 38.5c116.813 0 211.5 94.693 211.5 211.5 0 116.813-94.687 211.5-211.5 211.5-116.807 0-211.5-94.687-211.5-211.5 0-116.807 94.693-211.5 211.5-211.5z" transform="matrix(.122 0 0 .122 1403 244)"/><path d="M250 38.5c116.813 0 211.5 94.693 211.5 211.5 0 116.813-94.687 211.5-211.5 211.5-116.807 0-211.5-94.687-211.5-211.5 0-116.807 94.693-211.5 211.5-211.5z" transform="matrix(.122 0 0 .122 610 305)"/><path d="M250 38.5c116.813 0 211.5 94.693 211.5 211.5 0 116.813-94.687 211.5-211.5 211.5-116.807 0-211.5-94.687-211.5-211.5 0-116.807 94.693-211.5 211.5-211.5z" transform="matrix(.122 0 0 .122 854 305)"/><path d="M470 38.5h-47-66.5-17.63H211.5C94.65 38.5 0 133.222 0 250c0 116.765 94.65 211.5 211.5 211.5h127.37 17.63H423h47 30v-423h-30z" transform="matrix(.122 0 0 .122 976 305)"/><path d="M250 38.5H0v423h250 250v-423z" transform="matrix(.122 0 0 .122 1037 305)"/><path d="M288.5 38.5H116.95 77 59.5 30 0v423h30 29.5H77h39.95H288.5C405.301 461.5 500 366.8 500 250c0-116.809-94.699-211.5-211.5-211.5z" transform="matrix(.122 0 0 .122 1098 305)"/><path d="M250 38.5c116.813 0 211.5 94.693 211.5 211.5 0 116.813-94.687 211.5-211.5 211.5-116.807 0-211.5-94.687-211.5-211.5 0-116.807 94.693-211.5 211.5-211.5z" transform="matrix(.122 0 0 .122 1281 305)"/><path d="M250 38.5c116.813 0 211.5 94.693 211.5 211.5 0 116.813-94.687 211.5-211.5 211.5-116.807 0-211.5-94.687-211.5-211.5 0-116.807 94.693-211.5 211.5-211.5z" transform="matrix(.122 0 0 .122 1464 305)"/><path d="M250 38.5c116.813 0 211.5 94.693 211.5 211.5 0 116.813-94.687 211.5-211.5 211.5-116.807 0-211.5-94.687-211.5-211.5 0-116.807 94.693-211.5 211.5-211.5z" transform="matrix(.122 0 0 .122 488 366)"/><path d="M250 38.5c116.813 0 211.5 94.693 211.5 211.5 0 116.813-94.687 211.5-211.5 211.5-116.807 0-211.5-94.687-211.5-211.5 0-116.807 94.693-211.5 211.5-211.5z" transform="matrix(.122 0 0 .122 610 366)"/><path d="M250 38.5c116.813 0 211.5 94.693 211.5 211.5 0 116.813-94.687 211.5-211.5 211.5-116.807 0-211.5-94.687-211.5-211.5 0-116.807 94.693-211.5 211.5-211.5z" transform="matrix(.122 0 0 .122 732 366)"/><path d="M250 38.5c116.813 0 211.5 94.693 211.5 211.5 0 116.813-94.687 211.5-211.5 211.5-116.807 0-211.5-94.687-211.5-211.5 0-116.807 94.693-211.5 211.5-211.5z" transform="matrix(.122 0 0 .122 854 366)"/><path d="M250 38.5c116.813 0 211.5 94.693 211.5 211.5 0 116.813-94.687 211.5-211.5 211.5-116.807 0-211.5-94.687-211.5-211.5 0-116.807 94.693-211.5 211.5-211.5z" transform="matrix(.122 0 0 .122 976 366)"/><path d="M250 38.5c116.813 0 211.5 94.693 211.5 211.5 0 116.813-94.687 211.5-211.5 211.5-116.807 0-211.5-94.687-211.5-211.5 0-116.807 94.693-211.5 211.5-211.5z" transform="matrix(.122 0 0 .122 1098 366)"/><path d="M250 38.5c116.813 0 211.5 94.693 211.5 211.5 0 116.813-94.687 211.5-211.5 211.5-116.807 0-211.5-94.687-211.5-211.5 0-116.807 94.693-211.5 211.5-211.5z" transform="matrix(.122 0 0 .122 1220 366)"/><path d="M250 38.5c116.813 0 211.5 94.693 211.5 211.5 0 116.813-94.687 211.5-211.5 211.5-116.807 0-211.5-94.687-211.5-211.5 0-116.807 94.693-211.5 211.5-211.5z" transform="matrix(.122 0 0 .122 1342 366)"/><path d="M250 38.5c116.813 0 211.5 94.693 211.5 211.5 0 116.813-94.687 211.5-211.5 211.5-116.807 0-211.5-94.687-211.5-211.5 0-116.807 94.693-211.5 211.5-211.5z" transform="matrix(.122 0 0 .122 1464 366)"/><path d="M470 38.5h-47-66.5-17.63H211.5C94.65 38.5 0 133.222 0 250c0 116.765 94.65 211.5 211.5 211.5h127.37 17.63H423h47 30v-423h-30z" transform="matrix(.122 0 0 .122 488 427)"/><path d="M250 38.5H0v423h250 250v-423z" transform="matrix(.122 0 0 .122 549 427)"/><path d="M288.5 38.5H116.95 77 59.5 30 0v423h30 29.5H77h39.95H288.5C405.301 461.5 500 366.8 500 250c0-116.809-94.699-211.5-211.5-211.5z" transform="matrix(.122 0 0 .122 610 427)"/><path d="M250 38.5c116.813 0 211.5 94.693 211.5 211.5 0 116.813-94.687 211.5-211.5 211.5-116.807 0-211.5-94.687-211.5-211.5 0-116.807 94.693-211.5 211.5-211.5z" transform="matrix(.122 0 0 .122 854 427)"/><path d="M250 38.5c116.813 0 211.5 94.693 211.5 211.5 0 116.813-94.687 211.5-211.5 211.5-116.807 0-211.5-94.687-211.5-211.5 0-116.807 94.693-211.5 211.5-211.5z" transform="matrix(.122 0 0 .122 1403 427)"/><path d="M250 38.5c116.813 0 211.5 94.693 211.5 211.5 0 116.813-94.687 211.5-211.5 211.5-116.807 0-211.5-94.687-211.5-211.5 0-116.807 94.693-211.5 211.5-211.5z" transform="matrix(.122 0 0 .122 0 488)"/><path d="M250 38.5c116.813 0 211.5 94.693 211.5 211.5 0 116.813-94.687 211.5-211.5 211.5-116.807 0-211.5-94.687-211.5-211.5 0-116.807 94.693-211.5 211.5-211.5z" transform="matrix(.122 0 0 .122 366 488)"/><path d="M250 38.5c116.813 0 211.5 94.693 211.5 211.5 0 116.813-94.687 211.5-211.5 211.5-116.807 0-211.5-94.687-211.5-211.5 0-116.807 94.693-211.5 211.5-211.5z" transform="matrix(.122 0 0 .122 488 488)"/><path d="M470 38.5h-47-66.5-17.63H211.5C94.65 38.5 0 133.222 0 250c0 116.765 94.65 211.5 211.5 211.5h127.37 17.63H423h47 30v-423h-30z" transform="matrix(.122 0 0 .122 610 488)"/><path d="M288.5 38.5H116.95 77 59.5 30 0v423h30 29.5H77h39.95H288.5C405.301 461.5 500 366.8 500 250c0-116.809-94.699-211.5-211.5-211.5z" transform="matrix(.122 0 0 .122 671 488)"/><path d="M470 38.5h-47-66.5-17.63H211.5C94.65 38.5 0 133.222 0 250c0 116.765 94.65 211.5 211.5 211.5h127.37 17.63H423h47 30v-423h-30z" transform="matrix(.122 0 0 .122 793 488)"/><path d="M250 38.5H0v423h250 250v-423z" transform="matrix(.122 0 0 .122 854 488)"/><path d="M288.5 38.5H116.95 77 59.5 30 0v423h30 29.5H77h39.95H288.5C405.301 461.5 500 366.8 500 250c0-116.809-94.699-211.5-211.5-211.5z" transform="matrix(.122 0 0 .122 915 488)"/><path d="M250 38.5c116.813 0 211.5 94.693 211.5 211.5 0 116.813-94.687 211.5-211.5 211.5-116.807 0-211.5-94.687-211.5-211.5 0-116.807 94.693-211.5 211.5-211.5z" transform="matrix(.122 0 0 .122 1037 488)"/><path d="M470 38.5h-47-66.5-17.63H211.5C94.65 38.5 0 133.222 0 250c0 116.765 94.65 211.5 211.5 211.5h127.37 17.63H423h47 30v-423h-30z" transform="matrix(.122 0 0 .122 1342 488)"/><path d="M250 38.5H0v423h250 250v-423z" transform="matrix(.122 0 0 .122 1403 488)"/><path d="M250 38.5H0v423h250 250v-423z" transform="matrix(.122 0 0 .122 1464 488)"/><path d="M250 38.5H0v423h250 250v-423z" transform="matrix(.122 0 0 .122 1525 488)"/><path d="M288.5 38.5H116.95 77 59.5 30 0v423h30 29.5H77h39.95H288.5C405.301 461.5 500 366.8 500 250c0-116.809-94.699-211.5-211.5-211.5z" transform="matrix(.122 0 0 .122 1586 488)"/><path d="M470 38.5h-47-66.5-17.63H211.5C94.65 38.5 0 133.222 0 250c0 116.765 94.65 211.5 211.5 211.5h127.37 17.63H423h47 30v-423h-30z" transform="matrix(.122 0 0 .122 1769 488)"/><path d="M250 38.5H0v423h250 250v-423z" transform="matrix(.122 0 0 .122 1830 488)"/><path d="M288.5 38.5H116.95 77 59.5 30 0v423h30 29.5H77h39.95H288.5C405.301 461.5 500 366.8 500 250c0-116.809-94.699-211.5-211.5-211.5z" transform="matrix(.122 0 0 .122 1891 488)"/><path d="M250 38.5c116.813 0 211.5 94.693 211.5 211.5 0 116.813-94.687 211.5-211.5 211.5-116.807 0-211.5-94.687-211.5-211.5 0-116.807 94.693-211.5 211.5-211.5z" transform="matrix(.122 0 0 .122 0 549)"/><path d="M250 38.5c116.813 0 211.5 94.693 211.5 211.5 0 116.813-94.687 211.5-211.5 211.5-116.807 0-211.5-94.687-211.5-211.5 0-116.807 94.693-211.5 211.5-211.5z" transform="matrix(.122 0 0 .122 122 549)"/><path d="M470 38.5h-47-66.5-17.63H211.5C94.65 38.5 0 133.222 0 250c0 116.765 94.65 211.5 211.5 211.5h127.37 17.63H423h47 30v-423h-30z" transform="matrix(.122 0 0 .122 244 549)"/><path d="M288.5 38.5H116.95 77 59.5 30 0v423h30 29.5H77h39.95H288.5C405.301 461.5 500 366.8 500 250c0-116.809-94.699-211.5-211.5-211.5z" transform="matrix(.122 0 0 .122 305 549)"/><path d="M470 38.5h-47-66.5-17.63H211.5C94.65 38.5 0 133.222 0 250c0 116.765 94.65 211.5 211.5 211.5h127.37 17.63H423h47 30v-423h-30z" transform="matrix(.122 0 0 .122 488 549)"/><path d="M250 38.5H0v423h250 250v-423z" transform="matrix(.122 0 0 .122 549 549)"/><path d="M288.5 38.5H116.95 77 59.5 30 0v423h30 29.5H77h39.95H288.5C405.301 461.5 500 366.8 500 250c0-116.809-94.699-211.5-211.5-211.5z" transform="matrix(.122 0 0 .122 610 549)"/><path d="M250 38.5c116.813 0 211.5 94.693 211.5 211.5 0 116.813-94.687 211.5-211.5 211.5-116.807 0-211.5-94.687-211.5-211.5 0-116.807 94.693-211.5 211.5-211.5z" transform="matrix(.122 0 0 .122 732 549)"/><path d="M470 38.5h-47-66.5-17.63H211.5C94.65 38.5 0 133.222 0 250c0 116.765 94.65 211.5 211.5 211.5h127.37 17.63H423h47 30v-423h-30z" transform="matrix(.122 0 0 .122 854 549)"/><path d="M250 38.5H0v423h250 250v-423z" transform="matrix(.122 0 0 .122 915 549)"/><path d="M288.5 38.5H116.95 77 59.5 30 0v423h30 29.5H77h39.95H288.5C405.301 461.5 500 366.8 500 250c0-116.809-94.699-211.5-211.5-211.5z" transform="matrix(.122 0 0 .122 976 549)"/><path d="M470 38.5h-47-66.5-17.63H211.5C94.65 38.5 0 133.222 0 250c0 116.765 94.65 211.5 211.5 211.5h127.37 17.63H423h47 30v-423h-30z" transform="matrix(.122 0 0 .122 1098 549)"/><path d="M288.5 38.5H116.95 77 59.5 30 0v423h30 29.5H77h39.95H288.5C405.301 461.5 500 366.8 500 250c0-116.809-94.699-211.5-211.5-211.5z" transform="matrix(.122 0 0 .122 1159 549)"/><path d="M470 38.5h-47-66.5-17.63H211.5C94.65 38.5 0 133.222 0 250c0 116.765 94.65 211.5 211.5 211.5h127.37 17.63H423h47 30v-423h-30z" transform="matrix(.122 0 0 .122 1281 549)"/><path d="M250 38.5H0v423h250 250v-423z" transform="matrix(.122 0 0 .122 1342 549)"/><path d="M288.5 38.5H116.95 77 59.5 30 0v423h30 29.5H77h39.95H288.5C405.301 461.5 500 366.8 500 250c0-116.809-94.699-211.5-211.5-211.5z" transform="matrix(.122 0 0 .122 1403 549)"/><path d="M470 38.5h-47-66.5-17.63H211.5C94.65 38.5 0 133.222 0 250c0 116.765 94.65 211.5 211.5 211.5h127.37 17.63H423h47 30v-423h-30z" transform="matrix(.122 0 0 .122 1708 549)"/><path d="M250 38.5H0v423h250 250v-423z" transform="matrix(.122 0 0 .122 1769 549)"/><path d="M288.5 38.5H116.95 77 59.5 30 0v423h30 29.5H77h39.95H288.5C405.301 461.5 500 366.8 500 250c0-116.809-94.699-211.5-211.5-211.5z" transform="matrix(.122 0 0 .122 1830 549)"/><path d="M250 38.5c116.813 0 211.5 94.693 211.5 211.5 0 116.813-94.687 211.5-211.5 211.5-116.807 0-211.5-94.687-211.5-211.5 0-116.807 94.693-211.5 211.5-211.5z" transform="matrix(.122 0 0 .122 0 610)"/><path d="M470 38.5h-47-66.5-17.63H211.5C94.65 38.5 0 133.222 0 250c0 116.765 94.65 211.5 211.5 211.5h127.37 17.63H423h47 30v-423h-30z" transform="matrix(.122 0 0 .122 183 610)"/><path d="M288.5 38.5H116.95 77 59.5 30 0v423h30 29.5H77h39.95H288.5C405.301 461.5 500 366.8 500 250c0-116.809-94.699-211.5-211.5-211.5z" transform="matrix(.122 0 0 .122 244 610)"/><path d="M250 38.5c116.813 0 211.5 94.693 211.5 211.5 0 116.813-94.687 211.5-211.5 211.5-116.807 0-211.5-94.687-211.5-211.5 0-116.807 94.693-211.5 211.5-211.5z" transform="matrix(.122 0 0 .122 366 610)"/><path d="M250 38.5c116.813 0 211.5 94.693 211.5 211.5 0 116.813-94.687 211.5-211.5 211.5-116.807 0-211.5-94.687-211.5-211.5 0-116.807 94.693-211.5 211.5-211.5z" transform="matrix(.122 0 0 .122 671 610)"/><path d="M470 38.5h-47-66.5-17.63H211.5C94.65 38.5 0 133.222 0 250c0 116.765 94.65 211.5 211.5 211.5h127.37 17.63H423h47 30v-423h-30z" transform="matrix(.122 0 0 .122 915 610)"/><path d="M288.5 38.5H116.95 77 59.5 30 0v423h30 29.5H77h39.95H288.5C405.301 461.5 500 366.8 500 250c0-116.809-94.699-211.5-211.5-211.5z" transform="matrix(.122 0 0 .122 976 610)"/><path d="M250 38.5c116.813 0 211.5 94.693 211.5 211.5 0 116.813-94.687 211.5-211.5 211.5-116.807 0-211.5-94.687-211.5-211.5 0-116.807 94.693-211.5 211.5-211.5z" transform="matrix(.122 0 0 .122 1098 610)"/><path d="M250 38.5c116.813 0 211.5 94.693 211.5 211.5 0 116.813-94.687 211.5-211.5 211.5-116.807 0-211.5-94.687-211.5-211.5 0-116.807 94.693-211.5 211.5-211.5z" transform="matrix(.122 0 0 .122 1220 610)"/><path d="M250 38.5c116.813 0 211.5 94.693 211.5 211.5 0 116.813-94.687 211.5-211.5 211.5-116.807 0-211.5-94.687-211.5-211.5 0-116.807 94.693-211.5 211.5-211.5z" transform="matrix(.122 0 0 .122 1342 610)"/><path d="M250 38.5c116.813 0 211.5 94.693 211.5 211.5 0 116.813-94.687 211.5-211.5 211.5-116.807 0-211.5-94.687-211.5-211.5 0-116.807 94.693-211.5 211.5-211.5z" transform="matrix(.122 0 0 .122 1464 610)"/><path d="M250 38.5c116.813 0 211.5 94.693 211.5 211.5 0 116.813-94.687 211.5-211.5 211.5-116.807 0-211.5-94.687-211.5-211.5 0-116.807 94.693-211.5 211.5-211.5z" transform="matrix(.122 0 0 .122 1708 610)"/><path d="M470 38.5h-47-66.5-17.63H211.5C94.65 38.5 0 133.222 0 250c0 116.765 94.65 211.5 211.5 211.5h127.37 17.63H423h47 30v-423h-30z" transform="matrix(.122 0 0 .122 1830 610)"/><path d="M288.5 38.5H116.95 77 59.5 30 0v423h30 29.5H77h39.95H288.5C405.301 461.5 500 366.8 500 250c0-116.809-94.699-211.5-211.5-211.5z" transform="matrix(.122 0 0 .122 1891 610)"/><path d="M470 38.5h-47-66.5-17.63H211.5C94.65 38.5 0 133.222 0 250c0 116.765 94.65 211.5 211.5 211.5h127.37 17.63H423h47 30v-423h-30z" transform="matrix(.122 0 0 .122 61 671)"/><path d="M288.5 38.5H116.95 77 59.5 30 0v423h30 29.5H77h39.95H288.5C405.301 461.5 500 366.8 500 250c0-116.809-94.699-211.5-211.5-211.5z" transform="matrix(.122 0 0 .122 122 671)"/><path d="M250 38.5c116.813 0 211.5 94.693 211.5 211.5 0 116.813-94.687 211.5-211.5 211.5-116.807 0-211.5-94.687-211.5-211.5 0-116.807 94.693-211.5 211.5-211.5z" transform="matrix(.122 0 0 .122 244 671)"/><path d="M250 38.5c116.813 0 211.5 94.693 211.5 211.5 0 116.813-94.687 211.5-211.5 211.5-116.807 0-211.5-94.687-211.5-211.5 0-116.807 94.693-211.5 211.5-211.5z" transform="matrix(.122 0 0 .122 488 671)"/><path d="M250 38.5c116.813 0 211.5 94.693 211.5 211.5 0 116.813-94.687 211.5-211.5 211.5-116.807 0-211.5-94.687-211.5-211.5 0-116.807 94.693-211.5 211.5-211.5z" transform="matrix(.122 0 0 .122 732 671)"/><path d="M250 38.5c116.813 0 211.5 94.693 211.5 211.5 0 116.813-94.687 211.5-211.5 211.5-116.807 0-211.5-94.687-211.5-211.5 0-116.807 94.693-211.5 211.5-211.5z" transform="matrix(.122 0 0 .122 854 671)"/><path d="M250 38.5c116.813 0 211.5 94.693 211.5 211.5 0 116.813-94.687 211.5-211.5 211.5-116.807 0-211.5-94.687-211.5-211.5 0-116.807 94.693-211.5 211.5-211.5z" transform="matrix(.122 0 0 .122 976 671)"/><path d="M470 38.5h-47-66.5-17.63H211.5C94.65 38.5 0 133.222 0 250c0 116.765 94.65 211.5 211.5 211.5h127.37 17.63H423h47 30v-423h-30z" transform="matrix(.122 0 0 .122 1342 671)"/><path d="M288.5 38.5H116.95 77 59.5 30 0v423h30 29.5H77h39.95H288.5C405.301 461.5 500 366.8 500 250c0-116.809-94.699-211.5-211.5-211.5z" transform="matrix(.122 0 0 .122 1403 671)"/><path d="M470 38.5h-47-66.5-17.63H211.5C94.65 38.5 0 133.222 0 250c0 116.765 94.65 211.5 211.5 211.5h127.37 17.63H423h47 30v-423h-30z" transform="matrix(.122 0 0 .122 1647 671)"/><path d="M250 38.5H0v423h250 250v-423z" transform="matrix(.122 0 0 .122 1708 671)"/><path d="M250 38.5H0v423h250 250v-423z" transform="matrix(.122 0 0 .122 1769 671)"/><path d="M250 38.5H0v423h250 250v-423z" transform="matrix(.122 0 0 .122 1830 671)"/><path d="M288.5 38.5H116.95 77 59.5 30 0v423h30 29.5H77h39.95H288.5C405.301 461.5 500 366.8 500 250c0-116.809-94.699-211.5-211.5-211.5z" transform="matrix(.122 0 0 .122 1891 671)"/><path d="M470 38.5h-47-66.5-17.63H211.5C94.65 38.5 0 133.222 0 250c0 116.765 94.65 211.5 211.5 211.5h127.37 17.63H423h47 30v-423h-30z" transform="matrix(.122 0 0 .122 0 732)"/><path d="M288.5 38.5H116.95 77 59.5 30 0v423h30 29.5H77h39.95H288.5C405.301 461.5 500 366.8 500 250c0-116.809-94.699-211.5-211.5-211.5z" transform="matrix(.122 0 0 .122 61 732)"/><path d="M470 38.5h-47-66.5-17.63H211.5C94.65 38.5 0 133.222 0 250c0 116.765 94.65 211.5 211.5 211.5h127.37 17.63H423h47 30v-423h-30z" transform="matrix(.122 0 0 .122 305 732)"/><path d="M250 38.5H0v423h250 250v-423z" transform="matrix(.122 0 0 .122 366 732)"/><path d="M288.5 38.5H116.95 77 59.5 30 0v423h30 29.5H77h39.95H288.5C405.301 461.5 500 366.8 500 250c0-116.809-94.699-211.5-211.5-211.5z" transform="matrix(.122 0 0 .122 427 732)"/><path d="M250 38.5c116.813 0 211.5 94.693 211.5 211.5 0 116.813-94.687 211.5-211.5 211.5-116.807 0-211.5-94.687-211.5-211.5 0-116.807 94.693-211.5 211.5-211.5z" transform="matrix(.122 0 0 .122 549 732)"/><path d="M470 38.5h-47-66.5-17.63H211.5C94.65 38.5 0 133.222 0 250c0 116.765 94.65 211.5 211.5 211.5h127.37 17.63H423h47 30v-423h-30z" transform="matrix(.122 0 0 .122 732 732)"/><path d="M250 38.5H0v423h250 250v-423z" transform="matrix(.122 0 0 .122 793 732)"/><path d="M288.5 38.5H116.95 77 59.5 30 0v423h30 29.5H77h39.95H288.5C405.301 461.5 500 366.8 500 250c0-116.809-94.699-211.5-211.5-211.5z" transform="matrix(.122 0 0 .122 854 732)"/><path d="M470 38.5h-47-66.5-17.63H211.5C94.65 38.5 0 133.222 0 250c0 116.765 94.65 211.5 211.5 211.5h127.37 17.63H423h47 30v-423h-30z" transform="matrix(.122 0 0 .122 976 732)"/><path d="M250 38.5H0v423h250 250v-423z" transform="matrix(.122 0 0 .122 1037 732)"/><path d="M250 38.5H0v423h250 250v-423z" transform="matrix(.122 0 0 .122 1098 732)"/><path d="M288.5 38.5H116.95 77 59.5 30 0v423h30 29.5H77h39.95H288.5C405.301 461.5 500 366.8 500 250c0-116.809-94.699-211.5-211.5-211.5z" transform="matrix(.122 0 0 .122 1159 732)"/><path d="M250 38.5c116.813 0 211.5 94.693 211.5 211.5 0 116.813-94.687 211.5-211.5 211.5-116.807 0-211.5-94.687-211.5-211.5 0-116.807 94.693-211.5 211.5-211.5z" transform="matrix(.122 0 0 .122 1464 732)"/><path d="M250 38.5c116.813 0 211.5 94.693 211.5 211.5 0 116.813-94.687 211.5-211.5 211.5-116.807 0-211.5-94.687-211.5-211.5 0-116.807 94.693-211.5 211.5-211.5z" transform="matrix(.122 0 0 .122 1586 732)"/><path d="M250 38.5c116.813 0 211.5 94.693 211.5 211.5 0 116.813-94.687 211.5-211.5 211.5-116.807 0-211.5-94.687-211.5-211.5 0-116.807 94.693-211.5 211.5-211.5z" transform="matrix(.122 0 0 .122 1891 732)"/><path d="M250 38.5c116.813 0 211.5 94.693 211.5 211.5 0 116.813-94.687 211.5-211.5 211.5-116.807 0-211.5-94.687-211.5-211.5 0-116.807 94.693-211.5 211.5-211.5z" transform="matrix(.122 0 0 .122 61 793)"/><path d="M250 38.5c116.813 0 211.5 94.693 211.5 211.5 0 116.813-94.687 211.5-211.5 211.5-116.807 0-211.5-94.687-211.5-211.5 0-116.807 94.693-211.5 211.5-211.5z" transform="matrix(.122 0 0 .122 305 793)"/><path d="M470 38.5h-47-66.5-17.63H211.5C94.65 38.5 0 133.222 0 250c0 116.765 94.65 211.5 211.5 211.5h127.37 17.63H423h47 30v-423h-30z" transform="matrix(.122 0 0 .122 427 793)"/><path d="M288.5 38.5H116.95 77 59.5 30 0v423h30 29.5H77h39.95H288.5C405.301 461.5 500 366.8 500 250c0-116.809-94.699-211.5-211.5-211.5z" transform="matrix(.122 0 0 .122 488 793)"/><path d="M470 38.5h-47-66.5-17.63H211.5C94.65 38.5 0 133.222 0 250c0 116.765 94.65 211.5 211.5 211.5h127.37 17.63H423h47 30v-423h-30z" transform="matrix(.122 0 0 .122 610 793)"/><path d="M288.5 38.5H116.95 77 59.5 30 0v423h30 29.5H77h39.95H288.5C405.301 461.5 500 366.8 500 250c0-116.809-94.699-211.5-211.5-211.5z" transform="matrix(.122 0 0 .122 671 793)"/><path d="M470 38.5h-47-66.5-17.63H211.5C94.65 38.5 0 133.222 0 250c0 116.765 94.65 211.5 211.5 211.5h127.37 17.63H423h47 30v-423h-30z" transform="matrix(.122 0 0 .122 793 793)"/><path d="M288.5 38.5H116.95 77 59.5 30 0v423h30 29.5H77h39.95H288.5C405.301 461.5 500 366.8 500 250c0-116.809-94.699-211.5-211.5-211.5z" transform="matrix(.122 0 0 .122 854 793)"/><path d="M250 38.5c116.813 0 211.5 94.693 211.5 211.5 0 116.813-94.687 211.5-211.5 211.5-116.807 0-211.5-94.687-211.5-211.5 0-116.807 94.693-211.5 211.5-211.5z" transform="matrix(.122 0 0 .122 976 793)"/><path d="M470 38.5h-47-66.5-17.63H211.5C94.65 38.5 0 133.222 0 250c0 116.765 94.65 211.5 211.5 211.5h127.37 17.63H423h47 30v-423h-30z" transform="matrix(.122 0 0 .122 1159 793)"/><path d="M288.5 38.5H116.95 77 59.5 30 0v423h30 29.5H77h39.95H288.5C405.301 461.5 500 366.8 500 250c0-116.809-94.699-211.5-211.5-211.5z" transform="matrix(.122 0 0 .122 1220 793)"/><path d="M250 38.5c116.813 0 211.5 94.693 211.5 211.5 0 116.813-94.687 211.5-211.5 211.5-116.807 0-211.5-94.687-211.5-211.5 0-116.807 94.693-211.5 211.5-211.5z" transform="matrix(.122 0 0 .122 1403 793)"/><path d="M250 38.5c116.813 0 211.5 94.693 211.5 211.5 0 116.813-94.687 211.5-211.5 211.5-116.807 0-211.5-94.687-211.5-211.5 0-116.807 94.693-211.5 211.5-211.5z" transform="matrix(.122 0 0 .122 1525 793)"/><path d="M250 38.5c116.813 0 211.5 94.693 211.5 211.5 0 116.813-94.687 211.5-211.5 211.5-116.807 0-211.5-94.687-211.5-211.5 0-116.807 94.693-211.5 211.5-211.5z" transform="matrix(.122 0 0 .122 1647 793)"/><path d="M250 38.5c116.813 0 211.5 94.693 211.5 211.5 0 116.813-94.687 211.5-211.5 211.5-116.807 0-211.5-94.687-211.5-211.5 0-116.807 94.693-211.5 211.5-211.5z" transform="matrix(.122 0 0 .122 1769 793)"/><path d="M470 38.5h-47-66.5-17.63H211.5C94.65 38.5 0 133.222 0 250c0 116.765 94.65 211.5 211.5 211.5h127.37 17.63H423h47 30v-423h-30z" transform="matrix(.122 0 0 .122 1891 793)"/><path d="M288.5 38.5H116.95 77 59.5 30 0v423h30 29.5H77h39.95H288.5C405.301 461.5 500 366.8 500 250c0-116.809-94.699-211.5-211.5-211.5z" transform="matrix(.122 0 0 .122 1952 793)"/><path d="M250 38.5c116.813 0 211.5 94.693 211.5 211.5 0 116.813-94.687 211.5-211.5 211.5-116.807 0-211.5-94.687-211.5-211.5 0-116.807 94.693-211.5 211.5-211.5z" transform="matrix(.122 0 0 .122 0 854)"/><path d="M250 38.5c116.813 0 211.5 94.693 211.5 211.5 0 116.813-94.687 211.5-211.5 211.5-116.807 0-211.5-94.687-211.5-211.5 0-116.807 94.693-211.5 211.5-211.5z" transform="matrix(.122 0 0 .122 183 854)"/><path d="M470 38.5h-47-66.5-17.63H211.5C94.65 38.5 0 133.222 0 250c0 116.765 94.65 211.5 211.5 211.5h127.37 17.63H423h47 30v-423h-30z" transform="matrix(.122 0 0 .122 366 854)"/><path d="M288.5 38.5H116.95 77 59.5 30 0v423h30 29.5H77h39.95H288.5C405.301 461.5 500 366.8 500 250c0-116.809-94.699-211.5-211.5-211.5z" transform="matrix(.122 0 0 .122 427 854)"/><path d="M250 38.5c116.813 0 211.5 94.693 211.5 211.5 0 116.813-94.687 211.5-211.5 211.5-116.807 0-211.5-94.687-211.5-211.5 0-116.807 94.693-211.5 211.5-211.5z" transform="matrix(.122 0 0 .122 610 854)"/><path d="M470 38.5h-47-66.5-17.63H211.5C94.65 38.5 0 133.222 0 250c0 116.765 94.65 211.5 211.5 211.5h127.37 17.63H423h47 30v-423h-30z" transform="matrix(.122 0 0 .122 793 854)"/><path d="M288.5 38.5H116.95 77 59.5 30 0v423h30 29.5H77h39.95H288.5C405.301 461.5 500 366.8 500 250c0-116.809-94.699-211.5-211.5-211.5z" transform="matrix(.122 0 0 .122 854 854)"/><path d="M470 38.5h-47-66.5-17.63H211.5C94.65 38.5 0 133.222 0 250c0 116.765 94.65 211.5 211.5 211.5h127.37 17.63H423h47 30v-423h-30z" transform="matrix(.122 0 0 .122 1281 854)"/><path d="M288.5 38.5H116.95 77 59.5 30 0v423h30 29.5H77h39.95H288.5C405.301 461.5 500 366.8 500 250c0-116.809-94.699-211.5-211.5-211.5z" transform="matrix(.122 0 0 .122 1342 854)"/><path d="M470 38.5h-47-66.5-17.63H211.5C94.65 38.5 0 133.222 0 250c0 116.765 94.65 211.5 211.5 211.5h127.37 17.63H423h47 30v-423h-30z" transform="matrix(.122 0 0 .122 1525 854)"/><path d="M250 38.5H0v423h250 250v-423z" transform="matrix(.122 0 0 .122 1586 854)"/><path d="M288.5 38.5H116.95 77 59.5 30 0v423h30 29.5H77h39.95H288.5C405.301 461.5 500 366.8 500 250c0-116.809-94.699-211.5-211.5-211.5z" transform="matrix(.122 0 0 .122 1647 854)"/><path d="M470 38.5h-47-66.5-17.63H211.5C94.65 38.5 0 133.222 0 250c0 116.765 94.65 211.5 211.5 211.5h127.37 17.63H423h47 30v-423h-30z" transform="matrix(.122 0 0 .122 1830 854)"/><path d="M288.5 38.5H116.95 77 59.5 30 0v423h30 29.5H77h39.95H288.5C405.301 461.5 500 366.8 500 250c0-116.809-94.699-211.5-211.5-211.5z" transform="matrix(.122 0 0 .122 1891 854)"/><path d="M250 38.5c116.813 0 211.5 94.693 211.5 211.5 0 116.813-94.687 211.5-211.5 211.5-116.807 0-211.5-94.687-211.5-211.5 0-116.807 94.693-211.5 211.5-211.5z" transform="matrix(.122 0 0 .122 0 915)"/><path d="M250 38.5c116.813 0 211.5 94.693 211.5 211.5 0 116.813-94.687 211.5-211.5 211.5-116.807 0-211.5-94.687-211.5-211.5 0-116.807 94.693-211.5 211.5-211.5z" transform="matrix(.122 0 0 .122 305 915)"/><path d="M470 38.5h-47-66.5-17.63H211.5C94.65 38.5 0 133.222 0 250c0 116.765 94.65 211.5 211.5 211.5h127.37 17.63H423h47 30v-423h-30z" transform="matrix(.122 0 0 .122 488 915)"/><path d="M288.5 38.5H116.95 77 59.5 30 0v423h30 29.5H77h39.95H288.5C405.301 461.5 500 366.8 500 250c0-116.809-94.699-211.5-211.5-211.5z" transform="matrix(.122 0 0 .122 549 915)"/><path d="M250 38.5c116.813 0 211.5 94.693 211.5 211.5 0 116.813-94.687 211.5-211.5 211.5-116.807 0-211.5-94.687-211.5-211.5 0-116.807 94.693-211.5 211.5-211.5z" transform="matrix(.122 0 0 .122 732 915)"/><path d="M250 38.5c116.813 0 211.5 94.693 211.5 211.5 0 116.813-94.687 211.5-211.5 211.5-116.807 0-211.5-94.687-211.5-211.5 0-116.807 94.693-211.5 211.5-211.5z" transform="matrix(.122 0 0 .122 915 915)"/><path d="M250 38.5c116.813 0 211.5 94.693 211.5 211.5 0 116.813-94.687 211.5-211.5 211.5-116.807 0-211.5-94.687-211.5-211.5 0-116.807 94.693-211.5 211.5-211.5z" transform="matrix(.122 0 0 .122 1220 915)"/><path d="M470 38.5h-47-66.5-17.63H211.5C94.65 38.5 0 133.222 0 250c0 116.765 94.65 211.5 211.5 211.5h127.37 17.63H423h47 30v-423h-30z" transform="matrix(.122 0 0 .122 1342 915)"/><path d="M288.5 38.5H116.95 77 59.5 30 0v423h30 29.5H77h39.95H288.5C405.301 461.5 500 366.8 500 250c0-116.809-94.699-211.5-211.5-211.5z" transform="matrix(.122 0 0 .122 1403 915)"/><path d="M250 38.5c116.813 0 211.5 94.693 211.5 211.5 0 116.813-94.687 211.5-211.5 211.5-116.807 0-211.5-94.687-211.5-211.5 0-116.807 94.693-211.5 211.5-211.5z" transform="matrix(.122 0 0 .122 1525 915)"/><path d="M470 38.5h-47-66.5-17.63H211.5C94.65 38.5 0 133.222 0 250c0 116.765 94.65 211.5 211.5 211.5h127.37 17.63H423h47 30v-423h-30z" transform="matrix(.122 0 0 .122 1708 915)"/><path d="M250 38.5H0v423h250 250v-423z" transform="matrix(.122 0 0 .122 1769 915)"/><path d="M288.5 38.5H116.95 77 59.5 30 0v423h30 29.5H77h39.95H288.5C405.301 461.5 500 366.8 500 250c0-116.809-94.699-211.5-211.5-211.5z" transform="matrix(.122 0 0 .122 1830 915)"/><path d="M250 38.5c116.813 0 211.5 94.693 211.5 211.5 0 116.813-94.687 211.5-211.5 211.5-116.807 0-211.5-94.687-211.5-211.5 0-116.807 94.693-211.5 211.5-211.5z" transform="matrix(.122 0 0 .122 1952 915)"/><path d="M250 38.5c116.813 0 211.5 94.693 211.5 211.5 0 116.813-94.687 211.5-211.5 211.5-116.807 0-211.5-94.687-211.5-211.5 0-116.807 94.693-211.5 211.5-211.5z" transform="matrix(.122 0 0 .122 61 976)"/><path d="M470 38.5h-47-66.5-17.63H211.5C94.65 38.5 0 133.222 0 250c0 116.765 94.65 211.5 211.5 211.5h127.37 17.63H423h47 30v-423h-30z" transform="matrix(.122 0 0 .122 366 976)"/><path d="M250 38.5H0v423h250 250v-423z" transform="matrix(.122 0 0 .122 427 976)"/><path d="M288.5 38.5H116.95 77 59.5 30 0v423h30 29.5H77h39.95H288.5C405.301 461.5 500 366.8 500 250c0-116.809-94.699-211.5-211.5-211.5z" transform="matrix(.122 0 0 .122 488 976)"/><path d="M250 38.5c116.813 0 211.5 94.693 211.5 211.5 0 116.813-94.687 211.5-211.5 211.5-116.807 0-211.5-94.687-211.5-211.5 0-116.807 94.693-211.5 211.5-211.5z" transform="matrix(.122 0 0 .122 610 976)"/><path d="M250 38.5c116.813 0 211.5 94.693 211.5 211.5 0 116.813-94.687 211.5-211.5 211.5-116.807 0-211.5-94.687-211.5-211.5 0-116.807 94.693-211.5 211.5-211.5z" transform="matrix(.122 0 0 .122 793 976)"/><path d="M250 38.5c116.813 0 211.5 94.693 211.5 211.5 0 116.813-94.687 211.5-211.5 211.5-116.807 0-211.5-94.687-211.5-211.5 0-116.807 94.693-211.5 211.5-211.5z" transform="matrix(.122 0 0 .122 1037 976)"/><path d="M250 38.5c116.813 0 211.5 94.693 211.5 211.5 0 116.813-94.687 211.5-211.5 211.5-116.807 0-211.5-94.687-211.5-211.5 0-116.807 94.693-211.5 211.5-211.5z" transform="matrix(.122 0 0 .122 1159 976)"/><path d="M250 38.5c116.813 0 211.5 94.693 211.5 211.5 0 116.813-94.687 211.5-211.5 211.5-116.807 0-211.5-94.687-211.5-211.5 0-116.807 94.693-211.5 211.5-211.5z" transform="matrix(.122 0 0 .122 1342 976)"/><path d="M470 38.5h-47-66.5-17.63H211.5C94.65 38.5 0 133.222 0 250c0 116.765 94.65 211.5 211.5 211.5h127.37 17.63H423h47 30v-423h-30z" transform="matrix(.122 0 0 .122 1464 976)"/><path d="M288.5 38.5H116.95 77 59.5 30 0v423h30 29.5H77h39.95H288.5C405.301 461.5 500 366.8 500 250c0-116.809-94.699-211.5-211.5-211.5z" transform="matrix(.122 0 0 .122 1525 976)"/><path d="M470 38.5h-47-66.5-17.63H211.5C94.65 38.5 0 133.222 0 250c0 116.765 94.65 211.5 211.5 211.5h127.37 17.63H423h47 30v-423h-30z" transform="matrix(.122 0 0 .122 1647 976)"/><path d="M288.5 38.5H116.95 77 59.5 30 0v423h30 29.5H77h39.95H288.5C405.301 461.5 500 366.8 500 250c0-116.809-94.699-211.5-211.5-211.5z" transform="matrix(.122 0 0 .122 1708 976)"/><path d="M250 38.5c116.813 0 211.5 94.693 211.5 211.5 0 116.813-94.687 211.5-211.5 211.5-116.807 0-211.5-94.687-211.5-211.5 0-116.807 94.693-211.5 211.5-211.5z" transform="matrix(.122 0 0 .122 1952 976)"/><path d="M470 38.5h-47-66.5-17.63H211.5C94.65 38.5 0 133.222 0 250c0 116.765 94.65 211.5 211.5 211.5h127.37 17.63H423h47 30v-423h-30z" transform="matrix(.122 0 0 .122 183 1037)"/><path d="M250 38.5H0v423h250 250v-423z" transform="matrix(.122 0 0 .122 244 1037)"/><path d="M288.5 38.5H116.95 77 59.5 30 0v423h30 29.5H77h39.95H288.5C405.301 461.5 500 366.8 500 250c0-116.809-94.699-211.5-211.5-211.5z" transform="matrix(.122 0 0 .122 305 1037)"/><path d="M470 38.5h-47-66.5-17.63H211.5C94.65 38.5 0 133.222 0 250c0 116.765 94.65 211.5 211.5 211.5h127.37 17.63H423h47 30v-423h-30z" transform="matrix(.122 0 0 .122 427 1037)"/><path d="M250 38.5H0v423h250 250v-423z" transform="matrix(.122 0 0 .122 488 1037)"/><path d="M288.5 38.5H116.95 77 59.5 30 0v423h30 29.5H77h39.95H288.5C405.301 461.5 500 366.8 500 250c0-116.809-94.699-211.5-211.5-211.5z" transform="matrix(.122 0 0 .122 549 1037)"/><path d="M250 38.5c116.813 0 211.5 94.693 211.5 211.5 0 116.813-94.687 211.5-211.5 211.5-116.807 0-211.5-94.687-211.5-211.5 0-116.807 94.693-211.5 211.5-211.5z" transform="matrix(.122 0 0 .122 671 1037)"/><path d="M470 38.5h-47-66.5-17.63H211.5C94.65 38.5 0 133.222 0 250c0 116.765 94.65 211.5 211.5 211.5h127.37 17.63H423h47 30v-423h-30z" transform="matrix(.122 0 0 .122 915 1037)"/><path d="M250 38.5H0v423h250 250v-423z" transform="matrix(.122 0 0 .122 976 1037)"/><path d="M288.5 38.5H116.95 77 59.5 30 0v423h30 29.5H77h39.95H288.5C405.301 461.5 500 366.8 500 250c0-116.809-94.699-211.5-211.5-211.5z" transform="matrix(.122 0 0 .122 1037 1037)"/><path d="M470 38.5h-47-66.5-17.63H211.5C94.65 38.5 0 133.222 0 250c0 116.765 94.65 211.5 211.5 211.5h127.37 17.63H423h47 30v-423h-30z" transform="matrix(.122 0 0 .122 1159 1037)"/><path d="M288.5 38.5H116.95 77 59.5 30 0v423h30 29.5H77h39.95H288.5C405.301 461.5 500 366.8 500 250c0-116.809-94.699-211.5-211.5-211.5z" transform="matrix(.122 0 0 .122 1220 1037)"/><path d="M470 38.5h-47-66.5-17.63H211.5C94.65 38.5 0 133.222 0 250c0 116.765 94.65 211.5 211.5 211.5h127.37 17.63H423h47 30v-423h-30z" transform="matrix(.122 0 0 .122 1403 1037)"/><path d="M250 38.5H0v423h250 250v-423z" transform="matrix(.122 0 0 .122 1464 1037)"/><path d="M250 38.5H0v423h250 250v-423z" transform="matrix(.122 0 0 .122 1525 1037)"/><path d="M288.5 38.5H116.95 77 59.5 30 0v423h30 29.5H77h39.95H288.5C405.301 461.5 500 366.8 500 250c0-116.809-94.699-211.5-211.5-211.5z" transform="matrix(.122 0 0 .122 1586 1037)"/><path d="M470 38.5h-47-66.5-17.63H211.5C94.65 38.5 0 133.222 0 250c0 116.765 94.65 211.5 211.5 211.5h127.37 17.63H423h47 30v-423h-30z" transform="matrix(.122 0 0 .122 1769 1037)"/><path d="M288.5 38.5H116.95 77 59.5 30 0v423h30 29.5H77h39.95H288.5C405.301 461.5 500 366.8 500 250c0-116.809-94.699-211.5-211.5-211.5z" transform="matrix(.122 0 0 .122 1830 1037)"/><path d="M250 38.5c116.813 0 211.5 94.693 211.5 211.5 0 116.813-94.687 211.5-211.5 211.5-116.807 0-211.5-94.687-211.5-211.5 0-116.807 94.693-211.5 211.5-211.5z" transform="matrix(.122 0 0 .122 1952 1037)"/><path d="M470 38.5h-47-66.5-17.63H211.5C94.65 38.5 0 133.222 0 250c0 116.765 94.65 211.5 211.5 211.5h127.37 17.63H423h47 30v-423h-30z" transform="matrix(.122 0 0 .122 61 1098)"/><path d="M250 38.5H0v423h250 250v-423z" transform="matrix(.122 0 0 .122 122 1098)"/><path d="M250 38.5H0v423h250 250v-423z" transform="matrix(.122 0 0 .122 183 1098)"/><path d="M288.5 38.5H116.95 77 59.5 30 0v423h30 29.5H77h39.95H288.5C405.301 461.5 500 366.8 500 250c0-116.809-94.699-211.5-211.5-211.5z" transform="matrix(.122 0 0 .122 244 1098)"/><path d="M250 38.5c116.813 0 211.5 94.693 211.5 211.5 0 116.813-94.687 211.5-211.5 211.5-116.807 0-211.5-94.687-211.5-211.5 0-116.807 94.693-211.5 211.5-211.5z" transform="matrix(.122 0 0 .122 366 1098)"/><path d="M250 38.5c116.813 0 211.5 94.693 211.5 211.5 0 116.813-94.687 211.5-211.5 211.5-116.807 0-211.5-94.687-211.5-211.5 0-116.807 94.693-211.5 211.5-211.5z" transform="matrix(.122 0 0 .122 610 1098)"/><path d="M250 38.5c116.813 0 211.5 94.693 211.5 211.5 0 116.813-94.687 211.5-211.5 211.5-116.807 0-211.5-94.687-211.5-211.5 0-116.807 94.693-211.5 211.5-211.5z" transform="matrix(.122 0 0 .122 793 1098)"/><path d="M250 38.5c116.813 0 211.5 94.693 211.5 211.5 0 116.813-94.687 211.5-211.5 211.5-116.807 0-211.5-94.687-211.5-211.5 0-116.807 94.693-211.5 211.5-211.5z" transform="matrix(.122 0 0 .122 915 1098)"/><path d="M470 38.5h-47-66.5-17.63H211.5C94.65 38.5 0 133.222 0 250c0 116.765 94.65 211.5 211.5 211.5h127.37 17.63H423h47 30v-423h-30z" transform="matrix(.122 0 0 .122 1159 1098)"/><path d="M250 38.5H0v423h250 250v-423z" transform="matrix(.122 0 0 .122 1220 1098)"/><path d="M250 38.5H0v423h250 250v-423z" transform="matrix(.122 0 0 .122 1281 1098)"/><path d="M250 38.5H0v423h250 250v-423z" transform="matrix(.122 0 0 .122 1342 1098)"/><path d="M288.5 38.5H116.95 77 59.5 30 0v423h30 29.5H77h39.95H288.5C405.301 461.5 500 366.8 500 250c0-116.809-94.699-211.5-211.5-211.5z" transform="matrix(.122 0 0 .122 1403 1098)"/><path d="M250 38.5c116.813 0 211.5 94.693 211.5 211.5 0 116.813-94.687 211.5-211.5 211.5-116.807 0-211.5-94.687-211.5-211.5 0-116.807 94.693-211.5 211.5-211.5z" transform="matrix(.122 0 0 .122 1647 1098)"/><path d="M470 38.5h-47-66.5-17.63H211.5C94.65 38.5 0 133.222 0 250c0 116.765 94.65 211.5 211.5 211.5h127.37 17.63H423h47 30v-423h-30z" transform="matrix(.122 0 0 .122 1769 1098)"/><path d="M288.5 38.5H116.95 77 59.5 30 0v423h30 29.5H77h39.95H288.5C405.301 461.5 500 366.8 500 250c0-116.809-94.699-211.5-211.5-211.5z" transform="matrix(.122 0 0 .122 1830 1098)"/><path d="M250 38.5c116.813 0 211.5 94.693 211.5 211.5 0 116.813-94.687 211.5-211.5 211.5-116.807 0-211.5-94.687-211.5-211.5 0-116.807 94.693-211.5 211.5-211.5z" transform="matrix(.122 0 0 .122 1952 1098)"/><path d="M250 38.5c116.813 0 211.5 94.693 211.5 211.5 0 116.813-94.687 211.5-211.5 211.5-116.807 0-211.5-94.687-211.5-211.5 0-116.807 94.693-211.5 211.5-211.5z" transform="matrix(.122 0 0 .122 305 1159)"/><path d="M250 38.5c116.813 0 211.5 94.693 211.5 211.5 0 116.813-94.687 211.5-211.5 211.5-116.807 0-211.5-94.687-211.5-211.5 0-116.807 94.693-211.5 211.5-211.5z" transform="matrix(.122 0 0 .122 610 1159)"/><path d="M250 38.5c116.813 0 211.5 94.693 211.5 211.5 0 116.813-94.687 211.5-211.5 211.5-116.807 0-211.5-94.687-211.5-211.5 0-116.807 94.693-211.5 211.5-211.5z" transform="matrix(.122 0 0 .122 793 1159)"/><path d="M470 38.5h-47-66.5-17.63H211.5C94.65 38.5 0 133.222 0 250c0 116.765 94.65 211.5 211.5 211.5h127.37 17.63H423h47 30v-423h-30z" transform="matrix(.122 0 0 .122 915 1159)"/><path d="M250 38.5H0v423h250 250v-423z" transform="matrix(.122 0 0 .122 976 1159)"/><path d="M250 38.5H0v423h250 250v-423z" transform="matrix(.122 0 0 .122 1037 1159)"/><path d="M250 38.5H0v423h250 250v-423z" transform="matrix(.122 0 0 .122 1098 1159)"/><path d="M288.5 38.5H116.95 77 59.5 30 0v423h30 29.5H77h39.95H288.5C405.301 461.5 500 366.8 500 250c0-116.809-94.699-211.5-211.5-211.5z" transform="matrix(.122 0 0 .122 1159 1159)"/><path d="M470 38.5h-47-66.5-17.63H211.5C94.65 38.5 0 133.222 0 250c0 116.765 94.65 211.5 211.5 211.5h127.37 17.63H423h47 30v-423h-30z" transform="matrix(.122 0 0 .122 1342 1159)"/><path d="M288.5 38.5H116.95 77 59.5 30 0v423h30 29.5H77h39.95H288.5C405.301 461.5 500 366.8 500 250c0-116.809-94.699-211.5-211.5-211.5z" transform="matrix(.122 0 0 .122 1403 1159)"/><path d="M470 38.5h-47-66.5-17.63H211.5C94.65 38.5 0 133.222 0 250c0 116.765 94.65 211.5 211.5 211.5h127.37 17.63H423h47 30v-423h-30z" transform="matrix(.122 0 0 .122 1525 1159)"/><path d="M288.5 38.5H116.95 77 59.5 30 0v423h30 29.5H77h39.95H288.5C405.301 461.5 500 366.8 500 250c0-116.809-94.699-211.5-211.5-211.5z" transform="matrix(.122 0 0 .122 1586 1159)"/><path d="M470 38.5h-47-66.5-17.63H211.5C94.65 38.5 0 133.222 0 250c0 116.765 94.65 211.5 211.5 211.5h127.37 17.63H423h47 30v-423h-30z" transform="matrix(.122 0 0 .122 1708 1159)"/><path d="M250 38.5H0v423h250 250v-423z" transform="matrix(.122 0 0 .122 1769 1159)"/><path d="M288.5 38.5H116.95 77 59.5 30 0v423h30 29.5H77h39.95H288.5C405.301 461.5 500 366.8 500 250c0-116.809-94.699-211.5-211.5-211.5z" transform="matrix(.122 0 0 .122 1830 1159)"/><path d="M250 38.5c116.813 0 211.5 94.693 211.5 211.5 0 116.813-94.687 211.5-211.5 211.5-116.807 0-211.5-94.687-211.5-211.5 0-116.807 94.693-211.5 211.5-211.5z" transform="matrix(.122 0 0 .122 1952 1159)"/><path d="M470 38.5h-47-66.5-17.63H211.5C94.65 38.5 0 133.222 0 250c0 116.765 94.65 211.5 211.5 211.5h127.37 17.63H423h47 30v-423h-30z" transform="matrix(.122 0 0 .122 61 1220)"/><path d="M288.5 38.5H116.95 77 59.5 30 0v423h30 29.5H77h39.95H288.5C405.301 461.5 500 366.8 500 250c0-116.809-94.699-211.5-211.5-211.5z" transform="matrix(.122 0 0 .122 122 1220)"/><path d="M470 38.5h-47-66.5-17.63H211.5C94.65 38.5 0 133.222 0 250c0 116.765 94.65 211.5 211.5 211.5h127.37 17.63H423h47 30v-423h-30z" transform="matrix(.122 0 0 .122 366 1220)"/><path d="M250 38.5H0v423h250 250v-423z" transform="matrix(.122 0 0 .122 427 1220)"/><path d="M250 38.5H0v423h250 250v-423z" transform="matrix(.122 0 0 .122 488 1220)"/><path d="M288.5 38.5H116.95 77 59.5 30 0v423h30 29.5H77h39.95H288.5C405.301 461.5 500 366.8 500 250c0-116.809-94.699-211.5-211.5-211.5z" transform="matrix(.122 0 0 .122 549 1220)"/><path d="M250 38.5c116.813 0 211.5 94.693 211.5 211.5 0 116.813-94.687 211.5-211.5 211.5-116.807 0-211.5-94.687-211.5-211.5 0-116.807 94.693-211.5 211.5-211.5z" transform="matrix(.122 0 0 .122 671 1220)"/><path d="M470 38.5h-47-66.5-17.63H211.5C94.65 38.5 0 133.222 0 250c0 116.765 94.65 211.5 211.5 211.5h127.37 17.63H423h47 30v-423h-30z" transform="matrix(.122 0 0 .122 793 1220)"/><path d="M288.5 38.5H116.95 77 59.5 30 0v423h30 29.5H77h39.95H288.5C405.301 461.5 500 366.8 500 250c0-116.809-94.699-211.5-211.5-211.5z" transform="matrix(.122 0 0 .122 854 1220)"/><path d="M250 38.5c116.813 0 211.5 94.693 211.5 211.5 0 116.813-94.687 211.5-211.5 211.5-116.807 0-211.5-94.687-211.5-211.5 0-116.807 94.693-211.5 211.5-211.5z" transform="matrix(.122 0 0 .122 976 1220)"/><path d="M250 38.5c116.813 0 211.5 94.693 211.5 211.5 0 116.813-94.687 211.5-211.5 211.5-116.807 0-211.5-94.687-211.5-211.5 0-116.807 94.693-211.5 211.5-211.5z" transform="matrix(.122 0 0 .122 1342 1220)"/><path d="M250 38.5c116.813 0 211.5 94.693 211.5 211.5 0 116.813-94.687 211.5-211.5 211.5-116.807 0-211.5-94.687-211.5-211.5 0-116.807 94.693-211.5 211.5-211.5z" transform="matrix(.122 0 0 .122 1525 1220)"/><path d="M470 38.5h-47-66.5-17.63H211.5C94.65 38.5 0 133.222 0 250c0 116.765 94.65 211.5 211.5 211.5h127.37 17.63H423h47 30v-423h-30z" transform="matrix(.122 0 0 .122 1708 1220)"/><path d="M288.5 38.5H116.95 77 59.5 30 0v423h30 29.5H77h39.95H288.5C405.301 461.5 500 366.8 500 250c0-116.809-94.699-211.5-211.5-211.5z" transform="matrix(.122 0 0 .122 1769 1220)"/><path d="M470 38.5h-47-66.5-17.63H211.5C94.65 38.5 0 133.222 0 250c0 116.765 94.65 211.5 211.5 211.5h127.37 17.63H423h47 30v-423h-30z" transform="matrix(.122 0 0 .122 0 1281)"/><path d="M288.5 38.5H116.95 77 59.5 30 0v423h30 29.5H77h39.95H288.5C405.301 461.5 500 366.8 500 250c0-116.809-94.699-211.5-211.5-211.5z" transform="matrix(.122 0 0 .122 61 1281)"/><path d="M250 38.5c116.813 0 211.5 94.693 211.5 211.5 0 116.813-94.687 211.5-211.5 211.5-116.807 0-211.5-94.687-211.5-211.5 0-116.807 94.693-211.5 211.5-211.5z" transform="matrix(.122 0 0 .122 183 1281)"/><path d="M250 38.5c116.813 0 211.5 94.693 211.5 211.5 0 116.813-94.687 211.5-211.5 211.5-116.807 0-211.5-94.687-211.5-211.5 0-116.807 94.693-211.5 211.5-211.5z" transform="matrix(.122 0 0 .122 305 1281)"/><path d="M250 38.5c116.813 0 211.5 94.693 211.5 211.5 0 116.813-94.687 211.5-211.5 211.5-116.807 0-211.5-94.687-211.5-211.5 0-116.807 94.693-211.5 211.5-211.5z" transform="matrix(.122 0 0 .122 488 1281)"/><path d="M470 38.5h-47-66.5-17.63H211.5C94.65 38.5 0 133.222 0 250c0 116.765 94.65 211.5 211.5 211.5h127.37 17.63H423h47 30v-423h-30z" transform="matrix(.122 0 0 .122 671 1281)"/><path d="M250 38.5H0v423h250 250v-423z" transform="matrix(.122 0 0 .122 732 1281)"/><path d="M250 38.5H0v423h250 250v-423z" transform="matrix(.122 0 0 .122 793 1281)"/><path d="M288.5 38.5H116.95 77 59.5 30 0v423h30 29.5H77h39.95H288.5C405.301 461.5 500 366.8 500 250c0-116.809-94.699-211.5-211.5-211.5z" transform="matrix(.122 0 0 .122 854 1281)"/><path d="M250 38.5c116.813 0 211.5 94.693 211.5 211.5 0 116.813-94.687 211.5-211.5 211.5-116.807 0-211.5-94.687-211.5-211.5 0-116.807 94.693-211.5 211.5-211.5z" transform="matrix(.122 0 0 .122 976 1281)"/><path d="M470 38.5h-47-66.5-17.63H211.5C94.65 38.5 0 133.222 0 250c0 116.765 94.65 211.5 211.5 211.5h127.37 17.63H423h47 30v-423h-30z" transform="matrix(.122 0 0 .122 1098 1281)"/><path d="M288.5 38.5H116.95 77 59.5 30 0v423h30 29.5H77h39.95H288.5C405.301 461.5 500 366.8 500 250c0-116.809-94.699-211.5-211.5-211.5z" transform="matrix(.122 0 0 .122 1159 1281)"/><path d="M470 38.5h-47-66.5-17.63H211.5C94.65 38.5 0 133.222 0 250c0 116.765 94.65 211.5 211.5 211.5h127.37 17.63H423h47 30v-423h-30z" transform="matrix(.122 0 0 .122 1342 1281)"/><path d="M288.5 38.5H116.95 77 59.5 30 0v423h30 29.5H77h39.95H288.5C405.301 461.5 500 366.8 500 250c0-116.809-94.699-211.5-211.5-211.5z" transform="matrix(.122 0 0 .122 1403 1281)"/><path d="M470 38.5h-47-66.5-17.63H211.5C94.65 38.5 0 133.222 0 250c0 116.765 94.65 211.5 211.5 211.5h127.37 17.63H423h47 30v-423h-30z" transform="matrix(.122 0 0 .122 1647 1281)"/><path d="M250 38.5H0v423h250 250v-423z" transform="matrix(.122 0 0 .122 1708 1281)"/><path d="M250 38.5H0v423h250 250v-423z" transform="matrix(.122 0 0 .122 1769 1281)"/><path d="M288.5 38.5H116.95 77 59.5 30 0v423h30 29.5H77h39.95H288.5C405.301 461.5 500 366.8 500 250c0-116.809-94.699-211.5-211.5-211.5z" transform="matrix(.122 0 0 .122 1830 1281)"/><path d="M250 38.5c116.813 0 211.5 94.693 211.5 211.5 0 116.813-94.687 211.5-211.5 211.5-116.807 0-211.5-94.687-211.5-211.5 0-116.807 94.693-211.5 211.5-211.5z" transform="matrix(.122 0 0 .122 0 1342)"/><path d="M250 38.5c116.813 0 211.5 94.693 211.5 211.5 0 116.813-94.687 211.5-211.5 211.5-116.807 0-211.5-94.687-211.5-211.5 0-116.807 94.693-211.5 211.5-211.5z" transform="matrix(.122 0 0 .122 183 1342)"/><path d="M250 38.5c116.813 0 211.5 94.693 211.5 211.5 0 116.813-94.687 211.5-211.5 211.5-116.807 0-211.5-94.687-211.5-211.5 0-116.807 94.693-211.5 211.5-211.5z" transform="matrix(.122 0 0 .122 366 1342)"/><path d="M470 38.5h-47-66.5-17.63H211.5C94.65 38.5 0 133.222 0 250c0 116.765 94.65 211.5 211.5 211.5h127.37 17.63H423h47 30v-423h-30z" transform="matrix(.122 0 0 .122 488 1342)"/><path d="M288.5 38.5H116.95 77 59.5 30 0v423h30 29.5H77h39.95H288.5C405.301 461.5 500 366.8 500 250c0-116.809-94.699-211.5-211.5-211.5z" transform="matrix(.122 0 0 .122 549 1342)"/><path d="M470 38.5h-47-66.5-17.63H211.5C94.65 38.5 0 133.222 0 250c0 116.765 94.65 211.5 211.5 211.5h127.37 17.63H423h47 30v-423h-30z" transform="matrix(.122 0 0 .122 671 1342)"/><path d="M288.5 38.5H116.95 77 59.5 30 0v423h30 29.5H77h39.95H288.5C405.301 461.5 500 366.8 500 250c0-116.809-94.699-211.5-211.5-211.5z" transform="matrix(.122 0 0 .122 732 1342)"/><path d="M470 38.5h-47-66.5-17.63H211.5C94.65 38.5 0 133.222 0 250c0 116.765 94.65 211.5 211.5 211.5h127.37 17.63H423h47 30v-423h-30z" transform="matrix(.122 0 0 .122 915 1342)"/><path d="M250 38.5H0v423h250 250v-423z" transform="matrix(.122 0 0 .122 976 1342)"/><path d="M250 38.5H0v423h250 250v-423z" transform="matrix(.122 0 0 .122 1037 1342)"/><path d="M288.5 38.5H116.95 77 59.5 30 0v423h30 29.5H77h39.95H288.5C405.301 461.5 500 366.8 500 250c0-116.809-94.699-211.5-211.5-211.5z" transform="matrix(.122 0 0 .122 1098 1342)"/><path d="M470 38.5h-47-66.5-17.63H211.5C94.65 38.5 0 133.222 0 250c0 116.765 94.65 211.5 211.5 211.5h127.37 17.63H423h47 30v-423h-30z" transform="matrix(.122 0 0 .122 1281 1342)"/><path d="M288.5 38.5H116.95 77 59.5 30 0v423h30 29.5H77h39.95H288.5C405.301 461.5 500 366.8 500 250c0-116.809-94.699-211.5-211.5-211.5z" transform="matrix(.122 0 0 .122 1342 1342)"/><path d="M250 38.5c116.813 0 211.5 94.693 211.5 211.5 0 116.813-94.687 211.5-211.5 211.5-116.807 0-211.5-94.687-211.5-211.5 0-116.807 94.693-211.5 211.5-211.5z" transform="matrix(.122 0 0 .122 1525 1342)"/><path d="M470 38.5h-47-66.5-17.63H211.5C94.65 38.5 0 133.222 0 250c0 116.765 94.65 211.5 211.5 211.5h127.37 17.63H423h47 30v-423h-30z" transform="matrix(.122 0 0 .122 1769 1342)"/><path d="M250 38.5H0v423h250 250v-423z" transform="matrix(.122 0 0 .122 1830 1342)"/><path d="M288.5 38.5H116.95 77 59.5 30 0v423h30 29.5H77h39.95H288.5C405.301 461.5 500 366.8 500 250c0-116.809-94.699-211.5-211.5-211.5z" transform="matrix(.122 0 0 .122 1891 1342)"/><path d="M250 38.5c116.813 0 211.5 94.693 211.5 211.5 0 116.813-94.687 211.5-211.5 211.5-116.807 0-211.5-94.687-211.5-211.5 0-116.807 94.693-211.5 211.5-211.5z" transform="matrix(.122 0 0 .122 0 1403)"/><path d="M470 38.5h-47-66.5-17.63H211.5C94.65 38.5 0 133.222 0 250c0 116.765 94.65 211.5 211.5 211.5h127.37 17.63H423h47 30v-423h-30z" transform="matrix(.122 0 0 .122 122 1403)"/><path d="M288.5 38.5H116.95 77 59.5 30 0v423h30 29.5H77h39.95H288.5C405.301 461.5 500 366.8 500 250c0-116.809-94.699-211.5-211.5-211.5z" transform="matrix(.122 0 0 .122 183 1403)"/><path d="M250 38.5c116.813 0 211.5 94.693 211.5 211.5 0 116.813-94.687 211.5-211.5 211.5-116.807 0-211.5-94.687-211.5-211.5 0-116.807 94.693-211.5 211.5-211.5z" transform="matrix(.122 0 0 .122 488 1403)"/><path d="M250 38.5c116.813 0 211.5 94.693 211.5 211.5 0 116.813-94.687 211.5-211.5 211.5-116.807 0-211.5-94.687-211.5-211.5 0-116.807 94.693-211.5 211.5-211.5z" transform="matrix(.122 0 0 .122 610 1403)"/><path d="M470 38.5h-47-66.5-17.63H211.5C94.65 38.5 0 133.222 0 250c0 116.765 94.65 211.5 211.5 211.5h127.37 17.63H423h47 30v-423h-30z" transform="matrix(.122 0 0 .122 732 1403)"/><path d="M250 38.5H0v423h250 250v-423z" transform="matrix(.122 0 0 .122 793 1403)"/><path d="M288.5 38.5H116.95 77 59.5 30 0v423h30 29.5H77h39.95H288.5C405.301 461.5 500 366.8 500 250c0-116.809-94.699-211.5-211.5-211.5z" transform="matrix(.122 0 0 .122 854 1403)"/><path d="M250 38.5c116.813 0 211.5 94.693 211.5 211.5 0 116.813-94.687 211.5-211.5 211.5-116.807 0-211.5-94.687-211.5-211.5 0-116.807 94.693-211.5 211.5-211.5z" transform="matrix(.122 0 0 .122 1098 1403)"/><path d="M470 38.5h-47-66.5-17.63H211.5C94.65 38.5 0 133.222 0 250c0 116.765 94.65 211.5 211.5 211.5h127.37 17.63H423h47 30v-423h-30z" transform="matrix(.122 0 0 .122 1342 1403)"/><path d="M288.5 38.5H116.95 77 59.5 30 0v423h30 29.5H77h39.95H288.5C405.301 461.5 500 366.8 500 250c0-116.809-94.699-211.5-211.5-211.5z" transform="matrix(.122 0 0 .122 1403 1403)"/><path d="M470 38.5h-47-66.5-17.63H211.5C94.65 38.5 0 133.222 0 250c0 116.765 94.65 211.5 211.5 211.5h127.37 17.63H423h47 30v-423h-30z" transform="matrix(.122 0 0 .122 1525 1403)"/><path d="M288.5 38.5H116.95 77 59.5 30 0v423h30 29.5H77h39.95H288.5C405.301 461.5 500 366.8 500 250c0-116.809-94.699-211.5-211.5-211.5z" transform="matrix(.122 0 0 .122 1586 1403)"/><path d="M470 38.5h-47-66.5-17.63H211.5C94.65 38.5 0 133.222 0 250c0 116.765 94.65 211.5 211.5 211.5h127.37 17.63H423h47 30v-423h-30z" transform="matrix(.122 0 0 .122 1769 1403)"/><path d="M288.5 38.5H116.95 77 59.5 30 0v423h30 29.5H77h39.95H288.5C405.301 461.5 500 366.8 500 250c0-116.809-94.699-211.5-211.5-211.5z" transform="matrix(.122 0 0 .122 1830 1403)"/><path d="M470 38.5h-47-66.5-17.63H211.5C94.65 38.5 0 133.222 0 250c0 116.765 94.65 211.5 211.5 211.5h127.37 17.63H423h47 30v-423h-30z" transform="matrix(.122 0 0 .122 0 1464)"/><path d="M250 38.5H0v423h250 250v-423z" transform="matrix(.122 0 0 .122 61 1464)"/><path d="M288.5 38.5H116.95 77 59.5 30 0v423h30 29.5H77h39.95H288.5C405.301 461.5 500 366.8 500 250c0-116.809-94.699-211.5-211.5-211.5z" transform="matrix(.122 0 0 .122 122 1464)"/><path d="M470 38.5h-47-66.5-17.63H211.5C94.65 38.5 0 133.222 0 250c0 116.765 94.65 211.5 211.5 211.5h127.37 17.63H423h47 30v-423h-30z" transform="matrix(.122 0 0 .122 366 1464)"/><path d="M288.5 38.5H116.95 77 59.5 30 0v423h30 29.5H77h39.95H288.5C405.301 461.5 500 366.8 500 250c0-116.809-94.699-211.5-211.5-211.5z" transform="matrix(.122 0 0 .122 427 1464)"/><path d="M250 38.5c116.813 0 211.5 94.693 211.5 211.5 0 116.813-94.687 211.5-211.5 211.5-116.807 0-211.5-94.687-211.5-211.5 0-116.807 94.693-211.5 211.5-211.5z" transform="matrix(.122 0 0 .122 549 1464)"/><path d="M470 38.5h-47-66.5-17.63H211.5C94.65 38.5 0 133.222 0 250c0 116.765 94.65 211.5 211.5 211.5h127.37 17.63H423h47 30v-423h-30z" transform="matrix(.122 0 0 .122 671 1464)"/><path d="M250 38.5H0v423h250 250v-423z" transform="matrix(.122 0 0 .122 732 1464)"/><path d="M288.5 38.5H116.95 77 59.5 30 0v423h30 29.5H77h39.95H288.5C405.301 461.5 500 366.8 500 250c0-116.809-94.699-211.5-211.5-211.5z" transform="matrix(.122 0 0 .122 793 1464)"/><path d="M470 38.5h-47-66.5-17.63H211.5C94.65 38.5 0 133.222 0 250c0 116.765 94.65 211.5 211.5 211.5h127.37 17.63H423h47 30v-423h-30z" transform="matrix(.122 0 0 .122 915 1464)"/><path d="M288.5 38.5H116.95 77 59.5 30 0v423h30 29.5H77h39.95H288.5C405.301 461.5 500 366.8 500 250c0-116.809-94.699-211.5-211.5-211.5z" transform="matrix(.122 0 0 .122 976 1464)"/><path d="M470 38.5h-47-66.5-17.63H211.5C94.65 38.5 0 133.222 0 250c0 116.765 94.65 211.5 211.5 211.5h127.37 17.63H423h47 30v-423h-30z" transform="matrix(.122 0 0 .122 1098 1464)"/><path d="M288.5 38.5H116.95 77 59.5 30 0v423h30 29.5H77h39.95H288.5C405.301 461.5 500 366.8 500 250c0-116.809-94.699-211.5-211.5-211.5z" transform="matrix(.122 0 0 .122 1159 1464)"/><path d="M470 38.5h-47-66.5-17.63H211.5C94.65 38.5 0 133.222 0 250c0 116.765 94.65 211.5 211.5 211.5h127.37 17.63H423h47 30v-423h-30z" transform="matrix(.122 0 0 .122 1464 1464)"/><path d="M250 38.5H0v423h250 250v-423z" transform="matrix(.122 0 0 .122 1525 1464)"/><path d="M250 38.5H0v423h250 250v-423z" transform="matrix(.122 0 0 .122 1586 1464)"/><path d="M250 38.5H0v423h250 250v-423z" transform="matrix(.122 0 0 .122 1647 1464)"/><path d="M288.5 38.5H116.95 77 59.5 30 0v423h30 29.5H77h39.95H288.5C405.301 461.5 500 366.8 500 250c0-116.809-94.699-211.5-211.5-211.5z" transform="matrix(.122 0 0 .122 1708 1464)"/><path d="M250 38.5c116.813 0 211.5 94.693 211.5 211.5 0 116.813-94.687 211.5-211.5 211.5-116.807 0-211.5-94.687-211.5-211.5 0-116.807 94.693-211.5 211.5-211.5z" transform="matrix(.122 0 0 .122 1830 1464)"/><path d="M250 38.5c116.813 0 211.5 94.693 211.5 211.5 0 116.813-94.687 211.5-211.5 211.5-116.807 0-211.5-94.687-211.5-211.5 0-116.807 94.693-211.5 211.5-211.5z" transform="matrix(.122 0 0 .122 1952 1464)"/><path d="M470 38.5h-47-66.5-17.63H211.5C94.65 38.5 0 133.222 0 250c0 116.765 94.65 211.5 211.5 211.5h127.37 17.63H423h47 30v-423h-30z" transform="matrix(.122 0 0 .122 488 1525)"/><path d="M288.5 38.5H116.95 77 59.5 30 0v423h30 29.5H77h39.95H288.5C405.301 461.5 500 366.8 500 250c0-116.809-94.699-211.5-211.5-211.5z" transform="matrix(.122 0 0 .122 549 1525)"/><path d="M470 38.5h-47-66.5-17.63H211.5C94.65 38.5 0 133.222 0 250c0 116.765 94.65 211.5 211.5 211.5h127.37 17.63H423h47 30v-423h-30z" transform="matrix(.122 0 0 .122 732 1525)"/><path d="M288.5 38.5H116.95 77 59.5 30 0v423h30 29.5H77h39.95H288.5C405.301 461.5 500 366.8 500 250c0-116.809-94.699-211.5-211.5-211.5z" transform="matrix(.122 0 0 .122 793 1525)"/><path d="M470 38.5h-47-66.5-17.63H211.5C94.65 38.5 0 133.222 0 250c0 116.765 94.65 211.5 211.5 211.5h127.37 17.63H423h47 30v-423h-30z" transform="matrix(.122 0 0 .122 915 1525)"/><path d="M288.5 38.5H116.95 77 59.5 30 0v423h30 29.5H77h39.95H288.5C405.301 461.5 500 366.8 500 250c0-116.809-94.699-211.5-211.5-211.5z" transform="matrix(.122 0 0 .122 976 1525)"/><path d="M470 38.5h-47-66.5-17.63H211.5C94.65 38.5 0 133.222 0 250c0 116.765 94.65 211.5 211.5 211.5h127.37 17.63H423h47 30v-423h-30z" transform="matrix(.122 0 0 .122 1098 1525)"/><path d="M250 38.5H0v423h250 250v-423z" transform="matrix(.122 0 0 .122 1159 1525)"/><path d="M288.5 38.5H116.95 77 59.5 30 0v423h30 29.5H77h39.95H288.5C405.301 461.5 500 366.8 500 250c0-116.809-94.699-211.5-211.5-211.5z" transform="matrix(.122 0 0 .122 1220 1525)"/><path d="M470 38.5h-47-66.5-17.63H211.5C94.65 38.5 0 133.222 0 250c0 116.765 94.65 211.5 211.5 211.5h127.37 17.63H423h47 30v-423h-30z" transform="matrix(.122 0 0 .122 1342 1525)"/><path d="M250 38.5H0v423h250 250v-423z" transform="matrix(.122 0 0 .122 1403 1525)"/><path d="M288.5 38.5H116.95 77 59.5 30 0v423h30 29.5H77h39.95H288.5C405.301 461.5 500 366.8 500 250c0-116.809-94.699-211.5-211.5-211.5z" transform="matrix(.122 0 0 .122 1464 1525)"/><path d="M250 38.5c116.813 0 211.5 94.693 211.5 211.5 0 116.813-94.687 211.5-211.5 211.5-116.807 0-211.5-94.687-211.5-211.5 0-116.807 94.693-211.5 211.5-211.5z" transform="matrix(.122 0 0 .122 1708 1525)"/><path d="M250 38.5c116.813 0 211.5 94.693 211.5 211.5 0 116.813-94.687 211.5-211.5 211.5-116.807 0-211.5-94.687-211.5-211.5 0-116.807 94.693-211.5 211.5-211.5z" transform="matrix(.122 0 0 .122 1830 1525)"/><path d="M250 38.5c116.813 0 211.5 94.693 211.5 211.5 0 116.813-94.687 211.5-211.5 211.5-116.807 0-211.5-94.687-211.5-211.5 0-116.807 94.693-211.5 211.5-211.5z" transform="matrix(.122 0 0 .122 1952 1525)"/><path d="M250 38.5c116.813 0 211.5 94.693 211.5 211.5 0 116.813-94.687 211.5-211.5 211.5-116.807 0-211.5-94.687-211.5-211.5 0-116.807 94.693-211.5 211.5-211.5z" transform="matrix(.122 0 0 .122 671 1586)"/><path d="M470 38.5h-47-66.5-17.63H211.5C94.65 38.5 0 133.222 0 250c0 116.765 94.65 211.5 211.5 211.5h127.37 17.63H423h47 30v-423h-30z" transform="matrix(.122 0 0 .122 854 1586)"/><path d="M250 38.5H0v423h250 250v-423z" transform="matrix(.122 0 0 .122 915 1586)"/><path d="M288.5 38.5H116.95 77 59.5 30 0v423h30 29.5H77h39.95H288.5C405.301 461.5 500 366.8 500 250c0-116.809-94.699-211.5-211.5-211.5z" transform="matrix(.122 0 0 .122 976 1586)"/><path d="M250 38.5c116.813 0 211.5 94.693 211.5 211.5 0 116.813-94.687 211.5-211.5 211.5-116.807 0-211.5-94.687-211.5-211.5 0-116.807 94.693-211.5 211.5-211.5z" transform="matrix(.122 0 0 .122 1098 1586)"/><path d="M470 38.5h-47-66.5-17.63H211.5C94.65 38.5 0 133.222 0 250c0 116.765 94.65 211.5 211.5 211.5h127.37 17.63H423h47 30v-423h-30z" transform="matrix(.122 0 0 .122 1281 1586)"/><path d="M250 38.5H0v423h250 250v-423z" transform="matrix(.122 0 0 .122 1342 1586)"/><path d="M250 38.5H0v423h250 250v-423z" transform="matrix(.122 0 0 .122 1403 1586)"/><path d="M288.5 38.5H116.95 77 59.5 30 0v423h30 29.5H77h39.95H288.5C405.301 461.5 500 366.8 500 250c0-116.809-94.699-211.5-211.5-211.5z" transform="matrix(.122 0 0 .122 1464 1586)"/><path d="M250 38.5c116.813 0 211.5 94.693 211.5 211.5 0 116.813-94.687 211.5-211.5 211.5-116.807 0-211.5-94.687-211.5-211.5 0-116.807 94.693-211.5 211.5-211.5z" transform="matrix(.122 0 0 .122 1586 1586)"/><path d="M250 38.5c116.813 0 211.5 94.693 211.5 211.5 0 116.813-94.687 211.5-211.5 211.5-116.807 0-211.5-94.687-211.5-211.5 0-116.807 94.693-211.5 211.5-211.5z" transform="matrix(.122 0 0 .122 1708 1586)"/><path d="M470 38.5h-47-66.5-17.63H211.5C94.65 38.5 0 133.222 0 250c0 116.765 94.65 211.5 211.5 211.5h127.37 17.63H423h47 30v-423h-30z" transform="matrix(.122 0 0 .122 1830 1586)"/><path d="M288.5 38.5H116.95 77 59.5 30 0v423h30 29.5H77h39.95H288.5C405.301 461.5 500 366.8 500 250c0-116.809-94.699-211.5-211.5-211.5z" transform="matrix(.122 0 0 .122 1891 1586)"/><path d="M470 38.5h-47-66.5-17.63H211.5C94.65 38.5 0 133.222 0 250c0 116.765 94.65 211.5 211.5 211.5h127.37 17.63H423h47 30v-423h-30z" transform="matrix(.122 0 0 .122 854 1647)"/><path d="M250 38.5H0v423h250 250v-423z" transform="matrix(.122 0 0 .122 915 1647)"/><path d="M288.5 38.5H116.95 77 59.5 30 0v423h30 29.5H77h39.95H288.5C405.301 461.5 500 366.8 500 250c0-116.809-94.699-211.5-211.5-211.5z" transform="matrix(.122 0 0 .122 976 1647)"/><path d="M470 38.5h-47-66.5-17.63H211.5C94.65 38.5 0 133.222 0 250c0 116.765 94.65 211.5 211.5 211.5h127.37 17.63H423h47 30v-423h-30z" transform="matrix(.122 0 0 .122 1342 1647)"/><path d="M250 38.5H0v423h250 250v-423z" transform="matrix(.122 0 0 .122 1403 1647)"/><path d="M288.5 38.5H116.95 77 59.5 30 0v423h30 29.5H77h39.95H288.5C405.301 461.5 500 366.8 500 250c0-116.809-94.699-211.5-211.5-211.5z" transform="matrix(.122 0 0 .122 1464 1647)"/><path d="M470 38.5h-47-66.5-17.63H211.5C94.65 38.5 0 133.222 0 250c0 116.765 94.65 211.5 211.5 211.5h127.37 17.63H423h47 30v-423h-30z" transform="matrix(.122 0 0 .122 1708 1647)"/><path d="M250 38.5H0v423h250 250v-423z" transform="matrix(.122 0 0 .122 1769 1647)"/><path d="M250 38.5H0v423h250 250v-423z" transform="matrix(.122 0 0 .122 1830 1647)"/><path d="M288.5 38.5H116.95 77 59.5 30 0v423h30 29.5H77h39.95H288.5C405.301 461.5 500 366.8 500 250c0-116.809-94.699-211.5-211.5-211.5z" transform="matrix(.122 0 0 .122 1891 1647)"/><path d="M250 38.5c116.813 0 211.5 94.693 211.5 211.5 0 116.813-94.687 211.5-211.5 211.5-116.807 0-211.5-94.687-211.5-211.5 0-116.807 94.693-211.5 211.5-211.5z" transform="matrix(.122 0 0 .122 610 1708)"/><path d="M470 38.5h-47-66.5-17.63H211.5C94.65 38.5 0 133.222 0 250c0 116.765 94.65 211.5 211.5 211.5h127.37 17.63H423h47 30v-423h-30z" transform="matrix(.122 0 0 .122 854 1708)"/><path d="M288.5 38.5H116.95 77 59.5 30 0v423h30 29.5H77h39.95H288.5C405.301 461.5 500 366.8 500 250c0-116.809-94.699-211.5-211.5-211.5z" transform="matrix(.122 0 0 .122 915 1708)"/><path d="M250 38.5c116.813 0 211.5 94.693 211.5 211.5 0 116.813-94.687 211.5-211.5 211.5-116.807 0-211.5-94.687-211.5-211.5 0-116.807 94.693-211.5 211.5-211.5z" transform="matrix(.122 0 0 .122 1098 1708)"/><path d="M250 38.5c116.813 0 211.5 94.693 211.5 211.5 0 116.813-94.687 211.5-211.5 211.5-116.807 0-211.5-94.687-211.5-211.5 0-116.807 94.693-211.5 211.5-211.5z" transform="matrix(.122 0 0 .122 1220 1708)"/><path d="M470 38.5h-47-66.5-17.63H211.5C94.65 38.5 0 133.222 0 250c0 116.765 94.65 211.5 211.5 211.5h127.37 17.63H423h47 30v-423h-30z" transform="matrix(.122 0 0 .122 1464 1708)"/><path d="M250 38.5H0v423h250 250v-423z" transform="matrix(.122 0 0 .122 1525 1708)"/><path d="M250 38.5H0v423h250 250v-423z" transform="matrix(.122 0 0 .122 1586 1708)"/><path d="M250 38.5H0v423h250 250v-423z" transform="matrix(.122 0 0 .122 1647 1708)"/><path d="M250 38.5H0v423h250 250v-423z" transform="matrix(.122 0 0 .122 1708 1708)"/><path d="M288.5 38.5H116.95 77 59.5 30 0v423h30 29.5H77h39.95H288.5C405.301 461.5 500 366.8 500 250c0-116.809-94.699-211.5-211.5-211.5z" transform="matrix(.122 0 0 .122 1769 1708)"/><path d="M470 38.5h-47-66.5-17.63H211.5C94.65 38.5 0 133.222 0 250c0 116.765 94.65 211.5 211.5 211.5h127.37 17.63H423h47 30v-423h-30z" transform="matrix(.122 0 0 .122 1891 1708)"/><path d="M288.5 38.5H116.95 77 59.5 30 0v423h30 29.5H77h39.95H288.5C405.301 461.5 500 366.8 500 250c0-116.809-94.699-211.5-211.5-211.5z" transform="matrix(.122 0 0 .122 1952 1708)"/><path d="M470 38.5h-47-66.5-17.63H211.5C94.65 38.5 0 133.222 0 250c0 116.765 94.65 211.5 211.5 211.5h127.37 17.63H423h47 30v-423h-30z" transform="matrix(.122 0 0 .122 610 1769)"/><path d="M250 38.5H0v423h250 250v-423z" transform="matrix(.122 0 0 .122 671 1769)"/><path d="M250 38.5H0v423h250 250v-423z" transform="matrix(.122 0 0 .122 732 1769)"/><path d="M250 38.5H0v423h250 250v-423z" transform="matrix(.122 0 0 .122 793 1769)"/><path d="M288.5 38.5H116.95 77 59.5 30 0v423h30 29.5H77h39.95H288.5C405.301 461.5 500 366.8 500 250c0-116.809-94.699-211.5-211.5-211.5z" transform="matrix(.122 0 0 .122 854 1769)"/><path d="M470 38.5h-47-66.5-17.63H211.5C94.65 38.5 0 133.222 0 250c0 116.765 94.65 211.5 211.5 211.5h127.37 17.63H423h47 30v-423h-30z" transform="matrix(.122 0 0 .122 976 1769)"/><path d="M288.5 38.5H116.95 77 59.5 30 0v423h30 29.5H77h39.95H288.5C405.301 461.5 500 366.8 500 250c0-116.809-94.699-211.5-211.5-211.5z" transform="matrix(.122 0 0 .122 1037 1769)"/><path d="M470 38.5h-47-66.5-17.63H211.5C94.65 38.5 0 133.222 0 250c0 116.765 94.65 211.5 211.5 211.5h127.37 17.63H423h47 30v-423h-30z" transform="matrix(.122 0 0 .122 1159 1769)"/><path d="M288.5 38.5H116.95 77 59.5 30 0v423h30 29.5H77h39.95H288.5C405.301 461.5 500 366.8 500 250c0-116.809-94.699-211.5-211.5-211.5z" transform="matrix(.122 0 0 .122 1220 1769)"/><path d="M250 38.5c116.813 0 211.5 94.693 211.5 211.5 0 116.813-94.687 211.5-211.5 211.5-116.807 0-211.5-94.687-211.5-211.5 0-116.807 94.693-211.5 211.5-211.5z" transform="matrix(.122 0 0 .122 1403 1769)"/><path d="M250 38.5c116.813 0 211.5 94.693 211.5 211.5 0 116.813-94.687 211.5-211.5 211.5-116.807 0-211.5-94.687-211.5-211.5 0-116.807 94.693-211.5 211.5-211.5z" transform="matrix(.122 0 0 .122 1525 1769)"/><path d="M470 38.5h-47-66.5-17.63H211.5C94.65 38.5 0 133.222 0 250c0 116.765 94.65 211.5 211.5 211.5h127.37 17.63H423h47 30v-423h-30z" transform="matrix(.122 0 0 .122 1647 1769)"/><path d="M250 38.5H0v423h250 250v-423z" transform="matrix(.122 0 0 .122 1708 1769)"/><path d="M288.5 38.5H116.95 77 59.5 30 0v423h30 29.5H77h39.95H288.5C405.301 461.5 500 366.8 500 250c0-116.809-94.699-211.5-211.5-211.5z" transform="matrix(.122 0 0 .122 1769 1769)"/><path d="M470 38.5h-47-66.5-17.63H211.5C94.65 38.5 0 133.222 0 250c0 116.765 94.65 211.5 211.5 211.5h127.37 17.63H423h47 30v-423h-30z" transform="matrix(.122 0 0 .122 1891 1769)"/><path d="M288.5 38.5H116.95 77 59.5 30 0v423h30 29.5H77h39.95H288.5C405.301 461.5 500 366.8 500 250c0-116.809-94.699-211.5-211.5-211.5z" transform="matrix(.122 0 0 .122 1952 1769)"/><path d="M470 38.5h-47-66.5-17.63H211.5C94.65 38.5 0 133.222 0 250c0 116.765 94.65 211.5 211.5 211.5h127.37 17.63H423h47 30v-423h-30z" transform="matrix(.122 0 0 .122 671 1830)"/><path d="M250 38.5H0v423h250 250v-423z" transform="matrix(.122 0 0 .122 732 1830)"/><path d="M288.5 38.5H116.95 77 59.5 30 0v423h30 29.5H77h39.95H288.5C405.301 461.5 500 366.8 500 250c0-116.809-94.699-211.5-211.5-211.5z" transform="matrix(.122 0 0 .122 793 1830)"/><path d="M250 38.5c116.813 0 211.5 94.693 211.5 211.5 0 116.813-94.687 211.5-211.5 211.5-116.807 0-211.5-94.687-211.5-211.5 0-116.807 94.693-211.5 211.5-211.5z" transform="matrix(.122 0 0 .122 976 1830)"/><path d="M470 38.5h-47-66.5-17.63H211.5C94.65 38.5 0 133.222 0 250c0 116.765 94.65 211.5 211.5 211.5h127.37 17.63H423h47 30v-423h-30z" transform="matrix(.122 0 0 .122 1159 1830)"/><path d="M288.5 38.5H116.95 77 59.5 30 0v423h30 29.5H77h39.95H288.5C405.301 461.5 500 366.8 500 250c0-116.809-94.699-211.5-211.5-211.5z" transform="matrix(.122 0 0 .122 1220 1830)"/><path d="M250 38.5c116.813 0 211.5 94.693 211.5 211.5 0 116.813-94.687 211.5-211.5 211.5-116.807 0-211.5-94.687-211.5-211.5 0-116.807 94.693-211.5 211.5-211.5z" transform="matrix(.122 0 0 .122 1342 1830)"/><path d="M250 38.5c116.813 0 211.5 94.693 211.5 211.5 0 116.813-94.687 211.5-211.5 211.5-116.807 0-211.5-94.687-211.5-211.5 0-116.807 94.693-211.5 211.5-211.5z" transform="matrix(.122 0 0 .122 1464 1830)"/><path d="M470 38.5h-47-66.5-17.63H211.5C94.65 38.5 0 133.222 0 250c0 116.765 94.65 211.5 211.5 211.5h127.37 17.63H423h47 30v-423h-30z" transform="matrix(.122 0 0 .122 1647 1830)"/><path d="M288.5 38.5H116.95 77 59.5 30 0v423h30 29.5H77h39.95H288.5C405.301 461.5 500 366.8 500 250c0-116.809-94.699-211.5-211.5-211.5z" transform="matrix(.122 0 0 .122 1708 1830)"/><path d="M470 38.5h-47-66.5-17.63H211.5C94.65 38.5 0 133.222 0 250c0 116.765 94.65 211.5 211.5 211.5h127.37 17.63H423h47 30v-423h-30z" transform="matrix(.122 0 0 .122 1891 1830)"/><path d="M288.5 38.5H116.95 77 59.5 30 0v423h30 29.5H77h39.95H288.5C405.301 461.5 500 366.8 500 250c0-116.809-94.699-211.5-211.5-211.5z" transform="matrix(.122 0 0 .122 1952 1830)"/><path d="M250 38.5c116.813 0 211.5 94.693 211.5 211.5 0 116.813-94.687 211.5-211.5 211.5-116.807 0-211.5-94.687-211.5-211.5 0-116.807 94.693-211.5 211.5-211.5z" transform="matrix(.122 0 0 .122 549 1891)"/><path d="M250 38.5c116.813 0 211.5 94.693 211.5 211.5 0 116.813-94.687 211.5-211.5 211.5-116.807 0-211.5-94.687-211.5-211.5 0-116.807 94.693-211.5 211.5-211.5z" transform="matrix(.122 0 0 .122 671 1891)"/><path d="M470 38.5h-47-66.5-17.63H211.5C94.65 38.5 0 133.222 0 250c0 116.765 94.65 211.5 211.5 211.5h127.37 17.63H423h47 30v-423h-30z" transform="matrix(.122 0 0 .122 915 1891)"/><path d="M288.5 38.5H116.95 77 59.5 30 0v423h30 29.5H77h39.95H288.5C405.301 461.5 500 366.8 500 250c0-116.809-94.699-211.5-211.5-211.5z" transform="matrix(.122 0 0 .122 976 1891)"/><path d="M470 38.5h-47-66.5-17.63H211.5C94.65 38.5 0 133.222 0 250c0 116.765 94.65 211.5 211.5 211.5h127.37 17.63H423h47 30v-423h-30z" transform="matrix(.122 0 0 .122 1098 1891)"/><path d="M250 38.5H0v423h250 250v-423z" transform="matrix(.122 0 0 .122 1159 1891)"/><path d="M288.5 38.5H116.95 77 59.5 30 0v423h30 29.5H77h39.95H288.5C405.301 461.5 500 366.8 500 250c0-116.809-94.699-211.5-211.5-211.5z" transform="matrix(.122 0 0 .122 1220 1891)"/><path d="M250 38.5c116.813 0 211.5 94.693 211.5 211.5 0 116.813-94.687 211.5-211.5 211.5-116.807 0-211.5-94.687-211.5-211.5 0-116.807 94.693-211.5 211.5-211.5z" transform="matrix(.122 0 0 .122 1525 1891)"/><path d="M470 38.5h-47-66.5-17.63H211.5C94.65 38.5 0 133.222 0 250c0 116.765 94.65 211.5 211.5 211.5h127.37 17.63H423h47 30v-423h-30z" transform="matrix(.122 0 0 .122 1647 1891)"/><path d="M250 38.5H0v423h250 250v-423z" transform="matrix(.122 0 0 .122 1708 1891)"/><path d="M250 38.5H0v423h250 250v-423z" transform="matrix(.122 0 0 .122 1769 1891)"/><path d="M288.5 38.5H116.95 77 59.5 30 0v423h30 29.5H77h39.95H288.5C405.301 461.5 500 366.8 500 250c0-116.809-94.699-211.5-211.5-211.5z" transform="matrix(.122 0 0 .122 1830 1891)"/><path d="M250 38.5c116.813 0 211.5 94.693 211.5 211.5 0 116.813-94.687 211.5-211.5 211.5-116.807 0-211.5-94.687-211.5-211.5 0-116.807 94.693-211.5 211.5-211.5z" transform="matrix(.122 0 0 .122 488 1952)"/><path d="M470 38.5h-47-66.5-17.63H211.5C94.65 38.5 0 133.222 0 250c0 116.765 94.65 211.5 211.5 211.5h127.37 17.63H423h47 30v-423h-30z" transform="matrix(.122 0 0 .122 610 1952)"/><path d="M288.5 38.5H116.95 77 59.5 30 0v423h30 29.5H77h39.95H288.5C405.301 461.5 500 366.8 500 250c0-116.809-94.699-211.5-211.5-211.5z" transform="matrix(.122 0 0 .122 671 1952)"/><path d="M250 38.5c116.813 0 211.5 94.693 211.5 211.5 0 116.813-94.687 211.5-211.5 211.5-116.807 0-211.5-94.687-211.5-211.5 0-116.807 94.693-211.5 211.5-211.5z" transform="matrix(.122 0 0 .122 793 1952)"/><path d="M250 38.5c116.813 0 211.5 94.693 211.5 211.5 0 116.813-94.687 211.5-211.5 211.5-116.807 0-211.5-94.687-211.5-211.5 0-116.807 94.693-211.5 211.5-211.5z" transform="matrix(.122 0 0 .122 1037 1952)"/><path d="M470 38.5h-47-66.5-17.63H211.5C94.65 38.5 0 133.222 0 250c0 116.765 94.65 211.5 211.5 211.5h127.37 17.63H423h47 30v-423h-30z" transform="matrix(.122 0 0 .122 1159 1952)"/><path d="M288.5 38.5H116.95 77 59.5 30 0v423h30 29.5H77h39.95H288.5C405.301 461.5 500 366.8 500 250c0-116.809-94.699-211.5-211.5-211.5z" transform="matrix(.122 0 0 .122 1220 1952)"/><path d="M470 38.5h-47-66.5-17.63H211.5C94.65 38.5 0 133.222 0 250c0 116.765 94.65 211.5 211.5 211.5h127.37 17.63H423h47 30v-423h-30z" transform="matrix(.122 0 0 .122 1342 1952)"/><path d="M250 38.5H0v423h250 250v-423z" transform="matrix(.122 0 0 .122 1403 1952)"/><path d="M288.5 38.5H116.95 77 59.5 30 0v423h30 29.5H77h39.95H288.5C405.301 461.5 500 366.8 500 250c0-116.809-94.699-211.5-211.5-211.5z" transform="matrix(.122 0 0 .122 1464 1952)"/><path d="M250 38.5c116.813 0 211.5 94.693 211.5 211.5 0 116.813-94.687 211.5-211.5 211.5-116.807 0-211.5-94.687-211.5-211.5 0-116.807 94.693-211.5 211.5-211.5z" transform="matrix(.122 0 0 .122 1647 1952)"/><path d="M250 38.5c116.813 0 211.5 94.693 211.5 211.5 0 116.813-94.687 211.5-211.5 211.5-116.807 0-211.5-94.687-211.5-211.5 0-116.807 94.693-211.5 211.5-211.5z" transform="matrix(.122 0 0 .122 1891 1952)"/><g transform="matrix(-4.27 0 0 4.27 427 0)"><path d="M85 66.221V33.75C85 23.411 76.414 15 65.859 15H34.14C23.586 15 15 23.411 15 33.75v51.246l50.855-.016C76.414 84.98 85 76.564 85 66.221z" fill="none"/><path d="M100 66.221V33.75C100 15.141 84.68 0 65.859 0H34.14C15.32 0 0 15.141 0 33.75V100l65.859-.02C84.68 99.98 100 84.84 100 66.221zm-15 0c0 10.344-8.586 18.76-19.145 18.76L15 84.996V33.75C15 23.411 23.586 15 34.14 15h31.719C76.414 15 85 23.411 85 33.75v32.471z"/></g><g transform="matrix(4.27 0 0 4.27 1586 0)"><path d="M85 66.221V33.75C85 23.411 76.414 15 65.859 15H34.14C23.586 15 15 23.411 15 33.75v51.246l50.855-.016C76.414 84.98 85 76.564 85 66.221z" fill="none"/><path d="M100 66.221V33.75C100 15.141 84.68 0 65.859 0H34.14C15.32 0 0 15.141 0 33.75V100l65.859-.02C84.68 99.98 100 84.84 100 66.221zm-15 0c0 10.344-8.586 18.76-19.145 18.76L15 84.996V33.75C15 23.411 23.586 15 34.14 15h31.719C76.414 15 85 23.411 85 33.75v32.471z"/></g><g transform="matrix(-4.27 0 0 -4.27 427 2013)"><path d="M85 66.221V33.75C85 23.411 76.414 15 65.859 15H34.14C23.586 15 15 23.411 15 33.75v51.246l50.855-.016C76.414 84.98 85 76.564 85 66.221z" fill="none"/><path d="M100 66.221V33.75C100 15.141 84.68 0 65.859 0H34.14C15.32 0 0 15.141 0 33.75V100l65.859-.02C84.68 99.98 100 84.84 100 66.221zm-15 0c0 10.344-8.586 18.76-19.145 18.76L15 84.996V33.75C15 23.411 23.586 15 34.14 15h31.719C76.414 15 85 23.411 85 33.75v32.471z"/></g><path d="M100 72.779V27.195C100 12.203 87.604 0 72.37 0H27.63C12.397 0 0 12.203 0 27.195V100l72.37-.042c15.234 0 27.63-12.187 27.63-27.179z" transform="matrix(-1.83 0 0 1.83 305 122)"/><path d="M100 72.779V27.195C100 12.203 87.604 0 72.37 0H27.63C12.397 0 0 12.203 0 27.195V100l72.37-.042c15.234 0 27.63-12.187 27.63-27.179z" transform="matrix(1.83 0 0 1.83 1708 122)"/><path d="M100 72.779V27.195C100 12.203 87.604 0 72.37 0H27.63C12.397 0 0 12.203 0 27.195V100l72.37-.042c15.234 0 27.63-12.187 27.63-27.179z" transform="matrix(-1.83 0 0 -1.83 305 1891)"/></g></mask></defs><path fill="url(#A)" mask="url(#B)" d="M0 0h2013v2013H0z"/></g></svg>