<svg xmlns="http://www.w3.org/2000/svg" viewBox="0 0 504 150" fill="#b6cce1" xmlns:v="https://vecta.io/nano"><path d="M405.4 125.7H100.8l24.3 24.3zm48.9-15.5V61.6c0-9.1 6.4-16.7 15.5-16.7s15.5 7.6 15.5 16.7v48.6H504V61.6c0-20-13.7-36.1-33.7-36.1-9.1 0-16.1 5.2-16.1 5.2v-3.3h-18.8V110h18.8v.2zm-62.3-85c-21.9 0-37.3 19.1-37.3 43.4 0 25.5 19.4 43.4 39.2 43.4 10 0 22.5-3.3 33.1-18.5l-16.7-9.7c-12.8 18.8-34.3 9.4-36.7-9.7h54c4.8-29.2-14.3-48.9-35.6-48.9zM408.4 58h-33.7c3.9-19.1 30.1-20.3 33.7 0zm-59.8 32.5c-1.8 1.2-3.9 2.1-6.4 2.1-3 0-8.8-2.4-8.8-10V47.1h16.1V27.3h-16.1V6.7h-18.8v20.6h-10V47h10v35.5c0 18.5 14 29.5 27.9 29.5 5.2 0 12.4-1.8 18.2-5.2l-12.1-16.3zm-69.2-63.2v48.6c0 9.1-6.4 16.7-15.5 16.7s-15.5-7.6-15.5-16.7V27.3h-18.8v48.6c0 20 13.7 36.1 33.7 36.1 9.1 0 16.1-5.2 16.1-5.2v3h18.8V27.3h-18.8zm-85.1 38.9l32.2-38.9h-26.1l-22.8 28.9V0h-19.1v110.2h19.1v-34l28 34h26.1zM129 27.3V31c-5.8-3.6-10.6-5.8-17.6-5.8-21.3 0-37.7 19.4-37.7 43.4S89.9 112 111.4 112c7 0 12.1-2.1 17.6-5.8v3.6h18.8V27.3H129zm-17.9 65c-10.6 0-18.2-10.3-18.2-23.4s7.6-23.4 18.2-23.4S129 55.9 129 68.9c.4 13.1-7.2 23.4-17.9 23.4zm-91.4 17.9V78h13.7l24 31.9H82L52.8 71.4c9.1-6.4 14.9-17 14.9-29.1 0-19.7-16.1-35.5-35.5-35.5H0V110h19.7v.2zm0-83.8h12.8c8.8 0 16.1 7.3 16.1 16.1s-7.3 16.1-16.1 16.1H19.7V26.4z"/></svg>