<svg xmlns="http://www.w3.org/2000/svg" xmlns:xlink="http://www.w3.org/1999/xlink" width="717.67" height="453.964" xmlns:v="https://vecta.io/nano"><path d="M271.986 71.477c-1.015 1.308-2.755 1.816-4.314 1.257a5.83 5.83 0 0 1-.679-.248c.249-2.667.126-5.356-.367-7.989a21.36 21.36 0 0 1-1.64 6.57 8.91 8.91 0 0 1-1.76-2.513c-.814-1.931-1.354-3.966-1.603-6.046-1.204-7.088-2.393-14.462-.428-21.389 2.879-10.119 11.957-17.393 15.749-27.211l1.868-1.677c3.198 5.445 3.339 12.212 2.036 18.387-1.297 6.187-3.909 11.994-5.975 17.96s-3.613 12.313-2.655 18.556c.22 1.47.556 3.086-.233 4.342z" fill="#2f2e41"/><path fill="#ffb6b6" d="M230.469 157.098l-12.174 55.681 53.174 17.319-7.819-73h-33.181z"/><path d="M605.699 452.598h24.096V342.129c-.067-59.36-48.171-107.464-107.531-107.531H298.326c-59.36.067-107.464 48.171-107.531 107.531v110.469h24.096v-75.469c.067-59.912 48.619-108.464 108.531-108.531h173.747c59.912.068 108.463 48.619 108.531 108.531z" fill="#e6e6e6"/><g fill="#f2f2f2"><path d="M312.894 394.806l-25.68-7.775c-1.67-6.862-2.512-13.9-2.509-20.963a8.4 8.4 0 0 1 13.815-6.355c13.773 11.814 33.948 18.118 46.968 31.58 10.915 11.461 16.026 27.264 13.888 42.946l5.621 18.181a87.26 87.26 0 0 1-63.977-35.285c-4.14-5.739-7.541-11.976-10.122-18.565 10.892-1.236 21.996-3.764 21.996-3.764z"/><path d="M379.823 424.579l13.098-3.966q.025-.104.05-.209a8.41 8.41 0 0 0-12.483-9.094c-5.946 3.532-12.548 6.573-17.289 11.476a26.56 26.56 0 0 0-7.083 21.904l-2.867 9.273c12.985-.937 24.909-7.514 32.63-17.996a42.99 42.99 0 0 0 5.162-9.469c-5.555-.63-11.219-1.92-11.219-1.92z"/></g><g fill="#3f3d56"><path d="M485.849 153.13h-51.006a2.72 2.72 0 0 0-2.717 2.724v80.574h56.447v-80.574c0-.723-.287-1.416-.798-1.927s-1.204-.798-1.927-.798zm-25.331 45.781c-3.32-.015-6.007-2.703-6.023-6.023v-9.293c.004-3.323 2.7-6.015 6.023-6.015s6.019 2.692 6.023 6.015v9.293c-.015 3.32-2.703 6.007-6.023 6.023z"/><path d="M570.309 27.385H352.28a7.08 7.08 0 0 0-7.066 7.066v147.127c.004 3.901 3.165 7.063 7.066 7.066h218.029c3.901-.004 7.063-3.165 7.066-7.066V34.452a7.08 7.08 0 0 0-7.066-7.066z"/></g><path d="M568.489 32.489H354.102a3.79 3.79 0 0 0-3.779 3.787v143.48c.004 2.086 1.693 3.776 3.779 3.779h214.388c2.086-.004 3.776-1.693 3.779-3.779V36.276a3.79 3.79 0 0 0-3.779-3.787z" fill="#fff"/><g fill="#3f3d56"><path d="M431.951 233.851v7.774c.002.839.681 1.518 1.52 1.52h53.758a1.53 1.53 0 0 0 1.52-1.52v-7.774z"/><path d="M526.73 245.849H399.181c-.707 0-1.376-.319-1.822-.868s-.62-1.27-.474-1.962l1.979-9.4c.232-1.083 1.188-1.859 2.296-1.863h123.591c1.108.004 2.064.779 2.296 1.863l1.979 9.4c.146.692-.028 1.413-.474 1.962s-1.115.868-1.822.868z"/></g><g fill="#e6e6e6"><rect x="402.066" y="233.45" width="3.928" height="2.357" rx=".488"/><rect x="409.923" y="233.45" width="3.928" height="2.357" rx=".488"/><rect x="417.779" y="233.45" width="3.928" height="2.357" rx=".488"/><rect x="425.636" y="233.45" width="3.928" height="2.357" rx=".488"/><rect x="433.493" y="233.45" width="3.928" height="2.357" rx=".488"/><rect x="441.35" y="233.45" width="3.928" height="2.357" rx=".488"/><rect x="449.207" y="233.45" width="3.928" height="2.357" rx=".488"/><rect x="457.063" y="233.45" width="3.928" height="2.357" rx=".488"/><rect x="464.92" y="233.45" width="3.928" height="2.357" rx=".488"/><rect x="472.777" y="233.45" width="3.928" height="2.357" rx=".488"/><rect x="480.634" y="233.45" width="3.928" height="2.357" rx=".488"/><rect x="488.49" y="233.45" width="3.928" height="2.357" rx=".488"/><rect x="496.347" y="233.45" width="3.928" height="2.357" rx=".488"/><rect x="504.204" y="233.45" width="3.928" height="2.357" rx=".488"/><rect x="512.061" y="233.45" width="3.928" height="2.357" rx=".488"/><rect x="519.917" y="233.45" width="3.928" height="2.357" rx=".488"/><rect x="401.973" y="237.378" width="3.928" height="2.357" rx=".488"/><rect x="409.83" y="237.378" width="3.928" height="2.357" rx=".488"/><rect x="417.687" y="237.378" width="3.928" height="2.357" rx=".488"/><rect x="425.543" y="237.378" width="3.928" height="2.357" rx=".488"/><rect x="433.4" y="237.378" width="3.928" height="2.357" rx=".488"/><rect x="441.257" y="237.378" width="3.928" height="2.357" rx=".488"/><rect x="449.114" y="237.378" width="3.928" height="2.357" rx=".488"/><rect x="456.97" y="237.378" width="3.928" height="2.357" rx=".488"/><rect x="464.827" y="237.378" width="3.928" height="2.357" rx=".488"/><rect x="472.684" y="237.378" width="3.928" height="2.357" rx=".488"/><rect x="480.541" y="237.378" width="3.928" height="2.357" rx=".488"/><rect x="488.398" y="237.378" width="3.928" height="2.357" rx=".488"/><rect x="496.254" y="237.378" width="3.928" height="2.357" rx=".488"/><rect x="504.111" y="237.378" width="3.928" height="2.357" rx=".488"/><rect x="511.968" y="237.378" width="3.928" height="2.357" rx=".488"/><rect x="519.825" y="237.378" width="3.928" height="2.357" rx=".488"/><rect x="439.686" y="242.092" width="31.427" height="2.357" rx=".488"/></g><path d="M536.523 68.508v75.52c-.001 10.531-8.539 19.069-19.07 19.07h-94.52a19.08 19.08 0 0 1-17.51-11.49c-.496-1.128-.875-2.304-1.13-3.51 2.009.777 4.146 1.174 6.3 1.17h94.52c9.704-.014 17.566-7.876 17.58-17.58v-75.52a17.37 17.37 0 0 0-1.17-6.3 17.99 17.99 0 0 1 3.51 1.13 19.08 19.08 0 0 1 11.49 17.51z" fill="#f2f2f2"/><path fill="#ffb6b6" d="M183.897 368.973l-9.375 5.805-27.619-33.95 13.836-8.566 23.158 36.711z"/><path d="M191.991 381.099l-7.541 3.367-4.524-6.519-.269 8.659-20.001 8.929c-1.968.879-4.278.375-5.702-1.242s-1.631-3.973-.511-5.814l11.048-18.161-3.213-7.198 17.248-6.497zm-34.356-18.657l15.834-15.344c-11.764-29.029-12.704-47.022-29.012-82.131 38.693 7.914 66.356 7.433 98.356.337 10.833-2.365 38.786-23.956 36.487-35.027q-.161-.776-.381-1.538c-3.435-11.711-1.016-29.646-8.451-42.642-13.755-5.186-34.653 12.326-51 23-7.883 5.147-2.112 12.161-8 14l-22.569 7.326-55.372-8.943a20.51 20.51 0 0 0-23.376 17.359q-.141.902-.204 1.813c2.548 14.103 5.204 27.837 8.063 40.873.923 4.208-.635 12.275 2.836 12.395s2.073 8.464 3.154 12.543c6.655 25.114 10.863 37.267 33.635 55.977z" fill="#2f2e41"/><path fill="#ffb6b6" d="M127.329 429.745l-9.767-5.098 15.453-40.936 14.415 7.524-20.101 38.51z"/><path d="M125.701 399.184l15.661 10.783c19.195-27.76 31.658-64.854 40.939-106.36 36.139-15.765 67.761-33.801 89.796-57.993 7.524-8.432 6.988-21.316-1.209-29.095q-.578-.542-1.196-1.039c-9.545-7.603-30.743-3.228-44.292-9.583l-24.204 33.5 2.782 7.803-8.42 4.099-7.109 3.461-8.138 3.962-26.678 12.987c-4.885 2.442-8.593 6.733-10.3 11.921a20.48 20.48 0 0 0 1.211 15.708q.404.818.878 1.6l-9.908 49.36s2.726 8.593-1.563 7.789-1.952 9.725-1.952 9.725zm-4.287 53.121l-7.321-3.821 2.301-7.594-6.955 5.165-19.418-10.135c-1.911-.997-2.951-3.121-2.567-5.241s2.101-3.746 4.24-4.011l21.096-2.616 3.647-6.988 15.802 9.486z" fill="#2f2e41"/><path d="M334.892 237.703l-11.423-27.606-9 5 5.435 28.082c-1.512 4.941.989 10.22 5.77 12.18s10.268-.045 12.659-4.625.9-10.228-3.441-13.031zM143.208 19.407l17.381 24.3 7.633-6.909-11.657-26.12c.353-5.155-3.279-9.73-8.38-10.556a10 10 0 0 0-11.282 7.373c-1.291 5.003 1.441 10.166 6.305 11.912z" fill="#ffb6b6"/><path d="M221.697 173.421c-11.274 17.486 30.028 55.586 51.772 46.677 3.807-1.56 16.904-6.713 7.952-13.856s1.038.851 1.274-3.799c.158-3.109-2.249-9.929.262-9.637s3.953-6.971-1.517-8.822a10.62 10.62 0 0 1-7-9c-.523-19.167 5.968-39.177 5.968-39.177l26.498 67.735s-.196 11.719 3.183 8.137 3.133 8.009 3.133 8.009 5.025 3.507 2.135 5.458 3.111 7.952 3.111 7.952l14-1s-.219-10.4-2.61-12.7-1.216-5.919-1.216-5.919-4.928-4.584-2.051-9.983-20.951-101.961-20.951-101.961a25.72 25.72 0 0 0-18.366-19.62l-15.121-4.163-2.685-10.653h-21.291l-3.709 7-34-3s-33.643-30.61-32-33-3.573-7.986-3.573-7.986-4.454-1.458-1.941-2.236-2.237-2.578-2.237-2.578-4.4-1.156-2.325-2.678-6.925-2.522-6.925-2.522l-11.677 9.528 2.36 4.002s-1.439 5.449.439 3.46 2.232 3.784 2.232 3.784.959 6.322 6.646 8.227 10 20 10 20l48 40c-7.311 8.391-5.57 17.166.906 26.142z" fill="#f55f5f"/><circle cx="258.343" cy="36.964" r="23.056" fill="#ffb6b6"/><g fill="#2f2e41"><path d="M278.469 30.098c-.59.17-9.25 1.3-13 2-3.68.69-4.32-4-7.33-3.12.002-.021-.002-.041-.01-.06-.467-2.485-1.264-4.896-2.37-7.17a21.18 21.18 0 0 1 .17 6.6c-.002.057-.008.114-.02.17-.01.1-.03.19-.04.29-3.18-1.4-5.2-.15-7.4.29-2.46.49-4.38 1.57-3 10 2.83 17.34 17.55 23.53 15 35-.5 2.27-1.76 5.11-3.34 5.82-.467-2.485-1.264-4.896-2.37-7.17a21.18 21.18 0 0 1 .17 6.6c-2.45-2.65-4.22-11.91-12.46-19.25-2.03-1.8-12.2-12.48-13.42-15 .374 2.015.555 4.061.54 6.11.002 1.372-.091 2.742-.28 4.1a1.15 1.15 0 0 1-.03.26c-.01.16-.04.3-.06.45-.02.17-.05.33-.08.5-3.33-.48-6.28-1.06-7.67-2.42-6.76-6.58 1.49-19.4 6-31 6.45-16.61 25.18-18.82 27-19 8.02-.81 21.57.91 26 10 3.1 6.37 1.12 15.1-2 16z"/><path d="M229.854 33.847l16.701-25.98a25.61 25.61 0 0 0-13.188-3.46 16.42 16.42 0 0 0-12.109 5.711c-3.411 4.239-3.996 10.232-2.718 15.521.441 1.827 8.846-4.6 6.846-1.6-1.642 2.349-4.327 12.221-5 15-1.084 4.472-4.063 9.062-1.409 12.821 3.139 4.444 8.74 6.654 14.177 6.878s10.788-1.282 15.954-2.989z"/></g><path d="M236.271 32.822a1 1 0 0 1-.273-1.962c.262-.433.155-2.253.068-3.725-.325-5.524-.87-14.769 8.106-21.01a1 1 0 0 1 1.392.25 1 1 0 0 1-.25 1.392c-8.055 5.601-7.571 13.815-7.251 19.25.183 3.107.315 5.352-1.57 5.779-.073.017-.147.025-.222.025z" fill="#f55f5f"/><path d="M0 451.951c-.002.655.528 1.188 1.183 1.19H716.48a1.19 1.19 0 1 0 0-2.38H1.19c-.315-.001-.617.123-.84.345s-.349.523-.35.838z" fill="#ccc"/><g fill="#f55f5f"><path d="M442.535 94.849h-15.132c-.836 0-1.513-.677-1.513-1.513s.677-1.513 1.513-1.513h15.132c.836 0 1.513.677 1.513 1.513s-.677 1.513-1.513 1.513zm27.237 0H454.64a1.51 1.51 0 0 1-1.31-.757c-.27-.469-.27-1.045 0-1.513s.77-.757 1.31-.757h15.132a1.51 1.51 0 0 1 1.31.757c.27.469.27 1.045 0 1.513s-.77.757-1.31.757zm13.619 12.106h-15.132a1.51 1.51 0 0 1-1.31-.757c-.27-.469-.27-1.045 0-1.513s.77-.757 1.31-.757h15.132a1.51 1.51 0 0 1 1.31.757c.27.469.27 1.045 0 1.513s-.77.757-1.31.757z"/><use xlink:href="#B"/><path d="M510.713 94.849h-28.834c-.836 0-1.513-.677-1.513-1.513s.677-1.513 1.513-1.513h28.834a1.51 1.51 0 0 1 1.31.757c.27.469.27 1.045 0 1.513s-.77.757-1.31.757zm-57.818-22.924H424.06c-.542.001-1.043-.287-1.314-.755s-.271-1.047 0-1.515.772-.757 1.314-.755h28.834a1.51 1.51 0 0 1 1.31.757c.27.469.27 1.045 0 1.513s-.77.757-1.31.757z"/><use xlink:href="#C"/><use xlink:href="#D"/><use xlink:href="#B" x="11.564" y="25.951"/><use xlink:href="#C" x="17.617" y="59.625"/><use xlink:href="#D" y="59.625"/><path d="M425.174 136.151l6.061-13.865c.337-.762 1.227-1.108 1.99-.774s1.113 1.222.783 1.986l-6.061 13.865c-.215.498-.68.843-1.219.904s-1.069-.171-1.39-.608-.384-1.013-.164-1.509z"/></g><defs ><path id="B" d="M456.237 106.955h-28.834c-.836 0-1.513-.677-1.513-1.513s.677-1.513 1.513-1.513h28.834c.836 0 1.513.677 1.513 1.513s-.677 1.513-1.513 1.513z"/><path id="C" d="M455.265 80.766c-.579 0-1.094-.367-1.282-.915s-.007-1.154.45-1.51l7.383-5.739c.6-.466.977-1.163 1.039-1.92s-.196-1.506-.711-2.064l-6.199-6.711c-.508-.55-.474-1.407.075-1.915s1.407-.474 1.915.075l9.205 9.965c.258.279.386.653.355 1.031s-.219.726-.519.959l-10.881 8.458a1.35 1.35 0 0 1-.831.285z"/><path id="D" d="M422.601 80.766c.579 0 1.094-.367 1.282-.915s.007-1.154-.45-1.51l-7.383-5.739c-.6-.466-.977-1.163-1.039-1.92s.196-1.506.711-2.064l6.199-6.711c.508-.55.474-1.407-.075-1.915s-1.407-.474-1.915.075l-9.205 9.965c-.258.279-.386.653-.355 1.031s.219.726.519.959l10.881 8.458a1.35 1.35 0 0 0 .831.285z"/></defs></svg>