<svg xmlns="http://www.w3.org/2000/svg" viewBox="0 0 91.2 32.8" xmlns:v="https://vecta.io/nano"><path d="M16.8 3.8C9.6 3.8 3.9 9.5 3.9 16.2c0 7.2 5.7 12.9 12.7 12.7 7.2 0 12.7-5.5 12.7-12.7-.1-6.6-5.8-12.4-12.5-12.4zm28.9.3C38.8 3.9 33 9.6 33 16.3c0 7.2 5.7 12.9 12.7 12.7 6.9.2 12.7-5.5 12.4-12.4.3-7-5.4-12.8-12.4-12.5zm29-.3c-6.7 0-12.4 5.7-12.4 12.4 0 7.2 5.7 12.9 12.7 12.7 6.9.2 12.7-5.5 12.4-12.4.2-6.9-5.5-12.7-12.7-12.7zM31.1 8.6c2.6-5 8.1-8.6 14.6-8.4 6.5-.2 12 3.4 14.6 8.4 2.6-5 8.1-8.6 14.4-8.6 9.3.2 16.5 7.4 16.5 16.5S84 32.8 74.9 32.8c-6.5.2-12-3.3-14.8-8.6-2.4 5.3-8.1 8.6-14.4 8.6-6.5.2-12-3.3-14.6-8.4-2.6 5-8.4 8.4-14.6 8.4A16.52 16.52 0 0 1 0 16.3C0 7.2 7.7 0 16.8 0 23 0 28.5 3.6 31.1 8.6zm36.4.5h14.8l-.2 4.1h-4.8v11l-5-.2V13l-.7.2-4.1-.2V9.1zm-58.4 0h14.8v3.8l-4.1.2-.7-.2v11l-5 .2v-11h-1L9 12.9l.1-3.8zm34 14.8v-7.7.5l5.3 7.2h4.8V9.1h-4.8v7.7-.5l-5.5-7.4-4.5.2v14.8h4.7 0z" fill-rule="evenodd" fill="#fff"/></svg>