<svg xmlns="http://www.w3.org/2000/svg" fill="#b6cce1" viewBox="0 0 625.1 154" stroke="#b6cce1" stroke-width="4" stroke-miterlimit="10" xmlns:v="https://vecta.io/nano"><path d="M556.2 52.5c3.5 0 6.4-1.8 6.8-4.2l3.5-39.2c0-3.9-4.5-7.1-10.3-7.1-5.7 0-10.2 3.2-10.2 7.1l3.5 39.2c.3 2.4 3.2 4.2 6.7 4.2h0M535 64.8c1.8-3 1.6-6.5-.2-8l-32.3-22.6c-3.4-1.9-8.4.4-11.2 5.3-2.9 4.9-2.4 10.5 1 12.4L528 68.5c2.2.9 5.3-.7 7-3.7h0m42.5-.1c1.8 3 4.8 4.6 7 3.8l35.7-16.6c3.4-1.9 3.8-7.5 1-12.4-2.9-4.9-7.9-7.3-11.3-5.3l-32.3 22.6c-1.7 1.5-1.9 4.9-.1 7.9h0m-21.3 36.8c3.5 0 6.4 1.8 6.8 4.2l3.5 39.2c0 3.9-4.5 7.1-10.3 7.1-5.7 0-10.2-3.2-10.2-7.1l3.5-39.2c.3-2.4 3.2-4.2 6.7-4.2h0m21.3-12.2c1.8-3 4.8-4.6 7-3.8l35.7 16.6c3.4 1.9 3.8 7.5 1 12.4-2.9 4.9-7.9 7.3-11.3 5.3l-32.3-22.6c-1.7-1.5-1.9-4.9-.1-7.9h0m-42.5 0c1.8 3 1.6 6.5-.2 8l-32.3 22.6c-3.4 1.9-8.4-.4-11.2-5.3-2.9-4.9-2.4-10.5 1-12.4L528 85.6c2.2-1 5.3.6 7 3.7h0m-182.2 7.9c0 1.2-.1 2.4-.4 3.5-1.4 4.5-6.1 8.4-11.9 8.4-4.9 0-8.8-2.8-8.8-8.7 0-9 9.9-11.5 21.1-11.4v8.2h0zm17.6-15.7c0-14.8-6.3-27.9-27.7-27.9-11 0-19.7 3.1-24.5 5.8l3.5 11.9c4.3-2.7 11.3-5 17.8-5 10.9 0 12.6 6.1 12.6 10.1v.9c-23.7 0-38.6 8.2-38.6 24.8 0 10.2 7.6 19.7 20.9 19.7 8.1 0 14.9-3.2 19-8.5h.4s2.7 11.3 17.6 7c-.8-4.7-1-9.7-1-15.8v-23M1.9 33.5l17.9 73.6c2.9 12 8.1 16.4 23 13.4l9.7-39.3c2.4-9.8 4.1-16.7 5.7-26.6h.3c1.1 10 2.7 16.9 4.7 26.7l5.9 27.2c2 9.4 7.6 15.3 22.3 12l23-87H95.8l-7.9 37.6c-2.1 11-4 19.5-5.5 29.5h-.3c-1.3-9.9-3.1-18.1-5.2-28.8l-8.2-38.4H49.4l-8.7 37.4c-2.5 11.4-4.8 20.5-6.3 30.2h-.3l-5.7-31.6-7-36-19.5.1m147.5 63.7c0 1.2-.1 2.4-.4 3.5-1.4 4.5-6.1 8.4-11.9 8.4-4.9 0-8.8-2.8-8.8-8.7 0-9 9.9-11.5 21.1-11.4v8.2h0zm17.7-15.7c0-14.8-6.3-27.9-27.7-27.9-11 0-19.7 3.1-24.5 5.8l3.5 11.9c4.3-2.7 11.3-5 17.8-5 10.9 0 12.6 6.1 12.6 10.1v.9c-23.7 0-38.6 8.2-38.6 24.8 0 10.2 7.6 19.7 20.8 19.7 8.1 0 15-3.2 19-8.5h.4s2.7 11.3 17.6 7c-.8-4.7-1-9.7-1-15.8l.1-23m29.5 20.5V33.5h-17.7v87h17.7V102m231.2-68.5v64.2c0 8.9 1.7 15.1 5.2 18.8 3.1 3.3 8.2 5.5 14.4 5.5 5.2 0 10.4-1 12.8-1.9l-.2-13.8c-1.8.4-3.9.8-6.7.8-6 0-8-3.9-8-11.8V70.7h15.4V54.1h-15.4V33.5h-17.5m-45.6 21.6v65.4h18.2V87c0-1.8.1-3.4.4-4.8 1.3-7 6.7-11.5 14.4-11.5 2.1 0 3.6.2 5.3.5V54.1c-1.4-.3-2.3-.4-4-.4-6.8 0-14.5 4.4-17.8 13.8h-.5V55.1h-16m-173.2 0v65.4h17.8V82.2c0-1.8.2-3.7.8-5.4 1.5-3.9 5.1-8.4 10.8-8.4 7.2 0 10.5 6.1 10.5 14.8v37.3h17.8V81.7c0-1.7.2-3.8.7-5.3 1.5-4.4 5.3-8 10.7-8 7.3 0 10.8 6 10.8 16.3v35.8h17.8V82c0-20.3-10.3-28.3-22-28.3-5.2 0-9.2 1.3-12.9 3.5-3.1 1.9-5.9 4.6-8.3 8.1h-.3c-2.8-7-9.4-11.7-18-11.7-11.1 0-16 5.6-19 10.4h-.3v-8.9H209"/></svg>