<svg xmlns="http://www.w3.org/2000/svg" fill="#b6cce1" viewBox="0 0 449.9 150" xmlns:v="https://vecta.io/nano"><path d="M381.7 0h-13c-4.7.3-9 4.1-9.7 8.8l-19.1 130.4c-.9 5.3 3.5 7.4 8.2 7.4h11.6c5.4.2 10-4.1 10.7-9.4l5.7-38.9c1-7.5 3.2-14.5 9.1-19.7 5.8-5.1 12.9-7.7 20.6-6.8 8.6 1.1 12 7 12.5 15.1.2 4.7-.5 8.9-1.2 13.5l-5.7 39.6c-.9 4.5 4.8 6.5 8.4 6.5h12c4.3-.1 8.2-3.2 9.6-7.2.4-1.1.5-2.3.7-3.4l7.1-46.1c2.1-14.3-.6-27.8-12.5-36.9-6.6-5-14.5-6.8-22.7-6.7-12.4.1-22.4 3.4-31.9 11.5l7.4-51.4c.3-2-.7-3.6-2.4-4.7-1.6-1.1-3.5-1.5-5.4-1.6h0zm-140 4.5c-.7 0-1.3 0-2 .1-9.4.8-16.9 8.9-17.4 18.3-.4 7.8 4.9 14.1 12.6 14.7 9.5.7 18.2-5.7 20.4-15 2.3-10.1-3.7-18-13.6-18.1h0zM11.4 6.1c-3.9-.2-6.8 4.6-7.7 8L.3 27.6c-1.2 5.1 1.3 10.7 5.8 13.3 1 .6 2 .9 3.1 1.4L45 57.1l-5.5 39.3-.6 5.6c-1.4 26.2 18.4 45.3 44.4 44.5 12.2-.4 23-4.8 32.5-12.5 11.1 11.3 26.2 14.5 41.3 11.6 21.7-4.3 40.5-23 44.9-44.6.5-2.5.8-4.9 1.1-7.4l5.4-39.2c.2-1.3-.2-2.6-1-3.6-1.8-2.3-5.1-3.2-7.9-3.2h-13.5c-4.9.1-9.4 3.8-10.7 8.4-.3.9-.3 1.8-.5 2.7l-5 36c-1.4 9.2-5.6 17.2-15.8 18.9-10 1.7-18.1-5.4-16.9-15.5l3.2-23.2c.1-.8.3-1.6.2-2.4-.1-2.4-1.3-4.6-3.1-6.1-1.6-1.2-3.5-1.9-5.5-1.8h-12.1c-.8 0-1.6 0-2.3.1a11.96 11.96 0 0 0-9.7 8.5l-.3 2.1-3 21.3c-.9 7.4-5.2 13.5-12.3 16.3-3.2 1.3-6.9 1.5-10.3.6-7.1-1.9-11-9-9.8-16.2l7.3-52.4c.9-5.7-2.2-11.6-7.7-13.6L13.1 6.5c-.5-.2-1.1-.3-1.7-.4zM305.7 44c-6.1 0-12.1.9-17.9 2.8-14.5 4.5-27 15.5-28.8 31.2-.9 8 .9 15.2 7.4 20.4 5.2 4.2 12.7 7.1 18.9 9 5.2 1.6 17.3 4.2 19.8 9.4.6 1.4.4 3-.2 4.3-2.5 5.3-10.6 5.6-15.6 5.4-6.2-.3-12.2-1.9-17.8-4.7-2.9-1.4-6-3.3-8.9-4.9-2.5-1.3-5.7-.5-7.4 1.6l-7.8 10.3c-.5.6-1 1.2-1.2 1.9-.7 1.6-.4 3.4.7 4.8 1.9 2.5 10.7 7.3 13.7 8.6 3.5 1.6 7.2 2.8 10.9 3.7 12.5 3.1 26.3 3.2 38.3-2 14.4-6.2 24-18.2 24.5-34.1.2-6-1-11.9-5.4-16.3-3.3-3.4-10.5-6.7-15-8.1-4-1.3-8.1-2.4-12.2-3.6-3.2-.9-13.4-3.2-14.3-7.4-.3-1.7.1-3.6 1.4-4.9 5.7-6.2 21.6-3.1 28.2-.1 2.7 1.2 6.2 4 8.8 4.4 2.8.5 4.6-1.4 6.2-3.3l5.2-6.6c2.4-2.9 2.6-7.3.7-10.4-1-1.6-1.8-2.2-3.3-3.3-8.7-5.5-18.8-8.1-28.9-8.1h0zM230 47.3c-.5 0-1.1 0-1.6.1-4 .5-7.6 3.5-8.8 7.4-.3 1-.4 2-.5 2.9l-11.6 82.7c-.3 2.1 1.1 3.8 2.8 4.7s3.6 1.3 5.6 1.3h11.8c4.3-.2 8.3-3.3 9.5-7.5.2-.7.3-1.4.4-2.1l11.7-83.4c.1-.7 0-1.5-.2-2.2-.9-2.3-3.5-3.5-5.8-3.8-1-.2-2.1-.2-3.2-.2h-8.3c-.7.1-1.2.1-1.8.1h0z" fill-rule="evenodd"/></svg>