<svg xmlns="http://www.w3.org/2000/svg" viewBox="0 0 744.5 150" fill-rule="evenodd" fill="#b6cce1" xmlns:v="https://vecta.io/nano"><path d="M326.8 36.9c-5.4-3-13.4-4.5-24.6-4.5-15.2 0-29.4 3.2-34.7 5.2-1.2.4-2.5 1.5-2.5 3.3v.4l1.5 7.7v.2c.5 1.6 1.8 2.3 2.9 2.3h0c.4 0 .7-.1.9-.2l2.5-.6c6.6-1.7 16.7-4.2 27.8-4.2 6.8 0 11.3.6 14.4 1.9 5 1.9 5 5.2 5 10.6v8h-3c-5.5 0-16.3.3-26.9 2-16.2 2.5-29.6 6.5-29.5 29.1 0 28.7 26.3 28.8 38.9 28.8 8.5 0 16.5-1.3 21.6-2.4 11.8-2.8 14.8-6.6 14.6-18.4V58.2c.3-7.3.3-16.4-8.9-21.3h0zm-6.5 73.8c-6.3 2.1-13.1 3.1-20.4 3.1v.7-.7c-11.6-.1-22.9-1.4-22.9-16.5.1-12 6.4-13.4 14.3-15.2l.6-.1c7.1-1.5 24.8-1.8 28.5-1.9l-.1 30.6h0zm146.9-52.5V106c.2 11.9-2.9 15.7-14.6 18.4-5.1 1.1-13.1 2.4-21.6 2.4-12.6 0-38.9-.1-38.9-28.8-.1-22.6 13.3-26.6 29.5-29.1 10.6-1.7 21.4-2 26.9-2h3v-8.1c-.1-5.4-.1-8.6-5.1-10.6-3.1-1.3-7.6-1.9-14.4-1.9-11.2 0-21.2 2.5-27.8 4.2l-2.5.6c-.3.1-.6.2-.9.2-1.2 0-2.4-.7-2.9-2.3v-.1l-1.5-7.7v-.4c0-1.8 1.3-2.9 2.5-3.3 5.4-2 19.5-5.2 34.7-5.2 11.1 0 19.2 1.5 24.6 4.5 9 5 9 14.1 9 21.4h0zm-15.7 22c-3.7 0-21.4.3-28.5 1.9l-.6.1c-7.9 1.8-14.2 3.2-14.3 15.2 0 15 11.3 16.4 23 16.5v.7-.7c7.3 0 14.1-1 20.4-3.1V80.2h0zm253.3-47.8c-36.5.1-39.6 24.4-39.7 47.3 0 22.8 3.1 47.1 39.7 47.1 36.5-.1 39.6-24.3 39.7-47.1 0-23.9-3.1-47.3-39.7-47.3h0zm0 81.1c-22.2-.1-23.3-11.7-23.4-33.8.2-22.2 1.3-33.8 23.4-33.9 22.2.1 23.3 11.7 23.4 33.9-.1 22.1-1.2 33.6-23.4 33.8h0zm-65.6 9.9l-.9.2c-5.1 1.3-12.1 3.1-24.4 3.1h0c-33.8-.1-40.5-17.4-40.5-47.3 0-34.3 10.7-47.1 39.5-47.1 10.2 0 17.2 1.3 22.2 2.6V7.3c0-1.2.5-2.8 3.3-3.3l9-2.3h.5c2.1.1 2.8 1.9 2.8 3.5V109c0 6.5-.7 12.1-11.5 14.4h0zM635 48.2c-3-.8-11.4-2.7-20.8-2.7-17.3.2-24.6 4.9-24.8 34.1.2 32 9.6 33.8 24.9 33.9v.7-.7c9.5 0 17.7-2 20.6-2.8l.1-62.5h0zm-80.7 76.4h-8c-2.2 0-3.8-1.6-3.8-3.8V59.2c-.2-10.4-3.2-13.3-14.3-13.5-12.5 0-25.2 3.2-29.3 4.3v70.7c0 2.2-1.5 3.8-3.6 3.8H487c-2.2 0-3.8-1.6-3.8-3.8v-69c-.1-6.4.5-10.8 9.4-13.8 8.6-3 25-5.6 35.8-5.6 20.7 0 29.5 7.6 29.5 25.3v63.1c.1 2.3-1.5 3.9-3.6 3.9h0zm-182 1.7c4.6-.1 8-1 9.4-2.5.5-.5.7-1.2.6-1.8 0-.5 0-.5-1.3-6.5v-.2c-.3-1.6-1.4-2.3-2.3-2.3h-.1-2.3c-3.3-.1-6-.6-6.1-5.5V5.1c0-1.7-1-3.4-3-3.5h-.6l-9 2.3c-1.5.2-3.1 1.3-3.1 3.3v100.5c.1 12 6.4 18.6 17.8 18.6h0zm-127.1-1.7h-64.5c-2.2 0-3.8-1.6-3.8-3.8v-8c0-2 .6-2.8 1.8-4.3L230 47.9h-50.3c-2.2 0-3.8-1.7-3.8-3.8v-5.7c0-2.2 1.6-3.8 3.8-3.8h65.1c2.1 0 3.8 1.6 3.8 3.8v8.2c0 1.5-.5 2.7-1.6 4l-51.4 60.7h49.6c2.1 0 3.8 1.6 3.8 3.8v5.7c0 2.2-1.7 3.8-3.8 3.8h0zM29.9 150c-5.5 0-8.5-1.3-10.1-2.2-2.2-1.3-6.4-4.7-10.1-14.6C3.7 117.3.2 97.9.1 75.1V75c.2-22.8 3.7-42.3 9.6-58.2 3.7-9.9 7.8-13.3 10.1-14.6 1.6-1 4.6-2.2 10.1-2.2 2.1 0 4.5.2 7.4.7C53.8 3.4 72.1 10 91.6 21.3h.1c19.4 11.5 34.2 24.3 44.8 37.5 6.6 8.2 7.4 13.5 7.4 16.2 0 2.6-.8 8-7.4 16.2-10.6 13.2-25.4 26-44.8 37.5h-.1c-19.5 11.3-37.8 17.9-54.4 20.6-2.8.5-5.3.7-7.3.7"/></svg>